Bungee_Color-Regular.ufo
<glyph name="dollar" format="1">
  <advance width="650"/>
  <unicode hex="0024"/>
  <outline>
    <contour>
      <point x="224" y="83" type="line"/>
      <point x="224" y="-54" type="line" smooth="yes"/>
      <point x="224" y="-79"/>
      <point x="235" y="-90"/>
      <point x="260" y="-90" type="curve" smooth="yes"/>
      <point x="405" y="-90" type="line" smooth="yes"/>
      <point x="430" y="-90"/>
      <point x="441" y="-79"/>
      <point x="441" y="-54" type="curve" smooth="yes"/>
      <point x="441" y="83" type="line"/>
    </contour>
    <contour>
      <point x="441" y="622" type="line"/>
      <point x="441" y="774" type="line" smooth="yes"/>
      <point x="441" y="799"/>
      <point x="430" y="810"/>
      <point x="405" y="810" type="curve" smooth="yes"/>
      <point x="260" y="810" type="line" smooth="yes"/>
      <point x="235" y="810"/>
      <point x="224" y="799"/>
      <point x="224" y="774" type="curve" smooth="yes"/>
      <point x="224" y="622" type="line"/>
    </contour>
    <component base="S"/>
  </outline>
</glyph>
<glyph name="parenright" format="1">
  <advance width="429"/>
  <unicode hex="0029"/>
  <outline>
    <contour>
      <point x="135" y="-80" type="line" smooth="yes"/>
      <point x="324" y="-80"/>
      <point x="381" y="3"/>
      <point x="381" y="124" type="curve" smooth="yes"/>
      <point x="381" y="595" type="line" smooth="yes"/>
      <point x="381" y="717"/>
      <point x="324" y="800"/>
      <point x="135" y="800" type="curve" smooth="yes"/>
      <point x="81" y="800" type="line" smooth="yes"/>
      <point x="56" y="800"/>
      <point x="45" y="789"/>
      <point x="45" y="764" type="curve" smooth="yes"/>
      <point x="45" y="643" type="line" smooth="yes"/>
      <point x="45" y="618"/>
      <point x="56" y="607"/>
      <point x="81" y="607" type="curve" smooth="yes"/>
      <point x="112" y="607" type="line" smooth="yes"/>
      <point x="144" y="607"/>
      <point x="153" y="592"/>
      <point x="153" y="557" type="curve" smooth="yes"/>
      <point x="153" y="161" type="line"/>
      <point x="153" y="126"/>
      <point x="144" y="111"/>
      <point x="112" y="111" type="curve" smooth="yes"/>
      <point x="81" y="111" type="line" smooth="yes"/>
      <point x="56" y="111"/>
      <point x="45" y="100"/>
      <point x="45" y="75" type="curve" smooth="yes"/>
      <point x="45" y="-44" type="line" smooth="yes"/>
      <point x="45" y="-69"/>
      <point x="56" y="-80"/>
      <point x="81" y="-80" type="curve" smooth="yes"/>
    </contour>
  </outline>
</glyph>
<glyph name="comma" format="1">
  <advance width="384"/>
  <unicode hex="002C"/>
  <outline>
    <contour>
      <point x="181" y="-100" type="line" smooth="yes"/>
      <point x="271" y="-100"/>
      <point x="329" y="-51"/>
      <point x="329" y="51" type="curve" smooth="yes"/>
      <point x="329" y="239" type="line" smooth="yes"/>
      <point x="329" y="264"/>
      <point x="318" y="275"/>
      <point x="293" y="275" type="curve" smooth="yes"/>
      <point x="91" y="275" type="line" smooth="yes"/>
      <point x="66" y="275"/>
      <point x="55" y="264"/>
      <point x="55" y="239" type="curve" smooth="yes"/>
      <point x="55" y="91" type="line" smooth="yes"/>
      <point x="55" y="66"/>
      <point x="66" y="55"/>
      <point x="91" y="55" type="curve" smooth="yes"/>
      <point x="200" y="55" type="line"/>
      <point x="200" y="40" type="line" smooth="yes"/>
      <point x="200" y="22"/>
      <point x="191" y="12"/>
      <point x="173" y="12" type="curve" smooth="yes"/>
      <point x="104" y="12" type="line" smooth="yes"/>
      <point x="79" y="12"/>
      <point x="68" y="1"/>
      <point x="68" y="-24" type="curve" smooth="yes"/>
      <point x="68" y="-64" type="line" smooth="yes"/>
      <point x="68" y="-90"/>
      <point x="79" y="-100"/>
      <point x="104" y="-100" type="curve" smooth="yes"/>
    </contour>
  </outline>
</glyph>
<glyph name="zero" format="1">
  <advance width="727"/>
  <unicode hex="0030"/>
  <outline>
    <contour>
      <point x="669" y="189" type="curve" smooth="yes"/>
      <point x="669" y="530" type="line" smooth="yes"/>
      <point x="669" y="652"/>
      <point x="610" y="735"/>
      <point x="364" y="735" type="curve" smooth="yes"/>
      <point x="118" y="735"/>
      <point x="58" y="652"/>
      <point x="58" y="530" type="curve" smooth="yes"/>
      <point x="58" y="189" type="line" smooth="yes"/>
      <point x="58" y="67"/>
      <point x="118" y="-15"/>
      <point x="364" y="-15" type="curve" smooth="yes"/>
      <point x="610" y="-15"/>
      <point x="669" y="67"/>
    </contour>
    <contour>
      <point x="284" y="225" type="curve" smooth="yes"/>
      <point x="284" y="494" type="line" smooth="yes"/>
      <point x="284" y="520"/>
      <point x="296" y="540"/>
      <point x="364" y="540" type="curve" smooth="yes"/>
      <point x="433" y="540"/>
      <point x="444" y="520"/>
      <point x="444" y="494" type="curve" smooth="yes"/>
      <point x="444" y="225" type="line" smooth="yes"/>
      <point x="444" y="198"/>
      <point x="433" y="178"/>
      <point x="364" y="178" type="curve" smooth="yes"/>
      <point x="296" y="178"/>
      <point x="284" y="198"/>
    </contour>
    <contour>
      <point x="363.0" y="747.0" type="move" name="top"/>
    </contour>
    <contour>
      <point x="363.0" y="0.0" type="move" name="bottom"/>
    </contour>
  </outline>
</glyph>
<glyph name="equal" format="1">
  <advance width="734"/>
  <unicode hex="003D"/>
  <outline>
    <contour>
      <point x="106" y="417" type="curve"/>
      <point x="628" y="417" type="line" smooth="yes"/>
      <point x="653" y="417"/>
      <point x="664" y="427"/>
      <point x="664" y="453" type="curve" smooth="yes"/>
      <point x="664" y="567" type="line" smooth="yes"/>
      <point x="664" y="593"/>
      <point x="653" y="603"/>
      <point x="628" y="603" type="curve" smooth="yes"/>
      <point x="106" y="603" type="line" smooth="yes"/>
      <point x="81" y="603"/>
      <point x="70" y="592"/>
      <point x="70" y="567" type="curve" smooth="yes"/>
      <point x="70" y="453" type="line" smooth="yes"/>
      <point x="70" y="427"/>
      <point x="81" y="417"/>
    </contour>
    <contour>
      <point x="106" y="117" type="curve"/>
      <point x="628" y="117" type="line" smooth="yes"/>
      <point x="653" y="117"/>
      <point x="664" y="127"/>
      <point x="664" y="153" type="curve" smooth="yes"/>
      <point x="664" y="267" type="line" smooth="yes"/>
      <point x="664" y="293"/>
      <point x="653" y="303"/>
      <point x="628" y="303" type="curve" smooth="yes"/>
      <point x="106" y="303" type="line" smooth="yes"/>
      <point x="81" y="303"/>
      <point x="70" y="292"/>
      <point x="70" y="267" type="curve" smooth="yes"/>
      <point x="70" y="153" type="line" smooth="yes"/>
      <point x="70" y="127"/>
      <point x="81" y="117"/>
    </contour>
  </outline>
</glyph>
<glyph name="R" format="1">
  <advance width="743"/>
  <unicode hex="0052"/>
  <outline>
    <contour>
      <point x="295" y="540" type="line"/>
      <point x="370" y="540" type="line" smooth="yes"/>
      <point x="405" y="540"/>
      <point x="414" y="520"/>
      <point x="414" y="493" type="curve" smooth="yes"/>
      <point x="414" y="459" type="line" smooth="yes"/>
      <point x="414" y="432"/>
      <point x="405" y="412"/>
      <point x="370" y="412" type="curve" smooth="yes"/>
      <point x="295" y="412" type="line"/>
    </contour>
    <contour>
      <point x="259" y="0" type="line" smooth="yes"/>
      <point x="284" y="0"/>
      <point x="295" y="11"/>
      <point x="295" y="36" type="curve" smooth="yes"/>
      <point x="295" y="232" type="line"/>
      <point x="435" y="232" type="line" smooth="yes"/>
      <point x="463" y="232"/>
      <point x="473" y="219"/>
      <point x="473" y="189" type="curve" smooth="yes"/>
      <point x="473" y="36" type="line" smooth="yes"/>
      <point x="473" y="11"/>
      <point x="484" y="0"/>
      <point x="509" y="0" type="curve" smooth="yes"/>
      <point x="664" y="0" type="line" smooth="yes"/>
      <point x="689" y="0"/>
      <point x="700" y="11"/>
      <point x="700" y="36" type="curve" smooth="yes"/>
      <point x="700" y="248" type="line" smooth="yes"/>
      <point x="700" y="332"/>
      <point x="652" y="385"/>
      <point x="579" y="393" type="curve"/>
      <point x="621" y="411"/>
      <point x="635" y="451"/>
      <point x="635" y="507" type="curve" smooth="yes"/>
      <point x="635" y="553" type="line" smooth="yes"/>
      <point x="635" y="652"/>
      <point x="588" y="720"/>
      <point x="438" y="720" type="curve" smooth="yes"/>
      <point x="105" y="720" type="line" smooth="yes"/>
      <point x="80" y="720"/>
      <point x="69" y="709"/>
      <point x="69" y="684" type="curve" smooth="yes"/>
      <point x="69" y="36" type="line" smooth="yes"/>
      <point x="69" y="11"/>
      <point x="80" y="0"/>
      <point x="105" y="0" type="curve" smooth="yes"/>
    </contour>
  </outline>
</glyph>
<glyph name="braceright" format="1">
  <advance width="455"/>
  <unicode hex="007D"/>
  <outline>
    <contour>
      <point x="143" y="161" type="line"/>
      <point x="143" y="126"/>
      <point x="134" y="111"/>
      <point x="102" y="111" type="curve" smooth="yes"/>
      <point x="81" y="111" type="line" smooth="yes"/>
      <point x="56" y="111"/>
      <point x="45" y="100"/>
      <point x="45" y="75" type="curve" smooth="yes"/>
      <point x="45" y="-44" type="line" smooth="yes"/>
      <point x="45" y="-69"/>
      <point x="56" y="-80"/>
      <point x="81" y="-80" type="curve" smooth="yes"/>
      <point x="125" y="-80" type="line" smooth="yes"/>
      <point x="314" y="-80"/>
      <point x="371" y="3"/>
      <point x="371" y="124" type="curve" smooth="yes"/>
      <point x="371" y="254" type="line"/>
      <point x="414" y="267"/>
      <point x="435" y="293"/>
      <point x="435" y="341" type="curve" smooth="yes"/>
      <point x="435" y="376" type="line" smooth="yes"/>
      <point x="435" y="424"/>
      <point x="414" y="449"/>
      <point x="371" y="462" type="curve"/>
      <point x="371" y="595" type="line" smooth="yes"/>
      <point x="371" y="717"/>
      <point x="314" y="800"/>
      <point x="125" y="800" type="curve" smooth="yes"/>
      <point x="81" y="800" type="line" smooth="yes"/>
      <point x="56" y="800"/>
      <point x="45" y="789"/>
      <point x="45" y="764" type="curve" smooth="yes"/>
      <point x="45" y="643" type="line" smooth="yes"/>
      <point x="45" y="618"/>
      <point x="56" y="607"/>
      <point x="81" y="607" type="curve" smooth="yes"/>
      <point x="102" y="607" type="line" smooth="yes"/>
      <point x="134" y="607"/>
      <point x="143" y="592"/>
      <point x="143" y="557" type="curve" smooth="yes"/>
      <point x="143" y="440" type="line" smooth="yes"/>
      <point x="143" y="400"/>
      <point x="153" y="384"/>
      <point x="188" y="378" type="curve" smooth="yes"/>
      <point x="221" y="372" type="line"/>
      <point x="231" y="371"/>
      <point x="234" y="367"/>
      <point x="234" y="358" type="curve" smooth="yes"/>
      <point x="234" y="349"/>
      <point x="231" y="346"/>
      <point x="221" y="344" type="curve" smooth="yes"/>
      <point x="188" y="338" type="line" smooth="yes"/>
      <point x="153" y="332"/>
      <point x="143" y="316"/>
      <point x="143" y="276" type="curve" smooth="yes"/>
    </contour>
  </outline>
</glyph>
<glyph name="degree" format="1">
  <advance width="483"/>
  <unicode hex="00B0"/>
  <outline>
    <contour>
      <point x="438" y="425" type="curve"/>
      <point x="438" y="609" type="line" smooth="yes"/>
      <point x="438" y="678"/>
      <point x="400" y="725"/>
      <point x="242" y="725" type="curve" smooth="yes"/>
      <point x="84" y="725"/>
      <point x="45" y="678"/>
      <point x="45" y="609" type="curve" smooth="yes"/>
      <point x="45" y="425" type="line" smooth="yes"/>
      <point x="45" y="356"/>
      <point x="84" y="309"/>
      <point x="242" y="309" type="curve" smooth="yes"/>
      <point x="400" y="309"/>
      <point x="438" y="356"/>
    </contour>
    <contour>
      <point x="192" y="474" type="curve"/>
      <point x="192" y="559" type="line" smooth="yes"/>
      <point x="192" y="574"/>
      <point x="200" y="587"/>
      <point x="242" y="587" type="curve" smooth="yes"/>
      <point x="286" y="587"/>
      <point x="292" y="574"/>
      <point x="292" y="559" type="curve" smooth="yes"/>
      <point x="292" y="474" type="line" smooth="yes"/>
      <point x="292" y="458"/>
      <point x="284" y="447"/>
      <point x="242" y="447" type="curve" smooth="yes"/>
      <point x="200" y="447"/>
      <point x="192" y="458"/>
    </contour>
  </outline>
</glyph>
<glyph name="threesuperior" format="1">
  <advance width="484"/>
  <unicode hex="00B3"/>
  <outline>
    <contour>
      <point x="75" y="338" type="line" smooth="yes"/>
      <point x="57" y="338"/>
      <point x="49" y="330"/>
      <point x="49" y="312" type="curve" smooth="yes"/>
      <point x="49" y="228" type="line" smooth="yes"/>
      <point x="49" y="210"/>
      <point x="57" y="202"/>
      <point x="75" y="202" type="curve" smooth="yes"/>
      <point x="303" y="202" type="line" smooth="yes"/>
      <point x="395" y="202"/>
      <point x="443" y="247"/>
      <point x="443" y="321" type="curve" smooth="yes"/>
      <point x="443" y="393" type="line" smooth="yes"/>
      <point x="443" y="457"/>
      <point x="420" y="490"/>
      <point x="352" y="498" type="curve"/>
      <point x="384" y="511"/>
      <point x="394" y="539"/>
      <point x="394" y="575" type="curve" smooth="yes"/>
      <point x="394" y="617" type="line" smooth="yes"/>
      <point x="394" y="681"/>
      <point x="356" y="720"/>
      <point x="276" y="720" type="curve" smooth="yes"/>
      <point x="75" y="720" type="line" smooth="yes"/>
      <point x="57" y="720"/>
      <point x="49" y="712"/>
      <point x="49" y="694" type="curve" smooth="yes"/>
      <point x="49" y="609" type="line" smooth="yes"/>
      <point x="49" y="591"/>
      <point x="57" y="583"/>
      <point x="75" y="583" type="curve" smooth="yes"/>
      <point x="209" y="583" type="line" smooth="yes"/>
      <point x="232" y="583"/>
      <point x="237" y="573"/>
      <point x="237" y="561" type="curve" smooth="yes"/>
      <point x="237" y="550" type="line" smooth="yes"/>
      <point x="237" y="539"/>
      <point x="232" y="529"/>
      <point x="209" y="529" type="curve" smooth="yes"/>
      <point x="134" y="529" type="line" smooth="yes"/>
      <point x="116" y="529"/>
      <point x="108" y="521"/>
      <point x="108" y="503" type="curve" smooth="yes"/>
      <point x="108" y="426" type="line" smooth="yes"/>
      <point x="108" y="408"/>
      <point x="116" y="400"/>
      <point x="134" y="400" type="curve" smooth="yes"/>
      <point x="256" y="400" type="line" smooth="yes"/>
      <point x="279" y="400"/>
      <point x="283" y="390"/>
      <point x="283" y="379" type="curve" smooth="yes"/>
      <point x="283" y="359" type="line" smooth="yes"/>
      <point x="283" y="348"/>
      <point x="279" y="338"/>
      <point x="256" y="338" type="curve" smooth="yes"/>
    </contour>
  </outline>
</glyph>
<glyph name="onesuperior" format="1">
  <advance width="457"/>
  <unicode hex="00B9"/>
  <outline>
    <contour>
      <point x="392" y="202" type="line" smooth="yes"/>
      <point x="410" y="202"/>
      <point x="418" y="210"/>
      <point x="418" y="228" type="curve"/>
      <point x="418" y="315" type="line" smooth="yes"/>
      <point x="418" y="333"/>
      <point x="410" y="341"/>
      <point x="392" y="341" type="curve"/>
      <point x="323" y="341" type="line"/>
      <point x="323" y="694" type="line" smooth="yes"/>
      <point x="323" y="712"/>
      <point x="315" y="720"/>
      <point x="297" y="720" type="curve" smooth="yes"/>
      <point x="88" y="720" type="line" smooth="yes"/>
      <point x="70" y="720"/>
      <point x="62" y="712"/>
      <point x="62" y="694" type="curve" smooth="yes"/>
      <point x="62" y="607" type="line" smooth="yes"/>
      <point x="62" y="589"/>
      <point x="70" y="581"/>
      <point x="88" y="581" type="curve" smooth="yes"/>
      <point x="155" y="581" type="line"/>
      <point x="155" y="341" type="line"/>
      <point x="74" y="341" type="line" smooth="yes"/>
      <point x="56" y="341"/>
      <point x="48" y="333"/>
      <point x="48" y="315" type="curve"/>
      <point x="48" y="228" type="line"/>
      <point x="48" y="210"/>
      <point x="56" y="202"/>
      <point x="74" y="202" type="curve" smooth="yes"/>
    </contour>
  </outline>
</glyph>
<glyph name="multiply" format="1">
  <advance width="734.0"/>
  <unicode hex="00D7"/>
  <outline>
    <contour>
      <point x="228.0" y="90.0" type="curve"/>
      <point x="637.0" y="499.0" type="line" smooth="yes"/>
      <point x="655.0" y="516.0"/>
      <point x="656.0" y="531.0"/>
      <point x="637.0" y="550.0" type="curve" smooth="yes"/>
      <point x="557.0" y="630.0" type="line" smooth="yes"/>
      <point x="538.0" y="649.0"/>
      <point x="523.0" y="648.0"/>
      <point x="506.0" y="630.0" type="curve" smooth="yes"/>
      <point x="97.0" y="221.0" type="line" smooth="yes"/>
      <point x="79.0" y="204.0"/>
      <point x="79.0" y="188.0"/>
      <point x="97.0" y="170.0" type="curve" smooth="yes"/>
      <point x="177.0" y="90.0" type="line" smooth="yes"/>
      <point x="196.0" y="71.0"/>
      <point x="211.0" y="72.0"/>
    </contour>
    <contour>
      <point x="97.0" y="499.0" type="curve"/>
      <point x="506.0" y="90.0" type="line" smooth="yes"/>
      <point x="523.0" y="72.0"/>
      <point x="538.0" y="71.0"/>
      <point x="557.0" y="90.0" type="curve" smooth="yes"/>
      <point x="637.0" y="170.0" type="line" smooth="yes"/>
      <point x="656.0" y="189.0"/>
      <point x="655.0" y="204.0"/>
      <point x="637.0" y="221.0" type="curve" smooth="yes"/>
      <point x="228.0" y="630.0" type="line" smooth="yes"/>
      <point x="211.0" y="648.0"/>
      <point x="195.0" y="648.0"/>
      <point x="177.0" y="630.0" type="curve" smooth="yes"/>
      <point x="97.0" y="550.0" type="line" smooth="yes"/>
      <point x="78.0" y="531.0"/>
      <point x="79.0" y="516.0"/>
    </contour>
  </outline>
</glyph>
<glyph name="Thorn" format="1">
  <advance width="692"/>
  <unicode hex="00DE"/>
  <outline>
    <contour>
      <point x="260" y="0" type="line" smooth="yes"/>
      <point x="285" y="0"/>
      <point x="296" y="11"/>
      <point x="296" y="36" type="curve" smooth="yes"/>
      <point x="296" y="102" type="line"/>
      <point x="411" y="102" type="line" smooth="yes"/>
      <point x="593" y="102"/>
      <point x="647" y="181"/>
      <point x="647" y="297" type="curve" smooth="yes"/>
      <point x="647" y="425" type="line" smooth="yes"/>
      <point x="647" y="541"/>
      <point x="593" y="620"/>
      <point x="411" y="620" type="curve" smooth="yes"/>
      <point x="296" y="620" type="line"/>
      <point x="296" y="684" type="line" smooth="yes"/>
      <point x="296" y="709"/>
      <point x="285" y="720"/>
      <point x="260" y="720" type="curve" smooth="yes"/>
      <point x="105" y="720" type="line" smooth="yes"/>
      <point x="80" y="720"/>
      <point x="69" y="709"/>
      <point x="69" y="684" type="curve" smooth="yes"/>
      <point x="69" y="36" type="line" smooth="yes"/>
      <point x="69" y="11"/>
      <point x="80" y="0"/>
      <point x="105" y="0" type="curve" smooth="yes"/>
    </contour>
    <contour>
      <point x="294" y="433" type="line"/>
      <point x="384" y="433" type="line" smooth="yes"/>
      <point x="423" y="433"/>
      <point x="431" y="410"/>
      <point x="431" y="384" type="curve" smooth="yes"/>
      <point x="431" y="331" type="line" smooth="yes"/>
      <point x="431" y="305"/>
      <point x="423" y="282"/>
      <point x="384" y="282" type="curve" smooth="yes"/>
      <point x="294" y="282" type="line"/>
    </contour>
  </outline>
</glyph>
<glyph name="Tbar" format="1">
  <advance width="656"/>
  <unicode hex="0166"/>
  <outline>
    <contour>
      <point x="521" y="222" type="line" smooth="yes"/>
      <point x="546" y="222"/>
      <point x="557" y="233"/>
      <point x="557" y="258" type="curve" smooth="yes"/>
      <point x="557" y="365" type="line" smooth="yes"/>
      <point x="557" y="390"/>
      <point x="546" y="401"/>
      <point x="521" y="401" type="curve" smooth="yes"/>
      <point x="134" y="401" type="line" smooth="yes"/>
      <point x="109" y="401"/>
      <point x="98" y="390"/>
      <point x="98" y="365" type="curve" smooth="yes"/>
      <point x="98" y="258" type="line" smooth="yes"/>
      <point x="98" y="233"/>
      <point x="109" y="222"/>
      <point x="134" y="222" type="curve" smooth="yes"/>
    </contour>
    <component base="T"/>
  </outline>
</glyph>
<glyph name="Schwa" format="1">
  <advance width="715"/>
  <unicode hex="018F"/>
  <outline>
    <contour>
      <point x="364" y="-15" type="curve" smooth="yes"/>
      <point x="608" y="-15"/>
      <point x="666" y="67"/>
      <point x="666" y="189" type="curve"/>
      <point x="666" y="516" type="line" smooth="yes"/>
      <point x="666" y="637"/>
      <point x="609" y="720"/>
      <point x="420" y="720" type="curve" smooth="yes"/>
      <point x="166" y="720" type="line" smooth="yes"/>
      <point x="141" y="720"/>
      <point x="130" y="709"/>
      <point x="130" y="684" type="curve" smooth="yes"/>
      <point x="130" y="567" type="line" smooth="yes"/>
      <point x="130" y="542"/>
      <point x="141" y="531"/>
      <point x="166" y="531" type="curve" smooth="yes"/>
      <point x="387" y="531" type="line" smooth="yes"/>
      <point x="439" y="531"/>
      <point x="448" y="511"/>
      <point x="448" y="483" type="curve" smooth="yes"/>
      <point x="448" y="445" type="line"/>
      <point x="89" y="445" type="line" smooth="yes"/>
      <point x="64" y="445"/>
      <point x="53" y="434"/>
      <point x="53" y="409" type="curve" smooth="yes"/>
      <point x="53" y="189" type="line" smooth="yes"/>
      <point x="53" y="67"/>
      <point x="114" y="-15"/>
    </contour>
    <contour>
      <point x="364" y="178" type="curve" smooth="yes"/>
      <point x="292" y="178"/>
      <point x="280" y="198"/>
      <point x="280" y="225" type="curve" smooth="yes"/>
      <point x="280" y="266" type="line"/>
      <point x="448" y="266" type="line"/>
      <point x="448" y="225" type="line"/>
      <point x="448" y="198"/>
      <point x="437" y="178"/>
    </contour>
  </outline>
</glyph>
<glyph name="florin" format="1">
  <advance width="574"/>
  <unicode hex="0192"/>
  <outline>
    <contour>
      <point x="173" y="515" type="curve"/>
      <point x="173" y="243" type="line" smooth="yes"/>
      <point x="173" y="217"/>
      <point x="167" y="193"/>
      <point x="132" y="193" type="curve" smooth="yes"/>
      <point x="81" y="193" type="line" smooth="yes"/>
      <point x="56" y="193"/>
      <point x="45" y="182"/>
      <point x="45" y="157" type="curve" smooth="yes"/>
      <point x="45" y="36" type="line" smooth="yes"/>
      <point x="45" y="11"/>
      <point x="56" y="0"/>
      <point x="81" y="0" type="curve" smooth="yes"/>
      <point x="155" y="0" type="line" smooth="yes"/>
      <point x="344" y="0"/>
      <point x="401" y="83"/>
      <point x="401" y="205" type="curve" smooth="yes"/>
      <point x="401" y="477" type="line" smooth="yes"/>
      <point x="401" y="503"/>
      <point x="407" y="527"/>
      <point x="442" y="527" type="curve" smooth="yes"/>
      <point x="493" y="527" type="line" smooth="yes"/>
      <point x="518" y="527"/>
      <point x="529" y="538"/>
      <point x="529" y="563" type="curve" smooth="yes"/>
      <point x="529" y="684" type="line" smooth="yes"/>
      <point x="529" y="709"/>
      <point x="518" y="720"/>
      <point x="493" y="720" type="curve" smooth="yes"/>
      <point x="419" y="720" type="line" smooth="yes"/>
      <point x="230" y="720"/>
      <point x="173" y="637"/>
    </contour>
    <contour>
      <point x="81" y="270" type="curve"/>
      <point x="493" y="270" type="line" smooth="yes"/>
      <point x="518" y="270"/>
      <point x="529" y="280"/>
      <point x="529" y="306" type="curve" smooth="yes"/>
      <point x="529" y="413" type="line" smooth="yes"/>
      <point x="529" y="439"/>
      <point x="518" y="449"/>
      <point x="493" y="449" type="curve" smooth="yes"/>
      <point x="81" y="449" type="line" smooth="yes"/>
      <point x="56" y="449"/>
      <point x="45" y="438"/>
      <point x="45" y="413" type="curve" smooth="yes"/>
      <point x="45" y="306" type="line" smooth="yes"/>
      <point x="45" y="280"/>
      <point x="56" y="270"/>
    </contour>
  </outline>
</glyph>
<glyph name="ringhalfleft" format="1">
  <advance width="312"/>
  <unicode hex="02BF"/>
  <outline>
    <contour>
      <point x="257" y="383" type="line" smooth="yes"/>
      <point x="273" y="383"/>
      <point x="279" y="389"/>
      <point x="279" y="405" type="curve" smooth="yes"/>
      <point x="279" y="480" type="line" smooth="yes"/>
      <point x="279" y="496"/>
      <point x="273" y="502"/>
      <point x="257" y="502" type="curve" smooth="yes"/>
      <point x="208" y="502" type="line" smooth="yes"/>
      <point x="189" y="502"/>
      <point x="180" y="509"/>
      <point x="180" y="525" type="curve" smooth="yes"/>
      <point x="180" y="576" type="line" smooth="yes"/>
      <point x="180" y="592"/>
      <point x="189" y="599"/>
      <point x="208" y="599" type="curve" smooth="yes"/>
      <point x="257" y="599" type="line" smooth="yes"/>
      <point x="273" y="599"/>
      <point x="279" y="607"/>
      <point x="279" y="621" type="curve" smooth="yes"/>
      <point x="279" y="698" type="line" smooth="yes"/>
      <point x="279" y="712"/>
      <point x="273" y="720"/>
      <point x="257" y="720" type="curve" smooth="yes"/>
      <point x="148" y="720" type="line" smooth="yes"/>
      <point x="70" y="720"/>
      <point x="33" y="689"/>
      <point x="33" y="624" type="curve" smooth="yes"/>
      <point x="33" y="478" type="line" smooth="yes"/>
      <point x="33" y="413"/>
      <point x="70" y="383"/>
      <point x="148" y="383" type="curve" smooth="yes"/>
    </contour>
  </outline>
</glyph>
<glyph name="verticallinemod" format="1">
  <advance width="356"/>
  <unicode hex="02C8"/>
  <outline>
    <contour>
      <point x="253" y="345" type="line" smooth="yes"/>
      <point x="288" y="345"/>
      <point x="295" y="351"/>
      <point x="295" y="386" type="curve" smooth="yes"/>
      <point x="295" y="679" type="line" smooth="yes"/>
      <point x="295" y="714"/>
      <point x="290" y="720"/>
      <point x="256" y="720" type="curve" smooth="yes"/>
      <point x="101" y="720" type="line" smooth="yes"/>
      <point x="66" y="720"/>
      <point x="61" y="714"/>
      <point x="61" y="679" type="curve" smooth="yes"/>
      <point x="61" y="386" type="line" smooth="yes"/>
      <point x="61" y="351"/>
      <point x="68" y="345"/>
      <point x="103" y="345" type="curve" smooth="yes"/>
    </contour>
  </outline>
</glyph>
<glyph name="endash" format="1">
  <advance width="734"/>
  <unicode hex="2013"/>
  <outline>
    <contour>
      <point x="106" y="257" type="curve"/>
      <point x="628" y="257" type="line" smooth="yes"/>
      <point x="653" y="257"/>
      <point x="664" y="267"/>
      <point x="664" y="293" type="curve" smooth="yes"/>
      <point x="664" y="427" type="line" smooth="yes"/>
      <point x="664" y="453"/>
      <point x="653" y="463"/>
      <point x="628" y="463" type="curve" smooth="yes"/>
      <point x="106" y="463" type="line" smooth="yes"/>
      <point x="81" y="463"/>
      <point x="70" y="452"/>
      <point x="70" y="427" type="curve" smooth="yes"/>
      <point x="70" y="293" type="line" smooth="yes"/>
      <point x="70" y="267"/>
      <point x="81" y="257"/>
    </contour>
  </outline>
</glyph>
<glyph name="quoteright" format="1">
  <advance width="384"/>
  <unicode hex="2019"/>
  <outline>
    <contour>
      <point x="181" y="345" type="line" smooth="yes"/>
      <point x="271" y="345"/>
      <point x="329" y="394"/>
      <point x="329" y="496" type="curve" smooth="yes"/>
      <point x="329" y="684" type="line" smooth="yes"/>
      <point x="329" y="709"/>
      <point x="318" y="720"/>
      <point x="293" y="720" type="curve" smooth="yes"/>
      <point x="91" y="720" type="line" smooth="yes"/>
      <point x="66" y="720"/>
      <point x="55" y="709"/>
      <point x="55" y="684" type="curve"/>
      <point x="55" y="536" type="line"/>
      <point x="55" y="511"/>
      <point x="66" y="500"/>
      <point x="91" y="500" type="curve" smooth="yes"/>
      <point x="200" y="500" type="line"/>
      <point x="200" y="485" type="line" smooth="yes"/>
      <point x="200" y="467"/>
      <point x="191" y="457"/>
      <point x="173" y="457" type="curve" smooth="yes"/>
      <point x="104" y="457" type="line" smooth="yes"/>
      <point x="79" y="457"/>
      <point x="68" y="446"/>
      <point x="68" y="421" type="curve"/>
      <point x="68" y="381" type="line"/>
      <point x="68" y="355"/>
      <point x="79" y="345"/>
      <point x="104" y="345" type="curve" smooth="yes"/>
    </contour>
  </outline>
</glyph>
<glyph name="quotedblbase" format="1">
  <advance width="684"/>
  <unicode hex="201E"/>
  <outline>
    <contour>
      <point x="171" y="-100" type="line" smooth="yes"/>
      <point x="261" y="-100"/>
      <point x="319" y="-51"/>
      <point x="319" y="51" type="curve" smooth="yes"/>
      <point x="319" y="239" type="line" smooth="yes"/>
      <point x="319" y="264"/>
      <point x="308" y="275"/>
      <point x="283" y="275" type="curve" smooth="yes"/>
      <point x="81" y="275" type="line" smooth="yes"/>
      <point x="56" y="275"/>
      <point x="45" y="264"/>
      <point x="45" y="239" type="curve"/>
      <point x="45" y="91" type="line"/>
      <point x="45" y="66"/>
      <point x="56" y="55"/>
      <point x="81" y="55" type="curve" smooth="yes"/>
      <point x="190" y="55" type="line"/>
      <point x="190" y="40" type="line" smooth="yes"/>
      <point x="190" y="22"/>
      <point x="181" y="12"/>
      <point x="163" y="12" type="curve" smooth="yes"/>
      <point x="94" y="12" type="line" smooth="yes"/>
      <point x="69" y="12"/>
      <point x="58" y="1"/>
      <point x="58" y="-24" type="curve"/>
      <point x="58" y="-64" type="line"/>
      <point x="58" y="-90"/>
      <point x="69" y="-100"/>
      <point x="94" y="-100" type="curve" smooth="yes"/>
    </contour>
    <contour>
      <point x="491" y="-100" type="line" smooth="yes"/>
      <point x="581" y="-100"/>
      <point x="639" y="-51"/>
      <point x="639" y="51" type="curve" smooth="yes"/>
      <point x="639" y="239" type="line" smooth="yes"/>
      <point x="639" y="264"/>
      <point x="628" y="275"/>
      <point x="603" y="275" type="curve" smooth="yes"/>
      <point x="401" y="275" type="line" smooth="yes"/>
      <point x="376" y="275"/>
      <point x="365" y="264"/>
      <point x="365" y="239" type="curve" smooth="yes"/>
      <point x="365" y="91" type="line" smooth="yes"/>
      <point x="365" y="66"/>
      <point x="376" y="55"/>
      <point x="401" y="55" type="curve" smooth="yes"/>
      <point x="510" y="55" type="line"/>
      <point x="510" y="40" type="line" smooth="yes"/>
      <point x="510" y="22"/>
      <point x="501" y="12"/>
      <point x="483" y="12" type="curve" smooth="yes"/>
      <point x="414" y="12" type="line" smooth="yes"/>
      <point x="389" y="12"/>
      <point x="378" y="1"/>
      <point x="378" y="-24" type="curve" smooth="yes"/>
      <point x="378" y="-64" type="line" smooth="yes"/>
      <point x="378" y="-90"/>
      <point x="389" y="-100"/>
      <point x="414" y="-100" type="curve" smooth="yes"/>
    </contour>
  </outline>
</glyph>
<glyph name="dagger" format="1">
  <advance width="718"/>
  <unicode hex="2020"/>
  <outline>
    <contour>
      <point x="431" y="0" type="line" smooth="yes"/>
      <point x="466" y="0"/>
      <point x="471" y="6"/>
      <point x="470" y="41" type="curve" smooth="yes"/>
      <point x="451" y="351" type="line"/>
      <point x="626" y="336" type="line" smooth="yes"/>
      <point x="661" y="332"/>
      <point x="668" y="337"/>
      <point x="668" y="372" type="curve" smooth="yes"/>
      <point x="668" y="514" type="line" smooth="yes"/>
      <point x="668" y="549"/>
      <point x="661" y="554"/>
      <point x="626" y="551" type="curve" smooth="yes"/>
      <point x="461" y="535" type="line"/>
      <point x="470" y="679" type="line" smooth="yes"/>
      <point x="471" y="714"/>
      <point x="466" y="720"/>
      <point x="431" y="720" type="curve" smooth="yes"/>
      <point x="287" y="720" type="line" smooth="yes"/>
      <point x="252" y="720"/>
      <point x="246" y="714"/>
      <point x="248" y="679" type="curve" smooth="yes"/>
      <point x="257" y="535" type="line"/>
      <point x="92" y="551" type="line" smooth="yes"/>
      <point x="57" y="554"/>
      <point x="50" y="549"/>
      <point x="50" y="514" type="curve" smooth="yes"/>
      <point x="50" y="372" type="line" smooth="yes"/>
      <point x="50" y="337"/>
      <point x="57" y="332"/>
      <point x="92" y="336" type="curve" smooth="yes"/>
      <point x="266" y="351" type="line"/>
      <point x="248" y="41" type="line" smooth="yes"/>
      <point x="246" y="6"/>
      <point x="252" y="0"/>
      <point x="287" y="0" type="curve" smooth="yes"/>
    </contour>
  </outline>
</glyph>
<glyph name="ellipsis" format="1">
  <advance width="1110"/>
  <unicode hex="2026"/>
  <outline>
    <contour>
      <point x="293" y="0" type="line" smooth="yes"/>
      <point x="318" y="0"/>
      <point x="329" y="11"/>
      <point x="329" y="36" type="curve" smooth="yes"/>
      <point x="329" y="239" type="line" smooth="yes"/>
      <point x="329" y="265"/>
      <point x="318" y="275"/>
      <point x="293" y="275" type="curve" smooth="yes"/>
      <point x="91" y="275" type="line" smooth="yes"/>
      <point x="66" y="275"/>
      <point x="55" y="265"/>
      <point x="55" y="239" type="curve"/>
      <point x="55" y="36" type="line"/>
      <point x="55" y="11"/>
      <point x="66" y="0"/>
      <point x="91" y="0" type="curve" smooth="yes"/>
    </contour>
    <contour>
      <point x="656" y="0" type="line" smooth="yes"/>
      <point x="681" y="0"/>
      <point x="692" y="11"/>
      <point x="692" y="36" type="curve" smooth="yes"/>
      <point x="692" y="239" type="line" smooth="yes"/>
      <point x="692" y="265"/>
      <point x="681" y="275"/>
      <point x="656" y="275" type="curve" smooth="yes"/>
      <point x="454" y="275" type="line" smooth="yes"/>
      <point x="429" y="275"/>
      <point x="418" y="265"/>
      <point x="418" y="239" type="curve"/>
      <point x="418" y="36" type="line"/>
      <point x="418" y="11"/>
      <point x="429" y="0"/>
      <point x="454" y="0" type="curve" smooth="yes"/>
    </contour>
    <contour>
      <point x="1019" y="0" type="line" smooth="yes"/>
      <point x="1044" y="0"/>
      <point x="1055" y="11"/>
      <point x="1055" y="36" type="curve" smooth="yes"/>
      <point x="1055" y="239" type="line" smooth="yes"/>
      <point x="1055" y="265"/>
      <point x="1044" y="275"/>
      <point x="1019" y="275" type="curve" smooth="yes"/>
      <point x="817" y="275" type="line" smooth="yes"/>
      <point x="792" y="275"/>
      <point x="781" y="265"/>
      <point x="781" y="239" type="curve"/>
      <point x="781" y="36" type="line"/>
      <point x="781" y="11"/>
      <point x="792" y="0"/>
      <point x="817" y="0" type="curve" smooth="yes"/>
    </contour>
  </outline>
</glyph>
<glyph name="colonsign" format="1">
  <advance width="628"/>
  <unicode hex="20A1"/>
  <outline>
    <contour>
      <point x="548" y="40" type="line" smooth="yes"/>
      <point x="573" y="40"/>
      <point x="584" y="51"/>
      <point x="584" y="76" type="curve" smooth="yes"/>
      <point x="584" y="195" type="line" smooth="yes"/>
      <point x="584" y="220"/>
      <point x="573" y="231"/>
      <point x="548" y="231" type="curve" smooth="yes"/>
      <point x="347" y="231" type="line" smooth="yes"/>
      <point x="295" y="231"/>
      <point x="286" y="251"/>
      <point x="286" y="279" type="curve" smooth="yes"/>
      <point x="286" y="437" type="line" smooth="yes"/>
      <point x="286" y="463"/>
      <point x="295" y="487"/>
      <point x="347" y="487" type="curve" smooth="yes"/>
      <point x="548" y="487" type="line" smooth="yes"/>
      <point x="573" y="487"/>
      <point x="584" y="498"/>
      <point x="584" y="523" type="curve" smooth="yes"/>
      <point x="584" y="644" type="line" smooth="yes"/>
      <point x="584" y="669"/>
      <point x="573" y="680"/>
      <point x="548" y="680" type="curve" smooth="yes"/>
      <point x="304" y="680" type="line" smooth="yes"/>
      <point x="115" y="680"/>
      <point x="58" y="597"/>
      <point x="58" y="475" type="curve" smooth="yes"/>
      <point x="58" y="244" type="line" smooth="yes"/>
      <point x="58" y="123"/>
      <point x="115" y="40"/>
      <point x="304" y="40" type="curve" smooth="yes"/>
    </contour>
    <contour>
      <point x="254" y="73" type="line"/>
      <point x="254" y="-14" type="line" smooth="yes"/>
      <point x="254" y="-39"/>
      <point x="265" y="-50"/>
      <point x="290" y="-50" type="curve" smooth="yes"/>
      <point x="315" y="-50" type="line" smooth="yes"/>
      <point x="340" y="-50"/>
      <point x="351" y="-39"/>
      <point x="351" y="-14" type="curve" smooth="yes"/>
      <point x="351" y="73" type="line"/>
    </contour>
    <contour>
      <point x="351" y="632" type="line"/>
      <point x="351" y="734" type="line" smooth="yes"/>
      <point x="351" y="759"/>
      <point x="340" y="770"/>
      <point x="315" y="770" type="curve" smooth="yes"/>
      <point x="290" y="770" type="line" smooth="yes"/>
      <point x="265" y="770"/>
      <point x="254" y="759"/>
      <point x="254" y="734" type="curve" smooth="yes"/>
      <point x="254" y="632" type="line"/>
    </contour>
    <contour>
      <point x="404" y="73" type="line"/>
      <point x="404" y="-14" type="line" smooth="yes"/>
      <point x="404" y="-39"/>
      <point x="415" y="-50"/>
      <point x="440" y="-50" type="curve" smooth="yes"/>
      <point x="465" y="-50" type="line" smooth="yes"/>
      <point x="490" y="-50"/>
      <point x="501" y="-39"/>
      <point x="501" y="-14" type="curve" smooth="yes"/>
      <point x="501" y="73" type="line"/>
    </contour>
    <contour>
      <point x="501" y="632" type="line"/>
      <point x="501" y="734" type="line" smooth="yes"/>
      <point x="501" y="759"/>
      <point x="490" y="770"/>
      <point x="465" y="770" type="curve" smooth="yes"/>
      <point x="440" y="770" type="line" smooth="yes"/>
      <point x="415" y="770"/>
      <point x="404" y="759"/>
      <point x="404" y="734" type="curve" smooth="yes"/>
      <point x="404" y="632" type="line"/>
    </contour>
  </outline>
</glyph>
<glyph name="ruble" format="1">
  <advance width="682"/>
  <unicode hex="20BD"/>
  <outline>
    <contour>
      <point x="56" y="85" type="curve"/>
      <point x="344" y="85" type="line" smooth="yes"/>
      <point x="369" y="85"/>
      <point x="380" y="95"/>
      <point x="380" y="121" type="curve" smooth="yes"/>
      <point x="380" y="178" type="line" smooth="yes"/>
      <point x="380" y="204"/>
      <point x="369" y="214"/>
      <point x="344" y="214" type="curve" smooth="yes"/>
      <point x="56" y="214" type="line" smooth="yes"/>
      <point x="31" y="214"/>
      <point x="20" y="203"/>
      <point x="20" y="178" type="curve" smooth="yes"/>
      <point x="20" y="121" type="line" smooth="yes"/>
      <point x="20" y="95"/>
      <point x="31" y="85"/>
    </contour>
    <contour>
      <point x="260" y="0" type="line" smooth="yes"/>
      <point x="285" y="0"/>
      <point x="296" y="11"/>
      <point x="296" y="36" type="curve" smooth="yes"/>
      <point x="296" y="252" type="line"/>
      <point x="411" y="252" type="line" smooth="yes"/>
      <point x="593" y="252"/>
      <point x="647" y="331"/>
      <point x="647" y="447" type="curve" smooth="yes"/>
      <point x="647" y="525" type="line" smooth="yes"/>
      <point x="647" y="641"/>
      <point x="593" y="720"/>
      <point x="411" y="720" type="curve" smooth="yes"/>
      <point x="105" y="720" type="line" smooth="yes"/>
      <point x="80" y="720"/>
      <point x="69" y="709"/>
      <point x="69" y="684" type="curve" smooth="yes"/>
      <point x="69" y="36" type="line" smooth="yes"/>
      <point x="69" y="11"/>
      <point x="80" y="0"/>
      <point x="105" y="0" type="curve" smooth="yes"/>
    </contour>
    <contour>
      <point x="294" y="543" type="line"/>
      <point x="384" y="543" type="line" smooth="yes"/>
      <point x="423" y="543"/>
      <point x="431" y="520"/>
      <point x="431" y="494" type="curve" smooth="yes"/>
      <point x="431" y="471" type="line" smooth="yes"/>
      <point x="431" y="445"/>
      <point x="423" y="422"/>
      <point x="384" y="422" type="curve" smooth="yes"/>
      <point x="294" y="422" type="line"/>
    </contour>
  </outline>
</glyph>
<glyph name="arrowup" format="1">
  <advance width="1000"/>
  <unicode hex="2191"/>
  <outline>
    <contour>
      <point x="600" y="70" type="curve" smooth="yes"/>
      <point x="589" y="250" type="line"/>
      <point x="761" y="250" type="line" smooth="yes"/>
      <point x="783" y="250"/>
      <point x="796" y="281"/>
      <point x="781" y="303" type="curve" smooth="yes"/>
      <point x="547" y="650" type="line" smooth="yes"/>
      <point x="535" y="669"/>
      <point x="522" y="681"/>
      <point x="501" y="681" type="curve"/>
      <point x="479" y="681"/>
      <point x="466" y="669"/>
      <point x="454" y="650" type="curve" smooth="yes"/>
      <point x="220" y="303" type="line" smooth="yes"/>
      <point x="205" y="281"/>
      <point x="217" y="250"/>
      <point x="240" y="250" type="curve" smooth="yes"/>
      <point x="412" y="250" type="line"/>
      <point x="401" y="70" type="line" smooth="yes"/>
      <point x="400" y="48"/>
      <point x="412" y="39"/>
      <point x="434" y="39" type="curve" smooth="yes"/>
      <point x="567" y="39" type="line" smooth="yes"/>
      <point x="589" y="39"/>
      <point x="601" y="48"/>
    </contour>
  </outline>
</glyph>
<glyph name="uni21B0" format="1">
  <advance width="1000"/>
  <unicode hex="21B0"/>
  <outline>
    <contour>
      <point x="595" y="517" type="curve" smooth="yes"/>
      <point x="513" y="517" type="line"/>
      <point x="554" y="675" type="line" smooth="yes"/>
      <point x="556" y="695"/>
      <point x="524" y="709"/>
      <point x="502" y="694" type="curve" smooth="yes"/>
      <point x="178" y="476" type="line" smooth="yes"/>
      <point x="160" y="466"/>
      <point x="148" y="454"/>
      <point x="148" y="434" type="curve"/>
      <point x="148" y="414"/>
      <point x="160" y="402"/>
      <point x="178" y="391" type="curve" smooth="yes"/>
      <point x="502" y="173" type="line" smooth="yes"/>
      <point x="524" y="159"/>
      <point x="556" y="172"/>
      <point x="554" y="192" type="curve" smooth="yes"/>
      <point x="513" y="351" type="line"/>
      <point x="579" y="351" type="line" smooth="yes"/>
      <point x="624" y="351"/>
      <point x="646" y="334"/>
      <point x="646" y="290" type="curve" smooth="yes"/>
      <point x="646" y="30" type="line" smooth="yes"/>
      <point x="644" y="10"/>
      <point x="655" y="0"/>
      <point x="677" y="0" type="curve" smooth="yes"/>
      <point x="782" y="0" type="line" smooth="yes"/>
      <point x="804" y="0"/>
      <point x="813" y="10"/>
      <point x="813" y="30" type="curve" smooth="yes"/>
      <point x="813" y="339" type="line" smooth="yes"/>
      <point x="813" y="446"/>
      <point x="763" y="517"/>
    </contour>
  </outline>
</glyph>
<glyph name="uni21B1" format="1">
  <advance width="1000"/>
  <unicode hex="21B1"/>
  <outline>
    <contour>
      <point x="406" y="517" type="line" smooth="yes"/>
      <point x="238" y="517"/>
      <point x="188" y="446"/>
      <point x="188" y="339" type="curve" smooth="yes"/>
      <point x="188" y="30" type="line" smooth="yes"/>
      <point x="188" y="10"/>
      <point x="197" y="0"/>
      <point x="219" y="0" type="curve" smooth="yes"/>
      <point x="324" y="0" type="line" smooth="yes"/>
      <point x="346" y="0"/>
      <point x="357" y="10"/>
      <point x="355" y="30" type="curve" smooth="yes"/>
      <point x="355" y="290" type="line" smooth="yes"/>
      <point x="355" y="334"/>
      <point x="377" y="351"/>
      <point x="422" y="351" type="curve" smooth="yes"/>
      <point x="488" y="351" type="line"/>
      <point x="447" y="192" type="line" smooth="yes"/>
      <point x="445" y="172"/>
      <point x="477" y="159"/>
      <point x="499" y="173" type="curve" smooth="yes"/>
      <point x="823" y="391" type="line" smooth="yes"/>
      <point x="841" y="402"/>
      <point x="853" y="414"/>
      <point x="853" y="434" type="curve"/>
      <point x="853" y="454"/>
      <point x="841" y="466"/>
      <point x="823" y="476" type="curve" smooth="yes"/>
      <point x="499" y="694" type="line" smooth="yes"/>
      <point x="477" y="709"/>
      <point x="445" y="695"/>
      <point x="447" y="675" type="curve" smooth="yes"/>
      <point x="488" y="517" type="line"/>
    </contour>
  </outline>
</glyph>
<glyph name="uni21B2" format="1">
  <advance width="1000"/>
  <unicode hex="21B2"/>
  <outline>
    <contour>
      <point x="595" y="183" type="line" smooth="yes"/>
      <point x="763" y="183"/>
      <point x="813" y="254"/>
      <point x="813" y="361" type="curve" smooth="yes"/>
      <point x="813" y="670" type="line" smooth="yes"/>
      <point x="813" y="690"/>
      <point x="804" y="700"/>
      <point x="782" y="700" type="curve" smooth="yes"/>
      <point x="677" y="700" type="line" smooth="yes"/>
      <point x="655" y="700"/>
      <point x="644" y="690"/>
      <point x="646" y="670" type="curve" smooth="yes"/>
      <point x="646" y="410" type="line" smooth="yes"/>
      <point x="646" y="366"/>
      <point x="624" y="349"/>
      <point x="579" y="349" type="curve" smooth="yes"/>
      <point x="513" y="349" type="line"/>
      <point x="554" y="508" type="line" smooth="yes"/>
      <point x="556" y="528"/>
      <point x="524" y="541"/>
      <point x="502" y="527" type="curve" smooth="yes"/>
      <point x="178" y="309" type="line" smooth="yes"/>
      <point x="160" y="298"/>
      <point x="148" y="286"/>
      <point x="148" y="266" type="curve"/>
      <point x="148" y="246"/>
      <point x="160" y="234"/>
      <point x="178" y="224" type="curve" smooth="yes"/>
      <point x="502" y="6" type="line" smooth="yes"/>
      <point x="524" y="-9"/>
      <point x="556" y="5"/>
      <point x="554" y="25" type="curve" smooth="yes"/>
      <point x="513" y="183" type="line"/>
    </contour>
  </outline>
</glyph>
<glyph name="minus" format="1">
  <advance width="734"/>
  <unicode hex="2212"/>
  <outline>
    <contour>
      <point x="106" y="267" type="curve"/>
      <point x="628" y="267" type="line" smooth="yes"/>
      <point x="653" y="267"/>
      <point x="664" y="277"/>
      <point x="664" y="303" type="curve" smooth="yes"/>
      <point x="664" y="417" type="line" smooth="yes"/>
      <point x="664" y="443"/>
      <point x="653" y="453"/>
      <point x="628" y="453" type="curve" smooth="yes"/>
      <point x="106" y="453" type="line" smooth="yes"/>
      <point x="81" y="453"/>
      <point x="70" y="442"/>
      <point x="70" y="417" type="curve" smooth="yes"/>
      <point x="70" y="303" type="line" smooth="yes"/>
      <point x="70" y="277"/>
      <point x="81" y="267"/>
    </contour>
  </outline>
</glyph>
<glyph name="greaterequal" format="1">
  <advance width="714"/>
  <unicode hex="2265"/>
  <outline>
    <contour>
      <point x="126" y="0" type="curve"/>
      <point x="598" y="0" type="line" smooth="yes"/>
      <point x="623" y="0"/>
      <point x="634" y="10"/>
      <point x="634" y="36" type="curve" smooth="yes"/>
      <point x="634" y="150" type="line" smooth="yes"/>
      <point x="634" y="176"/>
      <point x="623" y="186"/>
      <point x="598" y="186" type="curve" smooth="yes"/>
      <point x="90" y="186" type="line"/>
      <point x="90" y="36" type="line" smooth="yes"/>
      <point x="90" y="10"/>
      <point x="101" y="0"/>
    </contour>
    <component base="greater" yOffset="70"/>
  </outline>
</glyph>
<glyph name="L.salt" format="1">
  <advance width="615"/>
  <unicode hex="E11E"/>
  <outline>
    <contour>
      <point x="260" y="720" type="curve" smooth="yes"/>
      <point x="105" y="720" type="line" smooth="yes"/>
      <point x="80" y="720"/>
      <point x="69" y="709"/>
      <point x="69" y="684" type="curve" smooth="yes"/>
      <point x="69" y="36" type="line" smooth="yes"/>
      <point x="69" y="11"/>
      <point x="80" y="0"/>
      <point x="105" y="0" type="curve" smooth="yes"/>
      <point x="551" y="0" type="line" smooth="yes"/>
      <point x="576" y="0"/>
      <point x="587" y="11"/>
      <point x="587" y="36" type="curve" smooth="yes"/>
      <point x="587" y="157" type="line" smooth="yes"/>
      <point x="587" y="182"/>
      <point x="576" y="193"/>
      <point x="551" y="193" type="curve" smooth="yes"/>
      <point x="296" y="193" type="line"/>
      <point x="296" y="684" type="line" smooth="yes"/>
      <point x="296" y="709"/>
      <point x="285" y="720"/>
    </contour>
  </outline>
</glyph>
<glyph name="uni261A.salt" format="1">
  <advance width="1000"/>
  <unicode hex="E146"/>
  <outline>
    <contour>
      <point x="716" y="198" type="line" smooth="yes"/>
      <point x="716" y="186"/>
      <point x="722" y="179"/>
      <point x="733" y="179" type="curve"/>
      <point x="829" y="179" type="line" smooth="yes"/>
      <point x="840" y="179"/>
      <point x="847" y="186"/>
      <point x="847" y="199" type="curve" smooth="yes"/>
      <point x="847" y="586" type="line" smooth="yes"/>
      <point x="847" y="598"/>
      <point x="840" y="604"/>
      <point x="829" y="604" type="curve"/>
      <point x="734" y="604" type="line"/>
      <point x="722" y="604"/>
      <point x="716" y="598"/>
      <point x="716" y="586" type="curve" smooth="yes"/>
    </contour>
    <contour>
      <point x="508" y="100" type="line" smooth="yes"/>
      <point x="516" y="95"/>
      <point x="527" y="96"/>
      <point x="533" y="105" type="curve" smooth="yes"/>
      <point x="584" y="176" type="line" smooth="yes"/>
      <point x="608" y="210"/>
      <point x="618" y="227"/>
      <point x="641" y="246" type="curve" smooth="yes"/>
      <point x="705" y="300" type="line"/>
      <point x="705" y="521" type="line"/>
      <point x="551" y="590" type="line" smooth="yes"/>
      <point x="527" y="601"/>
      <point x="505" y="601"/>
      <point x="482" y="598" type="curve" smooth="yes"/>
      <point x="144" y="552" type="line" smooth="yes"/>
      <point x="135" y="551"/>
      <point x="130" y="544"/>
      <point x="130" y="534" type="curve" smooth="yes"/>
      <point x="130" y="480" type="line" smooth="yes"/>
      <point x="130" y="470"/>
      <point x="137" y="462"/>
      <point x="149" y="462" type="curve" smooth="yes"/>
      <point x="447" y="451" type="line" smooth="yes"/>
      <point x="476" y="450"/>
      <point x="483" y="432"/>
      <point x="493" y="409" type="curve" smooth="yes"/>
      <point x="515" y="362" type="line" smooth="yes"/>
      <point x="526" y="338"/>
      <point x="525" y="316"/>
      <point x="510" y="278" type="curve" smooth="yes"/>
      <point x="463" y="153" type="line" smooth="yes"/>
      <point x="458" y="140"/>
      <point x="460" y="130"/>
      <point x="467" y="125" type="curve" smooth="yes"/>
    </contour>
    <contour>
      <point x="488" y="246" type="line"/>
      <point x="502" y="283" type="line" smooth="yes"/>
      <point x="509" y="303"/>
      <point x="514" y="319"/>
      <point x="513" y="334" type="curve"/>
      <point x="502" y="347"/>
      <point x="495" y="350"/>
      <point x="474" y="351" type="curve"/>
      <point x="474" y="356" type="line"/>
      <point x="488" y="356"/>
      <point x="498" y="359"/>
      <point x="503" y="364" type="curve"/>
      <point x="481" y="411" type="line" smooth="yes"/>
      <point x="472" y="430"/>
      <point x="466" y="439"/>
      <point x="445" y="440" type="curve" smooth="yes"/>
      <point x="385" y="442" type="line"/>
      <point x="384" y="338" type="line" smooth="yes"/>
      <point x="384" y="306"/>
      <point x="402" y="286"/>
      <point x="424" y="277" type="curve" smooth="yes"/>
    </contour>
  </outline>
</glyph>
<glyph name="uni261B.salt" format="1">
  <advance width="1000"/>
  <unicode hex="E147"/>
  <outline>
    <contour>
      <point x="284" y="198" type="curve" smooth="yes"/>
      <point x="284" y="586" type="line" smooth="yes"/>
      <point x="284" y="598"/>
      <point x="278" y="604"/>
      <point x="266" y="604" type="curve"/>
      <point x="171" y="604" type="line"/>
      <point x="160" y="604"/>
      <point x="153" y="598"/>
      <point x="153" y="586" type="curve" smooth="yes"/>
      <point x="153" y="199" type="line" smooth="yes"/>
      <point x="153" y="186"/>
      <point x="160" y="179"/>
      <point x="171" y="179" type="curve" smooth="yes"/>
      <point x="267" y="179" type="line"/>
      <point x="278" y="179"/>
      <point x="284" y="186"/>
    </contour>
    <contour>
      <point x="492" y="100" type="curve" smooth="yes"/>
      <point x="533" y="125" type="line" smooth="yes"/>
      <point x="540" y="130"/>
      <point x="542" y="140"/>
      <point x="537" y="153" type="curve" smooth="yes"/>
      <point x="490" y="278" type="line" smooth="yes"/>
      <point x="475" y="316"/>
      <point x="474" y="338"/>
      <point x="485" y="362" type="curve" smooth="yes"/>
      <point x="507" y="409" type="line" smooth="yes"/>
      <point x="517" y="432"/>
      <point x="524" y="450"/>
      <point x="553" y="451" type="curve" smooth="yes"/>
      <point x="851" y="462" type="line" smooth="yes"/>
      <point x="863" y="462"/>
      <point x="870" y="470"/>
      <point x="870" y="480" type="curve" smooth="yes"/>
      <point x="870" y="534" type="line" smooth="yes"/>
      <point x="870" y="544"/>
      <point x="865" y="551"/>
      <point x="856" y="552" type="curve" smooth="yes"/>
      <point x="518" y="598" type="line" smooth="yes"/>
      <point x="495" y="601"/>
      <point x="473" y="601"/>
      <point x="449" y="590" type="curve" smooth="yes"/>
      <point x="295" y="521" type="line"/>
      <point x="295" y="300" type="line"/>
      <point x="359" y="246" type="line" smooth="yes"/>
      <point x="382" y="227"/>
      <point x="392" y="210"/>
      <point x="416" y="176" type="curve" smooth="yes"/>
      <point x="467" y="105" type="line" smooth="yes"/>
      <point x="473" y="96"/>
      <point x="484" y="95"/>
    </contour>
    <contour>
      <point x="512" y="246" type="line"/>
      <point x="576" y="277" type="line" smooth="yes"/>
      <point x="598" y="286"/>
      <point x="616" y="306"/>
      <point x="616" y="338" type="curve" smooth="yes"/>
      <point x="615" y="442" type="line"/>
      <point x="555" y="440" type="line" smooth="yes"/>
      <point x="534" y="439"/>
      <point x="528" y="430"/>
      <point x="519" y="411" type="curve" smooth="yes"/>
      <point x="497" y="364" type="line"/>
      <point x="502" y="359"/>
      <point x="512" y="356"/>
      <point x="526" y="356" type="curve"/>
      <point x="526" y="351" type="line"/>
      <point x="505" y="350"/>
      <point x="498" y="347"/>
      <point x="487" y="334" type="curve"/>
      <point x="486" y="319"/>
      <point x="491" y="303"/>
      <point x="498" y="283" type="curve" smooth="yes"/>
    </contour>
  </outline>
</glyph>
<glyph name="indexup.salt" format="1">
  <advance width="1000"/>
  <unicode hex="E14B"/>
  <outline>
    <contour>
      <point x="653" y="133" type="curve" smooth="yes"/>
      <point x="265" y="133" type="line" smooth="yes"/>
      <point x="253" y="133"/>
      <point x="247" y="127"/>
      <point x="247" y="115" type="curve"/>
      <point x="247" y="20" type="line"/>
      <point x="247" y="9"/>
      <point x="253" y="2"/>
      <point x="265" y="2" type="curve" smooth="yes"/>
      <point x="652" y="2" type="line" smooth="yes"/>
      <point x="665" y="2"/>
      <point x="672" y="9"/>
      <point x="672" y="20" type="curve" smooth="yes"/>
      <point x="672" y="116" type="line"/>
      <point x="672" y="127"/>
      <point x="665" y="133"/>
    </contour>
    <contour>
      <point x="751" y="341" type="curve" smooth="yes"/>
      <point x="726" y="382" type="line" smooth="yes"/>
      <point x="722" y="389"/>
      <point x="711" y="391"/>
      <point x="698" y="386" type="curve" smooth="yes"/>
      <point x="574" y="339" type="line" smooth="yes"/>
      <point x="535" y="324"/>
      <point x="513" y="323"/>
      <point x="490" y="334" type="curve" smooth="yes"/>
      <point x="442" y="356" type="line" smooth="yes"/>
      <point x="419" y="366"/>
      <point x="401" y="373"/>
      <point x="400" y="402" type="curve" smooth="yes"/>
      <point x="389" y="700" type="line" smooth="yes"/>
      <point x="389" y="712"/>
      <point x="381" y="719"/>
      <point x="371" y="719" type="curve" smooth="yes"/>
      <point x="317" y="719" type="line" smooth="yes"/>
      <point x="307" y="719"/>
      <point x="301" y="714"/>
      <point x="299" y="705" type="curve" smooth="yes"/>
      <point x="253" y="367" type="line" smooth="yes"/>
      <point x="250" y="344"/>
      <point x="250" y="322"/>
      <point x="261" y="298" type="curve" smooth="yes"/>
      <point x="330" y="144" type="line"/>
      <point x="551" y="144" type="line"/>
      <point x="605" y="208" type="line" smooth="yes"/>
      <point x="624" y="231"/>
      <point x="641" y="241"/>
      <point x="675" y="265" type="curve" smooth="yes"/>
      <point x="746" y="316" type="line" smooth="yes"/>
      <point x="755" y="322"/>
      <point x="756" y="333"/>
    </contour>
    <contour>
      <point x="605" y="361" type="line"/>
      <point x="575" y="425" type="line" smooth="yes"/>
      <point x="565" y="447"/>
      <point x="545" y="465"/>
      <point x="513" y="465" type="curve" smooth="yes"/>
      <point x="409" y="464" type="line"/>
      <point x="411" y="404" type="line" smooth="yes"/>
      <point x="412" y="383"/>
      <point x="421" y="377"/>
      <point x="440" y="368" type="curve" smooth="yes"/>
      <point x="487" y="346" type="line"/>
      <point x="492" y="351"/>
      <point x="495" y="361"/>
      <point x="495" y="375" type="curve"/>
      <point x="500" y="375" type="line"/>
      <point x="501" y="354"/>
      <point x="504" y="347"/>
      <point x="517" y="336" type="curve"/>
      <point x="533" y="335"/>
      <point x="548" y="340"/>
      <point x="568" y="347" type="curve" smooth="yes"/>
    </contour>
  </outline>
</glyph>
<glyph name="indexupleft.salt" format="1">
  <advance width="1000"/>
  <unicode hex="E14C"/>
  <outline>
    <contour>
      <point x="428" y="81" type="curve" smooth="yes"/>
      <point x="702" y="355" type="line" smooth="yes"/>
      <point x="710" y="363"/>
      <point x="719" y="363"/>
      <point x="727" y="355" type="curve"/>
      <point x="795" y="288" type="line"/>
      <point x="802" y="280"/>
      <point x="802" y="271"/>
      <point x="795" y="262" type="curve" smooth="yes"/>
      <point x="521" y="-12" type="line" smooth="yes"/>
      <point x="512" y="-20"/>
      <point x="501" y="-20"/>
      <point x="494" y="-13" type="curve" smooth="yes"/>
      <point x="425" y="56" type="line"/>
      <point x="418" y="63"/>
      <point x="419" y="72"/>
    </contour>
    <contour>
      <point x="211" y="158" type="curve" smooth="yes"/>
      <point x="200" y="205" type="line" smooth="yes"/>
      <point x="198" y="213"/>
      <point x="204" y="222"/>
      <point x="216" y="228" type="curve" smooth="yes"/>
      <point x="338" y="282" type="line" smooth="yes"/>
      <point x="376" y="299"/>
      <point x="392" y="314"/>
      <point x="401" y="338" type="curve" smooth="yes"/>
      <point x="419" y="387" type="line" smooth="yes"/>
      <point x="428" y="410"/>
      <point x="436" y="428"/>
      <point x="416" y="449" type="curve" smooth="yes"/>
      <point x="213" y="669" type="line" smooth="yes"/>
      <point x="205" y="676"/>
      <point x="205" y="687"/>
      <point x="212" y="694" type="curve" smooth="yes"/>
      <point x="250" y="733" type="line" smooth="yes"/>
      <point x="257" y="740"/>
      <point x="266" y="740"/>
      <point x="273" y="735" type="curve" smooth="yes"/>
      <point x="544" y="529" type="line" smooth="yes"/>
      <point x="563" y="514"/>
      <point x="579" y="499"/>
      <point x="588" y="474" type="curve" smooth="yes"/>
      <point x="648" y="317" type="line"/>
      <point x="492" y="159" type="line"/>
      <point x="409" y="167" type="line" smooth="yes"/>
      <point x="379" y="170"/>
      <point x="359" y="166"/>
      <point x="318" y="158" type="curve" smooth="yes"/>
      <point x="232" y="144" type="line" smooth="yes"/>
      <point x="222" y="142"/>
      <point x="213" y="149"/>
    </contour>
    <contour>
      <point x="300" y="276" type="line"/>
      <point x="276" y="342" type="line" smooth="yes"/>
      <point x="268" y="365"/>
      <point x="269" y="392"/>
      <point x="292" y="415" type="curve" smooth="yes"/>
      <point x="367" y="487" type="line"/>
      <point x="408" y="443" type="line" smooth="yes"/>
      <point x="421" y="428"/>
      <point x="419" y="417"/>
      <point x="412" y="398" type="curve" smooth="yes"/>
      <point x="394" y="348" type="line"/>
      <point x="388" y="348"/>
      <point x="378" y="354"/>
      <point x="369" y="363" type="curve"/>
      <point x="365" y="360" type="line"/>
      <point x="379" y="344"/>
      <point x="381" y="337"/>
      <point x="380" y="320" type="curve"/>
      <point x="370" y="309"/>
      <point x="355" y="301"/>
      <point x="336" y="292" type="curve" smooth="yes"/>
    </contour>
  </outline>
</glyph>
<glyph name="uni25D7.deco" format="1">
  <advance width="560.0"/>
  <unicode hex="E166"/>
  <outline>
    <contour>
      <point x="30" y="900" type="line"/>
      <point x="-40" y="900" type="line"/>
      <point x="-40" y="-180" type="line"/>
      <point x="30" y="-180" type="line"/>
      <point x="30" y="-234" type="line" smooth="yes"/>
      <point x="30" y="-259"/>
      <point x="41" y="-270"/>
      <point x="66" y="-270" type="curve" smooth="yes"/>
      <point x="144" y="-270" type="line" smooth="yes"/>
      <point x="169" y="-270"/>
      <point x="180" y="-259"/>
      <point x="180" y="-234" type="curve" smooth="yes"/>
      <point x="180" y="-210" type="line"/>
      <point x="257" y="-210"/>
      <point x="320" y="-147"/>
      <point x="320" y="-70" type="curve"/>
      <point x="434" y="-50"/>
      <point x="510" y="61"/>
      <point x="510" y="360" type="curve" smooth="yes"/>
      <point x="510" y="659"/>
      <point x="434" y="770"/>
      <point x="320" y="790" type="curve"/>
      <point x="320" y="867"/>
      <point x="257" y="930"/>
      <point x="180" y="930" type="curve"/>
      <point x="180" y="954" type="line" smooth="yes"/>
      <point x="180" y="979"/>
      <point x="169" y="990"/>
      <point x="144" y="990" type="curve" smooth="yes"/>
      <point x="66" y="990" type="line" smooth="yes"/>
      <point x="41" y="990"/>
      <point x="30" y="979"/>
      <point x="30" y="954" type="curve" smooth="yes"/>
    </contour>
  </outline>
</glyph>
<glyph name="uni25D7.v_deco" format="1">
  <advance width="1280"/>
  <unicode hex="E168"/>
  <outline>
    <contour>
      <point x="1180" y="600" type="line"/>
      <point x="1180" y="670" type="line"/>
      <point x="100" y="670" type="line"/>
      <point x="100" y="600" type="line"/>
      <point x="46" y="600" type="line" smooth="yes"/>
      <point x="21" y="600"/>
      <point x="10" y="589"/>
      <point x="10" y="564" type="curve" smooth="yes"/>
      <point x="10" y="486" type="line" smooth="yes"/>
      <point x="10" y="461"/>
      <point x="21" y="450"/>
      <point x="46" y="450" type="curve" smooth="yes"/>
      <point x="70" y="450" type="line"/>
      <point x="70" y="373"/>
      <point x="133" y="310"/>
      <point x="210" y="310" type="curve"/>
      <point x="230" y="196"/>
      <point x="341" y="120"/>
      <point x="640" y="120" type="curve" smooth="yes"/>
      <point x="939" y="120"/>
      <point x="1050" y="196"/>
      <point x="1070" y="310" type="curve"/>
      <point x="1147" y="310"/>
      <point x="1210" y="373"/>
      <point x="1210" y="450" type="curve"/>
      <point x="1234" y="450" type="line" smooth="yes"/>
      <point x="1259" y="450"/>
      <point x="1270" y="461"/>
      <point x="1270" y="486" type="curve" smooth="yes"/>
      <point x="1270" y="564" type="line" smooth="yes"/>
      <point x="1270" y="589"/>
      <point x="1259" y="600"/>
      <point x="1234" y="600" type="curve" smooth="yes"/>
    </contour>
  </outline>
</glyph>
<glyph name="uni25D7.v_square" format="1">
  <advance width="1280"/>
  <unicode hex="E174"/>
  <outline>
    <contour>
      <point x="100" y="279" type="line"/>
      <point x="100" y="236"/>
      <point x="121" y="215"/>
      <point x="164" y="215" type="curve" smooth="yes"/>
      <point x="1116" y="215" type="line" smooth="yes"/>
      <point x="1159" y="215"/>
      <point x="1180" y="236"/>
      <point x="1180" y="279" type="curve" smooth="yes"/>
      <point x="1180" y="505" type="line"/>
      <point x="100" y="505" type="line"/>
    </contour>
  </outline>
</glyph>
<glyph name="uni21AB.v_arrow" format="1">
  <advance width="1335"/>
  <unicode hex="E17B"/>
  <outline>
    <contour>
      <point x="20" y="-133" type="line"/>
      <point x="20" y="-286" type="line" smooth="yes"/>
      <point x="20" y="-327"/>
      <point x="-22" y="-336"/>
      <point x="-60" y="-296" type="curve" smooth="yes"/>
      <point x="-576" y="253" type="line" smooth="yes"/>
      <point x="-614" y="294"/>
      <point x="-619" y="328"/>
      <point x="-576" y="373" type="curve" smooth="yes"/>
      <point x="-60" y="914" type="line" smooth="yes"/>
      <point x="-20" y="955"/>
      <point x="20" y="944"/>
      <point x="20" y="904" type="curve" smooth="yes"/>
      <point x="20" y="767" type="line"/>
      <point x="67" y="767" type="line" smooth="yes"/>
      <point x="113" y="767"/>
      <point x="128" y="790"/>
      <point x="128" y="841" type="curve" smooth="yes"/>
      <point x="128" y="900" type="line"/>
      <point x="1208" y="900" type="line"/>
      <point x="1208" y="601" type="line" smooth="yes"/>
      <point x="1208" y="160"/>
      <point x="960" y="-133"/>
      <point x="408" y="-133" type="curve" smooth="yes"/>
    </contour>
  </outline>
</glyph>
<glyph name="uni25D7.wings" format="1">
  <advance width="900.0"/>
  <unicode hex="E17E"/>
  <outline>
    <contour>
      <point x="192" y="-370" type="curve" smooth="yes"/>
      <point x="668" y="-370" type="line" smooth="yes"/>
      <point x="694" y="-370"/>
      <point x="704" y="-359"/>
      <point x="704" y="-334" type="curve" smooth="yes"/>
      <point x="704" y="-180" type="line"/>
      <point x="844" y="-180" type="line" smooth="yes"/>
      <point x="870" y="-180"/>
      <point x="880" y="-169"/>
      <point x="880" y="-144" type="curve" smooth="yes"/>
      <point x="880" y="864" type="line" smooth="yes"/>
      <point x="880" y="889"/>
      <point x="870" y="900"/>
      <point x="844" y="900" type="curve" smooth="yes"/>
      <point x="704" y="900" type="line"/>
      <point x="704" y="1054" type="line" smooth="yes"/>
      <point x="704" y="1079"/>
      <point x="694" y="1090"/>
      <point x="668" y="1090" type="curve" smooth="yes"/>
      <point x="192" y="1090" type="line" smooth="yes"/>
      <point x="166" y="1090"/>
      <point x="156" y="1079"/>
      <point x="156" y="1054" type="curve"/>
      <point x="156" y="950"/>
      <point x="100" y="900"/>
      <point x="3" y="900" type="curve" smooth="yes"/>
      <point x="-40" y="900" type="line" smooth="yes"/>
      <point x="-40" y="-180" type="line" smooth="yes"/>
      <point x="-4" y="-180" type="line" smooth="yes"/>
      <point x="97" y="-180"/>
      <point x="156" y="-229"/>
      <point x="156" y="-334" type="curve"/>
      <point x="156" y="-359"/>
      <point x="166" y="-370"/>
    </contour>
  </outline>
</glyph>
<glyph name="AE.v" format="1">
  <advance width="1000"/>
  <unicode hex="E1E0"/>
  <outline>
    <contour>
      <point x="524" y="720" type="line"/>
      <point x="355" y="720" type="line" smooth="yes"/>
      <point x="321" y="720"/>
      <point x="304" y="710"/>
      <point x="293" y="679" type="curve" smooth="yes"/>
      <point x="198" y="440" type="line" smooth="yes"/>
      <point x="179" y="390"/>
      <point x="169" y="349"/>
      <point x="169" y="290" type="curve" smooth="yes"/>
      <point x="169" y="36" type="line" smooth="yes"/>
      <point x="169" y="11"/>
      <point x="180" y="0"/>
      <point x="205" y="0" type="curve" smooth="yes"/>
      <point x="336" y="0" type="line" smooth="yes"/>
      <point x="361" y="0"/>
      <point x="372" y="11"/>
      <point x="372" y="36" type="curve" smooth="yes"/>
      <point x="372" y="328" type="line"/>
      <point x="442" y="514" type="line" smooth="yes"/>
      <point x="447" y="527"/>
      <point x="450" y="531"/>
      <point x="461" y="531" type="curve" smooth="yes"/>
      <point x="524" y="531" type="line"/>
    </contour>
    <contour>
      <point x="481" y="358" type="line"/>
      <point x="337" y="358" type="line"/>
      <point x="337" y="176" type="line"/>
      <point x="481" y="176" type="line"/>
    </contour>
    <contour>
      <point x="775" y="0" type="line" smooth="yes"/>
      <point x="800" y="0"/>
      <point x="811" y="11"/>
      <point x="811" y="36" type="curve" smooth="yes"/>
      <point x="811" y="153" type="line" smooth="yes"/>
      <point x="811" y="178"/>
      <point x="800" y="189"/>
      <point x="775" y="189" type="curve" smooth="yes"/>
      <point x="672" y="189" type="line"/>
      <point x="672" y="275" type="line"/>
      <point x="774" y="275" type="line" smooth="yes"/>
      <point x="799" y="275"/>
      <point x="810" y="286"/>
      <point x="810" y="311" type="curve" smooth="yes"/>
      <point x="810" y="418" type="line" smooth="yes"/>
      <point x="810" y="444"/>
      <point x="799" y="454"/>
      <point x="774" y="454" type="curve" smooth="yes"/>
      <point x="672" y="454" type="line"/>
      <point x="672" y="531" type="line"/>
      <point x="775" y="531" type="line" smooth="yes"/>
      <point x="800" y="531"/>
      <point x="811" y="542"/>
      <point x="811" y="567" type="curve" smooth="yes"/>
      <point x="811" y="684" type="line" smooth="yes"/>
      <point x="811" y="709"/>
      <point x="800" y="720"/>
      <point x="775" y="720" type="curve" smooth="yes"/>
      <point x="514" y="720" type="line" smooth="yes"/>
      <point x="489" y="720"/>
      <point x="470" y="709"/>
      <point x="470" y="684" type="curve"/>
      <point x="470" y="36" type="line"/>
      <point x="470" y="11"/>
      <point x="481" y="0"/>
      <point x="506" y="0" type="curve" smooth="yes"/>
    </contour>
  </outline>
</glyph>
<glyph name="Hbar.v" format="1">
  <advance width="1000"/>
  <unicode hex="E1E5"/>
  <outline>
    <contour>
      <point x="387" y="0" type="line" smooth="yes"/>
      <point x="412" y="0"/>
      <point x="423" y="11"/>
      <point x="423" y="36" type="curve" smooth="yes"/>
      <point x="423" y="148" type="line"/>
      <point x="576" y="148" type="line"/>
      <point x="576" y="36" type="line" smooth="yes"/>
      <point x="576" y="11"/>
      <point x="587" y="0"/>
      <point x="612" y="0" type="curve" smooth="yes"/>
      <point x="764" y="0" type="line" smooth="yes"/>
      <point x="789" y="0"/>
      <point x="800" y="11"/>
      <point x="800" y="36" type="curve" smooth="yes"/>
      <point x="800" y="684" type="line" smooth="yes"/>
      <point x="800" y="709"/>
      <point x="789" y="720"/>
      <point x="764" y="720" type="curve" smooth="yes"/>
      <point x="612" y="720" type="line" smooth="yes"/>
      <point x="587" y="720"/>
      <point x="576" y="709"/>
      <point x="576" y="684" type="curve" smooth="yes"/>
      <point x="576" y="347" type="line"/>
      <point x="423" y="347" type="line"/>
      <point x="423" y="684" type="line" smooth="yes"/>
      <point x="423" y="709"/>
      <point x="412" y="720"/>
      <point x="387" y="720" type="curve" smooth="yes"/>
      <point x="235" y="720" type="line" smooth="yes"/>
      <point x="210" y="720"/>
      <point x="199" y="709"/>
      <point x="199" y="684" type="curve" smooth="yes"/>
      <point x="199" y="36" type="line" smooth="yes"/>
      <point x="199" y="11"/>
      <point x="210" y="0"/>
      <point x="235" y="0" type="curve" smooth="yes"/>
    </contour>
    <contour>
      <point x="186" y="425" type="curve"/>
      <point x="813" y="425" type="line" smooth="yes"/>
      <point x="838" y="425"/>
      <point x="849" y="435"/>
      <point x="849" y="461" type="curve" smooth="yes"/>
      <point x="849" y="558" type="line" smooth="yes"/>
      <point x="849" y="584"/>
      <point x="838" y="594"/>
      <point x="813" y="594" type="curve" smooth="yes"/>
      <point x="186" y="594" type="line" smooth="yes"/>
      <point x="161" y="594"/>
      <point x="150" y="583"/>
      <point x="150" y="558" type="curve" smooth="yes"/>
      <point x="150" y="461" type="line" smooth="yes"/>
      <point x="150" y="435"/>
      <point x="161" y="425"/>
    </contour>
  </outline>
</glyph>
<glyph name="IJ.v" format="1">
  <advance width="1000"/>
  <unicode hex="E1E6"/>
  <outline>
    <contour>
      <point x="200" y="36" type="line" smooth="yes"/>
      <point x="200" y="11"/>
      <point x="211" y="0"/>
      <point x="236" y="0" type="curve"/>
      <point x="587" y="0" type="line" smooth="yes"/>
      <point x="719" y="0"/>
      <point x="800" y="78"/>
      <point x="800" y="210" type="curve" smooth="yes"/>
      <point x="800" y="684" type="line" smooth="yes"/>
      <point x="800" y="709"/>
      <point x="789" y="720"/>
      <point x="764" y="720" type="curve" smooth="yes"/>
      <point x="609" y="720" type="line" smooth="yes"/>
      <point x="584" y="720"/>
      <point x="573" y="709"/>
      <point x="573" y="684" type="curve" smooth="yes"/>
      <point x="573" y="260" type="line" smooth="yes"/>
      <point x="573" y="212"/>
      <point x="548" y="193"/>
      <point x="500" y="193" type="curve" smooth="yes"/>
      <point x="236" y="193" type="line" smooth="yes"/>
      <point x="211" y="193"/>
      <point x="200" y="182"/>
      <point x="200" y="157" type="curve" smooth="yes"/>
    </contour>
    <contour>
      <point x="391" y="330" type="line" smooth="yes"/>
      <point x="416" y="330"/>
      <point x="427" y="341"/>
      <point x="427" y="366" type="curve" smooth="yes"/>
      <point x="427" y="684" type="line" smooth="yes"/>
      <point x="427" y="709"/>
      <point x="416" y="720"/>
      <point x="391" y="720" type="curve" smooth="yes"/>
      <point x="236" y="720" type="line" smooth="yes"/>
      <point x="211" y="720"/>
      <point x="200" y="709"/>
      <point x="200" y="684" type="curve" smooth="yes"/>
      <point x="200" y="366" type="line" smooth="yes"/>
      <point x="200" y="341"/>
      <point x="211" y="330"/>
      <point x="236" y="330" type="curve" smooth="yes"/>
    </contour>
  </outline>
</glyph>
<glyph name="E.salt_v" format="1">
  <advance width="1000"/>
  <unicode hex="E1F7"/>
  <outline>
    <contour>
      <point x="442" y="720" type="line"/>
      <point x="253" y="720"/>
      <point x="196" y="637"/>
      <point x="196" y="515" type="curve" smooth="yes"/>
      <point x="196" y="204" type="line" smooth="yes"/>
      <point x="196" y="83"/>
      <point x="253" y="0"/>
      <point x="442" y="0" type="curve"/>
      <point x="755" y="0" type="line" smooth="yes"/>
      <point x="780" y="0"/>
      <point x="791" y="11"/>
      <point x="791" y="36" type="curve" smooth="yes"/>
      <point x="791" y="153" type="line" smooth="yes"/>
      <point x="791" y="178"/>
      <point x="780" y="189"/>
      <point x="755" y="189" type="curve" smooth="yes"/>
      <point x="482" y="189" type="line"/>
      <point x="430" y="189"/>
      <point x="421" y="209"/>
      <point x="421" y="237" type="curve" smooth="yes"/>
      <point x="421" y="481" type="line" smooth="yes"/>
      <point x="421" y="507"/>
      <point x="430" y="531"/>
      <point x="482" y="531" type="curve"/>
      <point x="755" y="531" type="line" smooth="yes"/>
      <point x="780" y="531"/>
      <point x="791" y="542"/>
      <point x="791" y="567" type="curve" smooth="yes"/>
      <point x="791" y="684" type="line" smooth="yes"/>
      <point x="791" y="709"/>
      <point x="780" y="720"/>
      <point x="755" y="720" type="curve" smooth="yes"/>
    </contour>
    <contour>
      <point x="395" y="275" type="line"/>
      <point x="674" y="275" type="line" smooth="yes"/>
      <point x="699" y="275"/>
      <point x="710" y="286"/>
      <point x="710" y="311" type="curve" smooth="yes"/>
      <point x="710" y="418" type="line" smooth="yes"/>
      <point x="710" y="444"/>
      <point x="699" y="454"/>
      <point x="674" y="454" type="curve" smooth="yes"/>
      <point x="395" y="454" type="line"/>
    </contour>
  </outline>
</glyph>
<glyph name="L.salt_s_v" format="1">
  <advance width="1000"/>
  <unicode hex="E212"/>
  <outline>
    <contour>
      <point x="392" y="680" type="curve" smooth="yes"/>
      <point x="237" y="680" type="line" smooth="yes"/>
      <point x="212" y="680"/>
      <point x="201" y="669"/>
      <point x="201" y="644" type="curve" smooth="yes"/>
      <point x="201" y="36" type="line" smooth="yes"/>
      <point x="201" y="11"/>
      <point x="212" y="0"/>
      <point x="237" y="0" type="curve" smooth="yes"/>
      <point x="755" y="0" type="line" smooth="yes"/>
      <point x="780" y="0"/>
      <point x="791" y="11"/>
      <point x="791" y="36" type="curve" smooth="yes"/>
      <point x="791" y="155" type="line" smooth="yes"/>
      <point x="791" y="180"/>
      <point x="780" y="191"/>
      <point x="755" y="191" type="curve" smooth="yes"/>
      <point x="428" y="191" type="line"/>
      <point x="428" y="644" type="line" smooth="yes"/>
      <point x="428" y="669"/>
      <point x="417" y="680"/>
    </contour>
  </outline>
</glyph>
<glyph name="N.salt_v" format="1">
  <advance width="1000"/>
  <unicode hex="E214"/>
  <outline>
    <contour>
      <point x="200" y="532" type="curve" smooth="yes"/>
      <point x="200" y="37" type="line" smooth="yes"/>
      <point x="200" y="12"/>
      <point x="211" y="0"/>
      <point x="236" y="0" type="curve" smooth="yes"/>
      <point x="388" y="0" type="line" smooth="yes"/>
      <point x="414" y="0"/>
      <point x="424" y="12"/>
      <point x="424" y="37" type="curve" smooth="yes"/>
      <point x="424" y="493" type="line" smooth="yes"/>
      <point x="424" y="520"/>
      <point x="436" y="540"/>
      <point x="498" y="540" type="curve" smooth="yes"/>
      <point x="559" y="540"/>
      <point x="571" y="520"/>
      <point x="571" y="493" type="curve" smooth="yes"/>
      <point x="571" y="37" type="line" smooth="yes"/>
      <point x="571" y="12"/>
      <point x="582" y="0"/>
      <point x="607" y="0" type="curve" smooth="yes"/>
      <point x="764" y="0" type="line" smooth="yes"/>
      <point x="789" y="0"/>
      <point x="800" y="12"/>
      <point x="800" y="37" type="curve"/>
      <point x="800" y="532" type="line" smooth="yes"/>
      <point x="800" y="654"/>
      <point x="748" y="736"/>
      <point x="500" y="736" type="curve" smooth="yes"/>
      <point x="252" y="736"/>
      <point x="200" y="654"/>
    </contour>
    <contour>
      <point x="509.0" y="747.0" type="move" name="top"/>
    </contour>
    <contour>
      <point x="509.0" y="0.0" type="move" name="bottom"/>
    </contour>
  </outline>
</glyph>
<glyph name="parenleft.v" format="1">
  <advance width="1000"/>
  <unicode hex="E22B"/>
  <outline>
    <contour>
      <point x="941" y="282" type="line" smooth="yes"/>
      <point x="941" y="471"/>
      <point x="858" y="528"/>
      <point x="737" y="528" type="curve" smooth="yes"/>
      <point x="266" y="528" type="line" smooth="yes"/>
      <point x="144" y="528"/>
      <point x="60" y="471"/>
      <point x="60" y="282" type="curve" smooth="yes"/>
      <point x="60" y="228" type="line" smooth="yes"/>
      <point x="60" y="203"/>
      <point x="71" y="192"/>
      <point x="96" y="192" type="curve" smooth="yes"/>
      <point x="218" y="192" type="line" smooth="yes"/>
      <point x="243" y="192"/>
      <point x="254" y="203"/>
      <point x="254" y="228" type="curve" smooth="yes"/>
      <point x="254" y="259" type="line" smooth="yes"/>
      <point x="254" y="291"/>
      <point x="269" y="300"/>
      <point x="304" y="300" type="curve" smooth="yes"/>
      <point x="700" y="300" type="line"/>
      <point x="735" y="300"/>
      <point x="750" y="291"/>
      <point x="750" y="259" type="curve" smooth="yes"/>
      <point x="750" y="228" type="line" smooth="yes"/>
      <point x="750" y="203"/>
      <point x="761" y="192"/>
      <point x="786" y="192" type="curve" smooth="yes"/>
      <point x="905" y="192" type="line" smooth="yes"/>
      <point x="930" y="192"/>
      <point x="941" y="203"/>
      <point x="941" y="228" type="curve" smooth="yes"/>
    </contour>
  </outline>
</glyph>
<glyph name="parenright.v" format="1">
  <advance width="1000"/>
  <unicode hex="E22C"/>
  <outline>
    <contour>
      <point x="941" y="492" type="line" smooth="yes"/>
      <point x="941" y="517"/>
      <point x="930" y="528"/>
      <point x="905" y="528" type="curve" smooth="yes"/>
      <point x="786" y="528" type="line" smooth="yes"/>
      <point x="761" y="528"/>
      <point x="750" y="517"/>
      <point x="750" y="492" type="curve" smooth="yes"/>
      <point x="750" y="461" type="line" smooth="yes"/>
      <point x="750" y="429"/>
      <point x="735" y="420"/>
      <point x="700" y="420" type="curve"/>
      <point x="304" y="420" type="line" smooth="yes"/>
      <point x="269" y="420"/>
      <point x="254" y="429"/>
      <point x="254" y="461" type="curve" smooth="yes"/>
      <point x="254" y="492" type="line" smooth="yes"/>
      <point x="254" y="517"/>
      <point x="243" y="528"/>
      <point x="218" y="528" type="curve" smooth="yes"/>
      <point x="96" y="528" type="line" smooth="yes"/>
      <point x="71" y="528"/>
      <point x="60" y="517"/>
      <point x="60" y="492" type="curve" smooth="yes"/>
      <point x="60" y="438" type="line" smooth="yes"/>
      <point x="60" y="249"/>
      <point x="144" y="192"/>
      <point x="266" y="192" type="curve" smooth="yes"/>
      <point x="737" y="192" type="line" smooth="yes"/>
      <point x="858" y="192"/>
      <point x="941" y="249"/>
      <point x="941" y="438" type="curve" smooth="yes"/>
    </contour>
  </outline>
</glyph>
<glyph name="bracketright.v" format="1">
  <advance width="1000"/>
  <unicode hex="E22E"/>
  <outline>
    <contour>
      <point x="254" y="420" type="line"/>
      <point x="254" y="492" type="line" smooth="yes"/>
      <point x="254" y="517"/>
      <point x="243" y="528"/>
      <point x="218" y="528" type="curve" smooth="yes"/>
      <point x="96" y="528" type="line" smooth="yes"/>
      <point x="71" y="528"/>
      <point x="60" y="517"/>
      <point x="60" y="492" type="curve" smooth="yes"/>
      <point x="60" y="228" type="line" smooth="yes"/>
      <point x="60" y="203"/>
      <point x="71" y="192"/>
      <point x="96" y="192" type="curve" smooth="yes"/>
      <point x="905" y="192" type="line" smooth="yes"/>
      <point x="930" y="192"/>
      <point x="941" y="203"/>
      <point x="941" y="228" type="curve" smooth="yes"/>
      <point x="941" y="492" type="line" smooth="yes"/>
      <point x="941" y="517"/>
      <point x="930" y="528"/>
      <point x="905" y="528" type="curve" smooth="yes"/>
      <point x="786" y="528" type="line" smooth="yes"/>
      <point x="761" y="528"/>
      <point x="750" y="517"/>
      <point x="750" y="492" type="curve" smooth="yes"/>
      <point x="750" y="420" type="line"/>
    </contour>
  </outline>
</glyph>
<glyph name="guilsinglleft.v" format="1">
  <advance width="1000"/>
  <unicode hex="E237"/>
  <outline>
    <contour>
      <point x="256" y="194" type="line" smooth="yes"/>
      <point x="251" y="169"/>
      <point x="261" y="158"/>
      <point x="287" y="158" type="curve" smooth="yes"/>
      <point x="414" y="158" type="line" smooth="yes"/>
      <point x="440" y="158"/>
      <point x="451" y="169"/>
      <point x="455" y="194" type="curve" smooth="yes"/>
      <point x="482" y="360" type="line" smooth="yes"/>
      <point x="484" y="374"/>
      <point x="489" y="377"/>
      <point x="501" y="377" type="curve" smooth="yes"/>
      <point x="513" y="377"/>
      <point x="518" y="374"/>
      <point x="520" y="360" type="curve" smooth="yes"/>
      <point x="547" y="194" type="line" smooth="yes"/>
      <point x="551" y="169"/>
      <point x="562" y="158"/>
      <point x="588" y="158" type="curve" smooth="yes"/>
      <point x="715" y="158" type="line" smooth="yes"/>
      <point x="741" y="158"/>
      <point x="751" y="169"/>
      <point x="746" y="194" type="curve" smooth="yes"/>
      <point x="693" y="454" type="line" smooth="yes"/>
      <point x="676" y="539"/>
      <point x="637" y="581"/>
      <point x="538" y="581" type="curve" smooth="yes"/>
      <point x="464" y="581" type="line" smooth="yes"/>
      <point x="365" y="581"/>
      <point x="326" y="539"/>
      <point x="309" y="454" type="curve" smooth="yes"/>
    </contour>
  </outline>
</glyph>
<glyph name="E.s_v" format="1">
  <advance width="1000"/>
  <unicode hex="E249"/>
  <outline>
    <contour>
      <point x="754" y="0" type="line" smooth="yes"/>
      <point x="779" y="0"/>
      <point x="790" y="11"/>
      <point x="790" y="36" type="curve" smooth="yes"/>
      <point x="790" y="149" type="line" smooth="yes"/>
      <point x="790" y="174"/>
      <point x="779" y="185"/>
      <point x="754" y="185" type="curve" smooth="yes"/>
      <point x="424" y="185" type="line"/>
      <point x="424" y="261" type="line"/>
      <point x="673" y="261" type="line" smooth="yes"/>
      <point x="698" y="261"/>
      <point x="709" y="272"/>
      <point x="709" y="297" type="curve" smooth="yes"/>
      <point x="709" y="392" type="line" smooth="yes"/>
      <point x="709" y="418"/>
      <point x="698" y="428"/>
      <point x="673" y="428" type="curve" smooth="yes"/>
      <point x="424" y="428" type="line"/>
      <point x="424" y="495" type="line"/>
      <point x="754" y="495" type="line" smooth="yes"/>
      <point x="779" y="495"/>
      <point x="790" y="506"/>
      <point x="790" y="531" type="curve" smooth="yes"/>
      <point x="790" y="644" type="line" smooth="yes"/>
      <point x="790" y="669"/>
      <point x="779" y="680"/>
      <point x="754" y="680" type="curve" smooth="yes"/>
      <point x="236" y="680" type="line" smooth="yes"/>
      <point x="211" y="680"/>
      <point x="200" y="669"/>
      <point x="200" y="644" type="curve" smooth="yes"/>
      <point x="200" y="36" type="line" smooth="yes"/>
      <point x="200" y="11"/>
      <point x="211" y="0"/>
      <point x="236" y="0" type="curve" smooth="yes"/>
    </contour>
  </outline>
</glyph>
<glyph name="N.s_v" format="1">
  <advance width="1000"/>
  <unicode hex="E250"/>
  <outline>
    <contour>
      <point x="386" y="0" type="line" smooth="yes"/>
      <point x="411" y="0"/>
      <point x="422" y="11"/>
      <point x="422" y="36" type="curve" smooth="yes"/>
      <point x="422" y="326" type="line"/>
      <point x="579" y="139" type="line"/>
      <point x="579" y="36" type="line" smooth="yes"/>
      <point x="579" y="11"/>
      <point x="590" y="0"/>
      <point x="615" y="0" type="curve" smooth="yes"/>
      <point x="765" y="0" type="line" smooth="yes"/>
      <point x="790" y="0"/>
      <point x="801" y="11"/>
      <point x="801" y="36" type="curve" smooth="yes"/>
      <point x="801" y="644" type="line" smooth="yes"/>
      <point x="801" y="669"/>
      <point x="790" y="680"/>
      <point x="765" y="680" type="curve" smooth="yes"/>
      <point x="615" y="680" type="line" smooth="yes"/>
      <point x="590" y="680"/>
      <point x="579" y="669"/>
      <point x="579" y="644" type="curve" smooth="yes"/>
      <point x="579" y="451" type="line"/>
      <point x="399" y="653" type="line" smooth="yes"/>
      <point x="382" y="673"/>
      <point x="366" y="680"/>
      <point x="340" y="680" type="curve" smooth="yes"/>
      <point x="236" y="680" type="line" smooth="yes"/>
      <point x="211" y="680"/>
      <point x="200" y="669"/>
      <point x="200" y="644" type="curve" smooth="yes"/>
      <point x="200" y="36" type="line" smooth="yes"/>
      <point x="200" y="11"/>
      <point x="211" y="0"/>
      <point x="236" y="0" type="curve" smooth="yes"/>
    </contour>
  </outline>
</glyph>
<glyph name="U.s_v" format="1">
  <advance width="1000"/>
  <unicode hex="E255"/>
  <outline>
    <contour>
      <point x="800" y="189" type="curve" smooth="yes"/>
      <point x="800" y="644" type="line" smooth="yes"/>
      <point x="800" y="669"/>
      <point x="789" y="680"/>
      <point x="764" y="680" type="curve" smooth="yes"/>
      <point x="612" y="680" type="line" smooth="yes"/>
      <point x="586" y="680"/>
      <point x="576" y="669"/>
      <point x="576" y="644" type="curve" smooth="yes"/>
      <point x="576" y="228" type="line" smooth="yes"/>
      <point x="576" y="201"/>
      <point x="564" y="181"/>
      <point x="502" y="181" type="curve" smooth="yes"/>
      <point x="441" y="181"/>
      <point x="429" y="201"/>
      <point x="429" y="228" type="curve" smooth="yes"/>
      <point x="429" y="644" type="line" smooth="yes"/>
      <point x="429" y="669"/>
      <point x="418" y="680"/>
      <point x="393" y="680" type="curve" smooth="yes"/>
      <point x="236" y="680" type="line" smooth="yes"/>
      <point x="211" y="680"/>
      <point x="200" y="669"/>
      <point x="200" y="644" type="curve" smooth="yes"/>
      <point x="200" y="189" type="line" smooth="yes"/>
      <point x="200" y="67"/>
      <point x="260" y="-15"/>
      <point x="500" y="-15" type="curve" smooth="yes"/>
      <point x="740" y="-15"/>
      <point x="800" y="67"/>
    </contour>
  </outline>
</glyph>
<glyph name="W.s_v" format="1">
  <advance width="1000"/>
  <unicode hex="E256"/>
  <outline>
    <contour>
      <point x="653" y="680" type="line" smooth="yes"/>
      <point x="628" y="680"/>
      <point x="622" y="669"/>
      <point x="622" y="644" type="curve" smooth="yes"/>
      <point x="619" y="372" type="line"/>
      <point x="619" y="341" type="line"/>
      <point x="579" y="459" type="line"/>
      <point x="566" y="481"/>
      <point x="552" y="490"/>
      <point x="526" y="490" type="curve" smooth="yes"/>
      <point x="495" y="490" type="line" smooth="yes"/>
      <point x="469" y="490"/>
      <point x="455" y="481"/>
      <point x="442" y="459" type="curve"/>
      <point x="402" y="341" type="line"/>
      <point x="402" y="372" type="line"/>
      <point x="398" y="644" type="line" smooth="yes"/>
      <point x="398" y="669"/>
      <point x="387" y="680"/>
      <point x="362" y="680" type="curve" smooth="yes"/>
      <point x="214" y="680" type="line" smooth="yes"/>
      <point x="189" y="680"/>
      <point x="178" y="669"/>
      <point x="178" y="644" type="curve" smooth="yes"/>
      <point x="182" y="318" type="line"/>
      <point x="182" y="256"/>
      <point x="182" y="242"/>
      <point x="200" y="174" type="curve" smooth="yes"/>
      <point x="236" y="36" type="line" smooth="yes"/>
      <point x="242" y="12"/>
      <point x="257" y="0"/>
      <point x="282" y="0" type="curve" smooth="yes"/>
      <point x="390" y="0" type="line" smooth="yes"/>
      <point x="421" y="0"/>
      <point x="434" y="10"/>
      <point x="440" y="30" type="curve" smooth="yes"/>
      <point x="493" y="206" type="line"/>
      <point x="517" y="206" type="line"/>
      <point x="570" y="30" type="line" smooth="yes"/>
      <point x="576" y="9"/>
      <point x="589" y="0"/>
      <point x="620" y="0" type="curve" smooth="yes"/>
      <point x="720" y="0" type="line" smooth="yes"/>
      <point x="745" y="0"/>
      <point x="758" y="12"/>
      <point x="764" y="36" type="curve" smooth="yes"/>
      <point x="800" y="172" type="line" smooth="yes"/>
      <point x="818" y="240"/>
      <point x="818" y="255"/>
      <point x="818" y="316" type="curve"/>
      <point x="822" y="644" type="line" smooth="yes"/>
      <point x="822" y="669"/>
      <point x="812" y="680"/>
      <point x="786" y="680" type="curve" smooth="yes"/>
    </contour>
  </outline>
</glyph>
<glyph name="A.salt_s_v" format="1">
  <advance width="1000"/>
  <unicode hex="E259"/>
  <outline>
    <contour>
      <point x="382" y="0" type="line" smooth="yes"/>
      <point x="407" y="0"/>
      <point x="418" y="11"/>
      <point x="418" y="36" type="curve" smooth="yes"/>
      <point x="418" y="457" type="line" smooth="yes"/>
      <point x="418" y="484"/>
      <point x="427" y="504"/>
      <point x="498" y="504" type="curve" smooth="yes"/>
      <point x="568" y="504"/>
      <point x="577" y="484"/>
      <point x="577" y="457" type="curve"/>
      <point x="577" y="36" type="line" smooth="yes"/>
      <point x="577" y="11"/>
      <point x="588" y="0"/>
      <point x="613" y="0" type="curve" smooth="yes"/>
      <point x="765" y="0" type="line" smooth="yes"/>
      <point x="790" y="0"/>
      <point x="801" y="11"/>
      <point x="801" y="36" type="curve" smooth="yes"/>
      <point x="801" y="491" type="line" smooth="yes"/>
      <point x="801" y="612"/>
      <point x="748" y="695"/>
      <point x="499" y="695" type="curve" smooth="yes"/>
      <point x="251" y="695"/>
      <point x="199" y="612"/>
      <point x="199" y="491" type="curve" smooth="yes"/>
      <point x="199" y="36" type="line"/>
      <point x="199" y="11"/>
      <point x="210" y="0"/>
      <point x="235" y="0" type="curve" smooth="yes"/>
    </contour>
    <contour>
      <point x="595" y="165" type="line"/>
      <point x="595" y="348" type="line"/>
      <point x="387" y="348" type="line"/>
      <point x="387" y="165" type="line"/>
    </contour>
  </outline>
</glyph>
<glyph name="zero.v" format="1">
  <advance width="1000"/>
  <unicode hex="FF10"/>
  <outline>
    <contour>
      <point x="800" y="189" type="curve" smooth="yes"/>
      <point x="800" y="530" type="line" smooth="yes"/>
      <point x="800" y="652"/>
      <point x="738" y="735"/>
      <point x="500" y="735" type="curve" smooth="yes"/>
      <point x="262" y="735"/>
      <point x="200" y="652"/>
      <point x="200" y="530" type="curve" smooth="yes"/>
      <point x="200" y="189" type="line" smooth="yes"/>
      <point x="200" y="67"/>
      <point x="262" y="-15"/>
      <point x="500" y="-15" type="curve" smooth="yes"/>
      <point x="738" y="-15"/>
      <point x="800" y="67"/>
    </contour>
    <contour>
      <point x="426" y="225" type="curve" smooth="yes"/>
      <point x="426" y="494" type="line" smooth="yes"/>
      <point x="426" y="520"/>
      <point x="440" y="540"/>
      <point x="500" y="540" type="curve" smooth="yes"/>
      <point x="560" y="540"/>
      <point x="575" y="520"/>
      <point x="575" y="494" type="curve" smooth="yes"/>
      <point x="575" y="225" type="line" smooth="yes"/>
      <point x="575" y="198"/>
      <point x="560" y="178"/>
      <point x="500" y="178" type="curve" smooth="yes"/>
      <point x="440" y="178"/>
      <point x="426" y="198"/>
    </contour>
    <contour>
      <point x="505.0" y="747.0" type="move" name="top"/>
    </contour>
    <contour>
      <point x="505.0" y="0.0" type="move" name="bottom"/>
    </contour>
  </outline>
</glyph>
<glyph name="nine.v" format="1">
  <advance width="1000"/>
  <unicode hex="FF19"/>
  <outline>
    <contour>
      <point x="579" y="466" type="line" smooth="yes"/>
      <point x="579" y="439"/>
      <point x="563" y="423"/>
      <point x="505" y="423" type="curve" smooth="yes"/>
      <point x="445" y="423"/>
      <point x="421" y="439"/>
      <point x="421" y="466" type="curve" smooth="yes"/>
      <point x="421" y="513" type="line" smooth="yes"/>
      <point x="421" y="539"/>
      <point x="445" y="555"/>
      <point x="505" y="555" type="curve" smooth="yes"/>
      <point x="563" y="555"/>
      <point x="579" y="539"/>
      <point x="579" y="514" type="curve" smooth="yes"/>
    </contour>
    <contour>
      <point x="579" y="389" type="line"/>
      <point x="579" y="251" type="line" smooth="yes"/>
      <point x="579" y="202"/>
      <point x="565" y="191"/>
      <point x="516" y="191" type="curve" smooth="yes"/>
      <point x="307" y="191" type="line" smooth="yes"/>
      <point x="282" y="191"/>
      <point x="271" y="180"/>
      <point x="271" y="155" type="curve" smooth="yes"/>
      <point x="271" y="37" type="line" smooth="yes"/>
      <point x="271" y="12"/>
      <point x="281" y="0"/>
      <point x="307" y="0" type="curve" smooth="yes"/>
      <point x="559" y="0" type="line" smooth="yes"/>
      <point x="748" y="0"/>
      <point x="805" y="84"/>
      <point x="805" y="206" type="curve" smooth="yes"/>
      <point x="805" y="534" type="line" smooth="yes"/>
      <point x="805" y="656"/>
      <point x="744" y="736"/>
      <point x="498" y="736" type="curve" smooth="yes"/>
      <point x="268" y="736"/>
      <point x="195" y="656"/>
      <point x="195" y="534" type="curve" smooth="yes"/>
      <point x="195" y="438" type="line" smooth="yes"/>
      <point x="195" y="319"/>
      <point x="248" y="258"/>
      <point x="429" y="258" type="curve" smooth="yes"/>
      <point x="619" y="258"/>
      <point x="684" y="325"/>
      <point x="684" y="423" type="curve"/>
    </contour>
  </outline>
</glyph>
<glyph name="G.v" format="1">
  <advance width="1000"/>
  <unicode hex="FF27"/>
  <outline>
    <contour>
      <point x="764" y="0" type="line" smooth="yes"/>
      <point x="789" y="0"/>
      <point x="800" y="11"/>
      <point x="800" y="36" type="curve" smooth="yes"/>
      <point x="800" y="345" type="line" smooth="yes"/>
      <point x="800" y="370"/>
      <point x="789" y="381"/>
      <point x="764" y="381" type="curve" smooth="yes"/>
      <point x="609" y="381" type="line" smooth="yes"/>
      <point x="584" y="381"/>
      <point x="573" y="370"/>
      <point x="573" y="345" type="curve" smooth="yes"/>
      <point x="573" y="189" type="line"/>
      <point x="468" y="189" type="line" smooth="yes"/>
      <point x="428" y="189"/>
      <point x="422" y="211"/>
      <point x="422" y="238" type="curve" smooth="yes"/>
      <point x="422" y="477" type="line" smooth="yes"/>
      <point x="422" y="503"/>
      <point x="431" y="527"/>
      <point x="483" y="527" type="curve" smooth="yes"/>
      <point x="699" y="527" type="line" smooth="yes"/>
      <point x="724" y="527"/>
      <point x="735" y="538"/>
      <point x="735" y="563" type="curve" smooth="yes"/>
      <point x="735" y="684" type="line" smooth="yes"/>
      <point x="735" y="709"/>
      <point x="724" y="720"/>
      <point x="699" y="720" type="curve" smooth="yes"/>
      <point x="441" y="720" type="line" smooth="yes"/>
      <point x="252" y="720"/>
      <point x="195" y="637"/>
      <point x="195" y="516" type="curve" smooth="yes"/>
      <point x="195" y="204" type="line" smooth="yes"/>
      <point x="195" y="83"/>
      <point x="252" y="0"/>
      <point x="441" y="0" type="curve" smooth="yes"/>
    </contour>
    <contour>
      <point x="491.0" y="747.0" type="move" name="top"/>
    </contour>
    <contour>
      <point x="491.0" y="0.0" type="move" name="bottom"/>
    </contour>
  </outline>
</glyph>
<glyph name="Z.v" format="1">
  <advance width="1000"/>
  <unicode hex="FF3A"/>
  <outline>
    <contour>
      <point x="764" y="0" type="line" smooth="yes"/>
      <point x="789" y="0"/>
      <point x="800" y="11"/>
      <point x="800" y="36" type="curve" smooth="yes"/>
      <point x="800" y="155" type="line" smooth="yes"/>
      <point x="800" y="180"/>
      <point x="789" y="191"/>
      <point x="764" y="191" type="curve" smooth="yes"/>
      <point x="493" y="191" type="line"/>
      <point x="767" y="472" type="line" smooth="yes"/>
      <point x="785" y="491"/>
      <point x="792" y="508"/>
      <point x="792" y="535" type="curve" smooth="yes"/>
      <point x="792" y="684" type="line" smooth="yes"/>
      <point x="792" y="709"/>
      <point x="781" y="720"/>
      <point x="756" y="720" type="curve" smooth="yes"/>
      <point x="244" y="720" type="line" smooth="yes"/>
      <point x="219" y="720"/>
      <point x="208" y="709"/>
      <point x="208" y="684" type="curve"/>
      <point x="208" y="563" type="line"/>
      <point x="208" y="538"/>
      <point x="219" y="527"/>
      <point x="244" y="527" type="curve" smooth="yes"/>
      <point x="510" y="527" type="line"/>
      <point x="225" y="232" type="line" smooth="yes"/>
      <point x="207" y="213"/>
      <point x="200" y="196"/>
      <point x="200" y="170" type="curve"/>
      <point x="200" y="36" type="line"/>
      <point x="200" y="11"/>
      <point x="211" y="0"/>
      <point x="236" y="0" type="curve" smooth="yes"/>
    </contour>
  </outline>
</glyph>
<glyph name="AE.salt.alt001" format="1">
  <advance width="1013"/>
  <outline>
    <contour>
      <point x="247.0" y="0.0" type="line" smooth="yes"/>
      <point x="272.0" y="0.0"/>
      <point x="283.0" y="11.0"/>
      <point x="283.0" y="36.0" type="curve" smooth="yes"/>
      <point x="283.0" y="489.0" type="line" smooth="yes"/>
      <point x="283.0" y="516.0"/>
      <point x="295.0" y="536.0"/>
      <point x="366.0" y="536.0" type="curve"/>
      <point x="448" y="536" type="line"/>
      <point x="448.0" y="36.0" type="line" smooth="yes"/>
      <point x="448" y="11"/>
      <point x="459.0" y="0.0"/>
      <point x="484.0" y="0.0" type="curve" smooth="yes"/>
      <point x="928.0" y="0.0" type="line" smooth="yes"/>
      <point x="953.0" y="0.0"/>
      <point x="964.0" y="11.0"/>
      <point x="964.0" y="36.0" type="curve" smooth="yes"/>
      <point x="964.0" y="153.0" type="line" smooth="yes"/>
      <point x="964.0" y="178.0"/>
      <point x="953.0" y="189.0"/>
      <point x="928.0" y="189.0" type="curve" smooth="yes"/>
      <point x="675.0" y="189.0" type="line"/>
      <point x="675.0" y="275.0" type="line"/>
      <point x="847.0" y="275.0" type="line" smooth="yes"/>
      <point x="872.0" y="275.0"/>
      <point x="883.0" y="286.0"/>
      <point x="883.0" y="311.0" type="curve" smooth="yes"/>
      <point x="883.0" y="418.0" type="line" smooth="yes"/>
      <point x="883.0" y="444.0"/>
      <point x="872.0" y="454.0"/>
      <point x="847.0" y="454.0" type="curve" smooth="yes"/>
      <point x="675.0" y="454.0" type="line"/>
      <point x="675.0" y="531.0" type="line"/>
      <point x="928.0" y="531.0" type="line" smooth="yes"/>
      <point x="953.0" y="531.0"/>
      <point x="964.0" y="542.0"/>
      <point x="964.0" y="567.0" type="curve" smooth="yes"/>
      <point x="964.0" y="684.0" type="line" smooth="yes"/>
      <point x="964.0" y="709.0"/>
      <point x="953.0" y="720.0"/>
      <point x="928.0" y="720.0" type="curve" smooth="yes"/>
      <point x="367.0" y="720.0" type="line" smooth="yes"/>
      <point x="119.0" y="720.0"/>
      <point x="64.0" y="637.0"/>
      <point x="64.0" y="516.0" type="curve" smooth="yes"/>
      <point x="64.0" y="36.0" type="line" smooth="yes"/>
      <point x="64.0" y="11.0"/>
      <point x="75.0" y="0.0"/>
      <point x="100.0" y="0.0" type="curve" smooth="yes"/>
    </contour>
    <contour>
      <point x="466.0" y="185.0" type="line"/>
      <point x="466.0" y="368.0" type="line"/>
      <point x="252.0" y="368.0" type="line"/>
      <point x="252.0" y="185.0" type="line"/>
    </contour>
  </outline>
</glyph>
<glyph name="AE.salt_v.alt000" format="1">
  <advance width="1000"/>
  <outline>
    <contour>
      <point x="346" y="-10" type="curve" smooth="yes"/>
      <point x="215" y="-10" type="line" smooth="yes"/>
      <point x="183" y="-10"/>
      <point x="169" y="4"/>
      <point x="169" y="36" type="curve" smooth="yes"/>
      <point x="169" y="516" type="line" smooth="yes"/>
      <point x="169" y="642"/>
      <point x="224" y="730"/>
      <point x="429" y="730" type="curve" smooth="yes"/>
      <point x="785" y="730" type="line" smooth="yes"/>
      <point x="817" y="730"/>
      <point x="831" y="716"/>
      <point x="831" y="684" type="curve" smooth="yes"/>
      <point x="831" y="567" type="line" smooth="yes"/>
      <point x="831" y="535"/>
      <point x="817" y="521"/>
      <point x="785" y="521" type="curve" smooth="yes"/>
      <point x="682" y="521" type="line"/>
      <point x="692" y="531" type="line"/>
      <point x="692" y="454" type="line"/>
      <point x="682" y="464" type="line"/>
      <point x="784" y="464" type="line" smooth="yes"/>
      <point x="816" y="464"/>
      <point x="830" y="451"/>
      <point x="830" y="418" type="curve" smooth="yes"/>
      <point x="830" y="311" type="line" smooth="yes"/>
      <point x="830" y="279"/>
      <point x="816" y="265"/>
      <point x="784" y="265" type="curve" smooth="yes"/>
      <point x="682" y="265" type="line"/>
      <point x="692" y="275" type="line"/>
      <point x="692" y="189" type="line"/>
      <point x="682" y="199" type="line"/>
      <point x="785" y="199" type="line" smooth="yes"/>
      <point x="817" y="199"/>
      <point x="831" y="185"/>
      <point x="831" y="153" type="curve" smooth="yes"/>
      <point x="831" y="36" type="line" smooth="yes"/>
      <point x="831" y="4"/>
      <point x="817" y="-10"/>
      <point x="785" y="-10" type="curve" smooth="yes"/>
      <point x="516" y="-10" type="line" smooth="yes"/>
      <point x="484" y="-10"/>
      <point x="470" y="4"/>
      <point x="470" y="36" type="curve" smooth="yes"/>
      <point x="470" y="536" type="line"/>
      <point x="480" y="526" type="line"/>
      <point x="431" y="526" type="line" smooth="yes"/>
      <point x="400" y="526"/>
      <point x="392" y="510"/>
      <point x="392" y="489" type="curve" smooth="yes"/>
      <point x="392" y="36" type="line" smooth="yes"/>
      <point x="392" y="4"/>
      <point x="378" y="-10"/>
    </contour>
    <contour>
      <point x="508" y="378" type="line"/>
      <point x="508" y="175" type="line"/>
      <point x="334" y="175" type="line"/>
      <point x="334" y="378" type="line"/>
    </contour>
  </outline>
</glyph>
<glyph name="AE.v.alt000" format="1">
  <advance width="1000"/>
  <outline>
    <contour>
      <point x="355" y="730" type="curve" smooth="yes"/>
      <point x="534" y="730" type="line"/>
      <point x="534" y="521" type="line"/>
      <point x="524" y="521" type="line"/>
      <point x="461" y="521" type="line" smooth="yes"/>
      <point x="455" y="521"/>
      <point x="454" y="517"/>
      <point x="451" y="510" type="curve" smooth="yes"/>
      <point x="381" y="324" type="line"/>
      <point x="382" y="328" type="line"/>
      <point x="382" y="36" type="line" smooth="yes"/>
      <point x="382" y="4"/>
      <point x="368" y="-10"/>
      <point x="336" y="-10" type="curve" smooth="yes"/>
      <point x="205" y="-10" type="line" smooth="yes"/>
      <point x="173" y="-10"/>
      <point x="159" y="4"/>
      <point x="159" y="36" type="curve" smooth="yes"/>
      <point x="159" y="290" type="line" smooth="yes"/>
      <point x="159" y="350"/>
      <point x="169" y="392"/>
      <point x="189" y="444" type="curve" smooth="yes"/>
      <point x="284" y="682" type="line" smooth="yes"/>
      <point x="296" y="718"/>
      <point x="316" y="730"/>
    </contour>
    <contour>
      <point x="327" y="368" type="line"/>
      <point x="491" y="368" type="line"/>
      <point x="491" y="166" type="line"/>
      <point x="327" y="166" type="line"/>
    </contour>
    <contour>
      <point x="775" y="-10" type="curve" smooth="yes"/>
      <point x="506" y="-10" type="line" smooth="yes"/>
      <point x="474" y="-10"/>
      <point x="460" y="4"/>
      <point x="460" y="36" type="curve" smooth="yes"/>
      <point x="460" y="684" type="line" smooth="yes"/>
      <point x="460" y="715"/>
      <point x="482" y="730"/>
      <point x="514" y="730" type="curve" smooth="yes"/>
      <point x="775" y="730" type="line" smooth="yes"/>
      <point x="807" y="730"/>
      <point x="821" y="716"/>
      <point x="821" y="684" type="curve" smooth="yes"/>
      <point x="821" y="567" type="line" smooth="yes"/>
      <point x="821" y="535"/>
      <point x="807" y="521"/>
      <point x="775" y="521" type="curve" smooth="yes"/>
      <point x="672" y="521" type="line"/>
      <point x="682" y="531" type="line"/>
      <point x="682" y="454" type="line"/>
      <point x="672" y="464" type="line"/>
      <point x="774" y="464" type="line" smooth="yes"/>
      <point x="806" y="464"/>
      <point x="820" y="451"/>
      <point x="820" y="418" type="curve" smooth="yes"/>
      <point x="820" y="311" type="line" smooth="yes"/>
      <point x="820" y="279"/>
      <point x="806" y="265"/>
      <point x="774" y="265" type="curve" smooth="yes"/>
      <point x="672" y="265" type="line"/>
      <point x="682" y="275" type="line"/>
      <point x="682" y="189" type="line"/>
      <point x="672" y="199" type="line"/>
      <point x="775" y="199" type="line" smooth="yes"/>
      <point x="807" y="199"/>
      <point x="821" y="185"/>
      <point x="821" y="153" type="curve" smooth="yes"/>
      <point x="821" y="36" type="line" smooth="yes"/>
      <point x="821" y="4"/>
      <point x="807" y="-10"/>
    </contour>
  </outline>
</glyph>
<glyph name="A.alt000" format="1">
  <advance width="730"/>
  <outline>
    <contour>
      <point x="340" y="507" type="curve" smooth="yes"/>
      <point x="293" y="355" type="line"/>
      <point x="283" y="368" type="line"/>
      <point x="440" y="368" type="line"/>
      <point x="430" y="355" type="line"/>
      <point x="383" y="507" type="line" smooth="yes"/>
      <point x="381" y="512"/>
      <point x="379" y="517"/>
      <point x="374" y="517" type="curve" smooth="yes"/>
      <point x="349" y="517" type="line" smooth="yes"/>
      <point x="344" y="517"/>
      <point x="341" y="511"/>
    </contour>
    <contour>
      <point x="283" y="36" type="line" smooth="yes"/>
      <point x="283" y="4"/>
      <point x="269" y="-10"/>
      <point x="237" y="-10" type="curve" smooth="yes"/>
      <point x="90" y="-10" type="line" smooth="yes"/>
      <point x="58" y="-10"/>
      <point x="44" y="4"/>
      <point x="44" y="36" type="curve" smooth="yes"/>
      <point x="44" y="300" type="line" smooth="yes"/>
      <point x="44" y="341"/>
      <point x="56" y="392"/>
      <point x="84" y="464" type="curve" smooth="yes"/>
      <point x="171" y="690" type="line" smooth="yes"/>
      <point x="180" y="718"/>
      <point x="199" y="730"/>
      <point x="231" y="730" type="curve" smooth="yes"/>
      <point x="500" y="730" type="line" smooth="yes"/>
      <point x="531" y="730"/>
      <point x="550" y="718"/>
      <point x="559" y="691" type="curve" smooth="yes"/>
      <point x="646" y="464" type="line" smooth="yes"/>
      <point x="674" y="392"/>
      <point x="686" y="341"/>
      <point x="686" y="300" type="curve" smooth="yes"/>
      <point x="686" y="36" type="line" smooth="yes"/>
      <point x="686" y="4"/>
      <point x="672" y="-10"/>
      <point x="640" y="-10" type="curve" smooth="yes"/>
      <point x="489" y="-10" type="line" smooth="yes"/>
      <point x="455" y="-10"/>
      <point x="440" y="5"/>
      <point x="440" y="36" type="curve" smooth="yes"/>
      <point x="440" y="176" type="line"/>
      <point x="450" y="166" type="line"/>
      <point x="273" y="166" type="line"/>
      <point x="283" y="176" type="line"/>
    </contour>
  </outline>
</glyph>
<glyph name="A.salt.alt000" format="1">
  <advance width="736"/>
  <outline>
    <contour>
      <point x="247" y="-10" type="curve" smooth="yes"/>
      <point x="100" y="-10" type="line" smooth="yes"/>
      <point x="68" y="-10"/>
      <point x="54" y="4"/>
      <point x="54" y="36" type="curve" smooth="yes"/>
      <point x="54" y="531" type="line" smooth="yes"/>
      <point x="54" y="656"/>
      <point x="107" y="745"/>
      <point x="367" y="745" type="curve" smooth="yes"/>
      <point x="628" y="745"/>
      <point x="682" y="656"/>
      <point x="682" y="531" type="curve" smooth="yes"/>
      <point x="682" y="36" type="line" smooth="yes"/>
      <point x="682" y="4"/>
      <point x="668" y="-10"/>
      <point x="636" y="-10" type="curve" smooth="yes"/>
      <point x="484" y="-10" type="line" smooth="yes"/>
      <point x="452" y="-10"/>
      <point x="438" y="4"/>
      <point x="438" y="36" type="curve" smooth="yes"/>
      <point x="438" y="497" type="line" smooth="yes"/>
      <point x="438" y="521"/>
      <point x="421" y="534"/>
      <point x="366" y="534" type="curve" smooth="yes"/>
      <point x="310" y="534"/>
      <point x="293" y="521"/>
      <point x="293" y="497" type="curve" smooth="yes"/>
      <point x="293" y="36" type="line" smooth="yes"/>
      <point x="293" y="4"/>
      <point x="279" y="-10"/>
    </contour>
    <contour>
      <point x="476" y="378" type="line"/>
      <point x="476" y="175" type="line"/>
      <point x="242" y="175" type="line"/>
      <point x="242" y="378" type="line"/>
    </contour>
  </outline>
</glyph>
<glyph name="A.salt.alt002" format="1">
  <advance width="736"/>
  <outline>
    <contour>
      <point x="174" y="90" type="line"/>
      <point x="184" y="90" type="line"/>
      <point x="184" y="507" type="line" smooth="yes"/>
      <point x="184" y="582"/>
      <point x="219" y="632"/>
      <point x="368" y="632" type="curve" smooth="yes"/>
      <point x="517" y="632"/>
      <point x="555" y="582"/>
      <point x="555" y="507" type="curve" smooth="yes"/>
      <point x="555" y="90" type="line"/>
      <point x="565" y="90" type="line"/>
      <point x="565" y="507" type="line" smooth="yes"/>
      <point x="565" y="588"/>
      <point x="525" y="642"/>
      <point x="368" y="642" type="curve" smooth="yes"/>
      <point x="211" y="642"/>
      <point x="174" y="588"/>
      <point x="174" y="507" type="curve" smooth="yes"/>
    </contour>
    <contour>
      <point x="178" y="281" type="line"/>
      <point x="178" y="271" type="line"/>
      <point x="561" y="271" type="line"/>
      <point x="561" y="281" type="line"/>
    </contour>
  </outline>
</glyph>
<glyph name="A.salt_v.alt000" format="1">
  <advance width="1000"/>
  <outline>
    <contour>
      <point x="383" y="-10" type="curve" smooth="yes"/>
      <point x="236" y="-10" type="line" smooth="yes"/>
      <point x="204" y="-10"/>
      <point x="190" y="5"/>
      <point x="190" y="37" type="curve" smooth="yes"/>
      <point x="190" y="532" type="line" smooth="yes"/>
      <point x="190" y="657"/>
      <point x="239" y="746"/>
      <point x="499" y="746" type="curve" smooth="yes"/>
      <point x="760" y="746"/>
      <point x="810" y="657"/>
      <point x="810" y="532" type="curve" smooth="yes"/>
      <point x="810" y="37" type="line" smooth="yes"/>
      <point x="810" y="5"/>
      <point x="796" y="-10"/>
      <point x="764" y="-10" type="curve" smooth="yes"/>
      <point x="612" y="-10" type="line" smooth="yes"/>
      <point x="580" y="-10"/>
      <point x="566" y="5"/>
      <point x="566" y="37" type="curve" smooth="yes"/>
      <point x="566" y="498" type="line" smooth="yes"/>
      <point x="566" y="522"/>
      <point x="553" y="535"/>
      <point x="498" y="535" type="curve" smooth="yes"/>
      <point x="442" y="535"/>
      <point x="429" y="522"/>
      <point x="429" y="498" type="curve" smooth="yes"/>
      <point x="429" y="37" type="line" smooth="yes"/>
      <point x="429" y="5"/>
      <point x="415" y="-10"/>
    </contour>
    <contour>
      <point x="604" y="379" type="line"/>
      <point x="604" y="176" type="line"/>
      <point x="378" y="176" type="line"/>
      <point x="378" y="379" type="line"/>
    </contour>
  </outline>
</glyph>
<glyph name="A.v.alt000" format="1">
  <advance width="1000"/>
  <outline>
    <contour>
      <point x="366" y="730" type="curve" smooth="yes"/>
      <point x="625" y="730" type="line" smooth="yes"/>
      <point x="656" y="730"/>
      <point x="674" y="720"/>
      <point x="684" y="691" type="curve" smooth="yes"/>
      <point x="771" y="464" type="line" smooth="yes"/>
      <point x="801" y="386"/>
      <point x="811" y="371"/>
      <point x="811" y="300" type="curve" smooth="yes"/>
      <point x="811" y="36" type="line" smooth="yes"/>
      <point x="811" y="4"/>
      <point x="797" y="-10"/>
      <point x="765" y="-10" type="curve" smooth="yes"/>
      <point x="614" y="-10" type="line" smooth="yes"/>
      <point x="582" y="-10"/>
      <point x="565" y="5"/>
      <point x="565" y="36" type="curve" smooth="yes"/>
      <point x="565" y="312" type="line" smooth="yes"/>
      <point x="565" y="325"/>
      <point x="563" y="336"/>
      <point x="557" y="350" type="curve"/>
      <point x="508" y="507" type="line"/>
      <point x="509" y="506" type="line"/>
      <point x="506" y="513"/>
      <point x="506" y="517"/>
      <point x="499" y="517" type="curve" smooth="yes"/>
      <point x="494" y="517" type="line" smooth="yes"/>
      <point x="487" y="517"/>
      <point x="487" y="513"/>
      <point x="484" y="506" type="curve"/>
      <point x="485" y="507" type="line"/>
      <point x="435" y="348" type="line"/>
      <point x="430" y="335"/>
      <point x="428" y="324"/>
      <point x="428" y="311" type="curve" smooth="yes"/>
      <point x="428" y="36" type="line" smooth="yes"/>
      <point x="428" y="4"/>
      <point x="414" y="-10"/>
      <point x="382" y="-10" type="curve" smooth="yes"/>
      <point x="235" y="-10" type="line" smooth="yes"/>
      <point x="202" y="-10"/>
      <point x="189" y="4"/>
      <point x="189" y="36" type="curve" smooth="yes"/>
      <point x="189" y="300" type="line" smooth="yes"/>
      <point x="189" y="371"/>
      <point x="199" y="386"/>
      <point x="229" y="463" type="curve" smooth="yes"/>
      <point x="306" y="690" type="line" smooth="yes"/>
      <point x="316" y="720"/>
      <point x="335" y="730"/>
    </contour>
    <contour>
      <point x="626" y="368" type="line"/>
      <point x="626" y="166" type="line"/>
      <point x="367" y="166" type="line"/>
      <point x="367" y="368" type="line"/>
    </contour>
  </outline>
</glyph>
<glyph name="Aring.salt_v.alt000" format="1">
  <advance width="1000"/>
  <outline>
    <contour>
      <point x="383" y="-10" type="curve" smooth="yes"/>
      <point x="236" y="-10" type="line" smooth="yes"/>
      <point x="204" y="-10"/>
      <point x="190" y="4"/>
      <point x="190" y="36" type="curve" smooth="yes"/>
      <point x="190" y="492" type="line" smooth="yes"/>
      <point x="190" y="594"/>
      <point x="222" y="670"/>
      <point x="370" y="696" type="curve" smooth="yes"/>
      <point x="373" y="696" type="line"/>
      <point x="502" y="633" type="line"/>
      <point x="493" y="632" type="line"/>
      <point x="601" y="700" type="line"/>
      <point x="604" y="700" type="line" smooth="yes"/>
      <point x="774" y="678"/>
      <point x="810" y="599"/>
      <point x="810" y="492" type="curve" smooth="yes"/>
      <point x="810" y="36" type="line" smooth="yes"/>
      <point x="810" y="4"/>
      <point x="796" y="-10"/>
      <point x="764" y="-10" type="curve" smooth="yes"/>
      <point x="612" y="-10" type="line" smooth="yes"/>
      <point x="580" y="-10"/>
      <point x="566" y="4"/>
      <point x="566" y="36" type="curve" smooth="yes"/>
      <point x="566" y="458" type="line" smooth="yes"/>
      <point x="566" y="482"/>
      <point x="553" y="495"/>
      <point x="498" y="495" type="curve" smooth="yes"/>
      <point x="442" y="495"/>
      <point x="429" y="482"/>
      <point x="429" y="458" type="curve" smooth="yes"/>
      <point x="429" y="36" type="line" smooth="yes"/>
      <point x="429" y="4"/>
      <point x="415" y="-10"/>
    </contour>
    <contour>
      <point x="604" y="359" type="line"/>
      <point x="604" y="156" type="line"/>
      <point x="378" y="156" type="line"/>
      <point x="378" y="359" type="line"/>
    </contour>
    <contour>
      <point x="724" y="790" type="curve" smooth="yes"/>
      <point x="724" y="732" type="line" smooth="yes"/>
      <point x="724" y="643"/>
      <point x="683" y="579"/>
      <point x="497" y="579" type="curve" smooth="yes"/>
      <point x="311" y="579"/>
      <point x="270" y="643"/>
      <point x="270" y="732" type="curve" smooth="yes"/>
      <point x="270" y="790" type="line" smooth="yes"/>
      <point x="270" y="879"/>
      <point x="311" y="943"/>
      <point x="497" y="943" type="curve" smooth="yes"/>
      <point x="683" y="943"/>
      <point x="724" y="879"/>
    </contour>
    <contour>
      <point x="547" y="725" type="curve" smooth="yes"/>
      <point x="547" y="760" type="line" smooth="yes"/>
      <point x="547" y="782"/>
      <point x="536" y="790"/>
      <point x="498" y="790" type="curve" smooth="yes"/>
      <point x="461" y="790"/>
      <point x="451" y="781"/>
      <point x="451" y="760" type="curve" smooth="yes"/>
      <point x="451" y="725" type="line" smooth="yes"/>
      <point x="451" y="701"/>
      <point x="460" y="692"/>
      <point x="498" y="692" type="curve" smooth="yes"/>
      <point x="536" y="692"/>
      <point x="547" y="701"/>
    </contour>
  </outline>
</glyph>
<glyph name="Aring.salt_v.alt001" format="1">
  <advance width="1000"/>
  <outline>
    <contour>
      <point x="383" y="0" type="line" smooth="yes"/>
      <point x="408" y="0"/>
      <point x="419" y="11"/>
      <point x="419" y="36" type="curve" smooth="yes"/>
      <point x="419" y="458" type="line" smooth="yes"/>
      <point x="419" y="485"/>
      <point x="427" y="505"/>
      <point x="498" y="505" type="curve" smooth="yes"/>
      <point x="568" y="505"/>
      <point x="576" y="485"/>
      <point x="576" y="458" type="curve" smooth="yes"/>
      <point x="576" y="36" type="line" smooth="yes"/>
      <point x="576" y="11"/>
      <point x="587" y="0"/>
      <point x="612" y="0" type="curve" smooth="yes"/>
      <point x="764" y="0" type="line" smooth="yes"/>
      <point x="789" y="0"/>
      <point x="800" y="11"/>
      <point x="800" y="36" type="curve" smooth="yes"/>
      <point x="800" y="492" type="line" smooth="yes"/>
      <point x="800" y="594"/>
      <point x="765" y="669"/>
      <point x="603" y="690" type="curve"/>
      <point x="498" y="624" type="line"/>
      <point x="372" y="686" type="line"/>
      <point x="231" y="661"/>
      <point x="200" y="589"/>
      <point x="200" y="492" type="curve" smooth="yes"/>
      <point x="200" y="36" type="line" smooth="yes"/>
      <point x="200" y="11"/>
      <point x="211" y="0"/>
      <point x="236" y="0" type="curve" smooth="yes"/>
    </contour>
    <contour>
      <point x="594" y="166" type="line"/>
      <point x="594" y="349" type="line"/>
      <point x="388" y="349" type="line"/>
      <point x="388" y="166" type="line"/>
    </contour>
    <contour>
      <point x="714" y="790" type="line" smooth="yes"/>
      <point x="714" y="875"/>
      <point x="671" y="933"/>
      <point x="497" y="933" type="curve" smooth="yes"/>
      <point x="323" y="933"/>
      <point x="280" y="875"/>
      <point x="280" y="790" type="curve" smooth="yes"/>
      <point x="280" y="732" type="line" smooth="yes"/>
      <point x="280" y="647"/>
      <point x="323" y="589"/>
      <point x="497" y="589" type="curve" smooth="yes"/>
      <point x="671" y="589"/>
      <point x="714" y="647"/>
      <point x="714" y="732" type="curve" smooth="yes"/>
    </contour>
    <contour>
      <point x="557" y="725" type="line" smooth="yes"/>
      <point x="557" y="696"/>
      <point x="548" y="682"/>
      <point x="498" y="682" type="curve" smooth="yes"/>
      <point x="449" y="682"/>
      <point x="441" y="696"/>
      <point x="441" y="725" type="curve" smooth="yes"/>
      <point x="441" y="760" type="line" smooth="yes"/>
      <point x="441" y="786"/>
      <point x="449" y="800"/>
      <point x="498" y="800" type="curve" smooth="yes"/>
      <point x="548" y="800"/>
      <point x="557" y="786"/>
      <point x="557" y="760" type="curve" smooth="yes"/>
    </contour>
  </outline>
</glyph>
<glyph name="Aring.v.alt000" format="1">
  <advance width="1000"/>
  <outline>
    <contour>
      <point x="381" y="-10" type="curve" smooth="yes"/>
      <point x="235" y="-10" type="line" smooth="yes"/>
      <point x="203" y="-10"/>
      <point x="189" y="4"/>
      <point x="189" y="36" type="curve" smooth="yes"/>
      <point x="189" y="270" type="line" smooth="yes"/>
      <point x="189" y="330"/>
      <point x="199" y="372"/>
      <point x="219" y="423" type="curve" smooth="yes"/>
      <point x="279" y="597" type="line"/>
      <point x="294" y="631"/>
      <point x="311" y="644"/>
      <point x="350" y="644" type="curve" smooth="yes"/>
      <point x="651" y="644" type="line" smooth="yes"/>
      <point x="689" y="644"/>
      <point x="707" y="631"/>
      <point x="721" y="596" type="curve" smooth="yes"/>
      <point x="781" y="424" type="line" smooth="yes"/>
      <point x="801" y="372"/>
      <point x="811" y="330"/>
      <point x="811" y="270" type="curve" smooth="yes"/>
      <point x="811" y="36" type="line" smooth="yes"/>
      <point x="811" y="4"/>
      <point x="798" y="-10"/>
      <point x="765" y="-10" type="curve" smooth="yes"/>
      <point x="611" y="-10" type="line" smooth="yes"/>
      <point x="579" y="-10"/>
      <point x="565" y="4"/>
      <point x="565" y="36" type="curve" smooth="yes"/>
      <point x="565" y="308" type="line"/>
      <point x="565" y="305" type="line"/>
      <point x="515" y="470" type="line"/>
      <point x="512" y="477"/>
      <point x="511" y="481"/>
      <point x="505" y="481" type="curve" smooth="yes"/>
      <point x="488" y="481" type="line" smooth="yes"/>
      <point x="482" y="481"/>
      <point x="481" y="477"/>
      <point x="479" y="471" type="curve"/>
      <point x="427" y="305" type="line"/>
      <point x="427" y="308" type="line"/>
      <point x="427" y="36" type="line" smooth="yes"/>
      <point x="427" y="4"/>
      <point x="413" y="-10"/>
    </contour>
    <contour>
      <point x="626" y="348" type="line"/>
      <point x="626" y="146" type="line"/>
      <point x="367" y="146" type="line"/>
      <point x="367" y="348" type="line"/>
    </contour>
    <contour>
      <point x="727" y="789" type="curve" smooth="yes"/>
      <point x="727" y="731" type="line" smooth="yes"/>
      <point x="727" y="642"/>
      <point x="686" y="578"/>
      <point x="500" y="578" type="curve" smooth="yes"/>
      <point x="314" y="578"/>
      <point x="273" y="642"/>
      <point x="273" y="731" type="curve" smooth="yes"/>
      <point x="273" y="789" type="line" smooth="yes"/>
      <point x="273" y="878"/>
      <point x="314" y="942"/>
      <point x="500" y="942" type="curve" smooth="yes"/>
      <point x="686" y="942"/>
      <point x="727" y="878"/>
    </contour>
    <contour>
      <point x="550" y="724" type="curve" smooth="yes"/>
      <point x="550" y="759" type="line" smooth="yes"/>
      <point x="550" y="781"/>
      <point x="539" y="789"/>
      <point x="501" y="789" type="curve" smooth="yes"/>
      <point x="464" y="789"/>
      <point x="454" y="780"/>
      <point x="454" y="759" type="curve" smooth="yes"/>
      <point x="454" y="724" type="line" smooth="yes"/>
      <point x="454" y="700"/>
      <point x="463" y="691"/>
      <point x="501" y="691" type="curve" smooth="yes"/>
      <point x="539" y="691"/>
      <point x="550" y="700"/>
    </contour>
  </outline>
</glyph>
<glyph name="B.v.alt002" format="1">
  <advance width="1000"/>
  <outline>
    <contour>
      <point x="319" y="95" type="line"/>
      <point x="314" y="100" type="line"/>
      <point x="569" y="100" type="line" smooth="yes"/>
      <point x="669" y="100"/>
      <point x="690" y="135"/>
      <point x="690" y="190" type="curve" smooth="yes"/>
      <point x="690" y="254" type="line" smooth="yes"/>
      <point x="690" y="314"/>
      <point x="671" y="359"/>
      <point x="570" y="359" type="curve" smooth="yes"/>
      <point x="315" y="359" type="line"/>
      <point x="315" y="369" type="line"/>
      <point x="503" y="369" type="line" smooth="yes"/>
      <point x="613" y="369"/>
      <point x="624" y="412"/>
      <point x="624" y="460" type="curve" smooth="yes"/>
      <point x="624" y="524" type="line" smooth="yes"/>
      <point x="624" y="578"/>
      <point x="604" y="620"/>
      <point x="503" y="620" type="curve" smooth="yes"/>
      <point x="314" y="620" type="line"/>
      <point x="319" y="625" type="line"/>
    </contour>
    <contour>
      <point x="309" y="630" type="line"/>
      <point x="503" y="630" type="line" smooth="yes"/>
      <point x="614" y="630"/>
      <point x="634" y="582"/>
      <point x="634" y="524" type="curve" smooth="yes"/>
      <point x="634" y="460" type="line" smooth="yes"/>
      <point x="634" y="408"/>
      <point x="622" y="362"/>
      <point x="503" y="362" type="curve" smooth="yes"/>
      <point x="315" y="362" type="line"/>
      <point x="315" y="369" type="line"/>
      <point x="570" y="369" type="line" smooth="yes"/>
      <point x="681" y="369"/>
      <point x="700" y="320"/>
      <point x="700" y="254" type="curve" smooth="yes"/>
      <point x="700" y="190" type="line" smooth="yes"/>
      <point x="700" y="131"/>
      <point x="681" y="90"/>
      <point x="569" y="90" type="curve" smooth="yes"/>
      <point x="314" y="90" type="line"/>
      <point x="309" y="90" type="line"/>
    </contour>
  </outline>
</glyph>
<glyph name="C.v.alt000" format="1">
  <advance width="1000"/>
  <outline>
    <contour>
      <point x="755" y="-10" type="curve" smooth="yes"/>
      <point x="442" y="-10" type="line" smooth="yes"/>
      <point x="244" y="-10"/>
      <point x="186" y="78"/>
      <point x="186" y="204" type="curve" smooth="yes"/>
      <point x="186" y="515" type="line" smooth="yes"/>
      <point x="186" y="642"/>
      <point x="244" y="730"/>
      <point x="442" y="730" type="curve" smooth="yes"/>
      <point x="755" y="730" type="line" smooth="yes"/>
      <point x="787" y="730"/>
      <point x="801" y="716"/>
      <point x="801" y="684" type="curve" smooth="yes"/>
      <point x="801" y="563" type="line" smooth="yes"/>
      <point x="801" y="531"/>
      <point x="787" y="517"/>
      <point x="755" y="517" type="curve" smooth="yes"/>
      <point x="485" y="517" type="line" smooth="yes"/>
      <point x="443" y="517"/>
      <point x="434" y="499"/>
      <point x="434" y="477" type="curve" smooth="yes"/>
      <point x="434" y="239" type="line" smooth="yes"/>
      <point x="434" y="216"/>
      <point x="444" y="201"/>
      <point x="485" y="201" type="curve" smooth="yes"/>
      <point x="755" y="201" type="line" smooth="yes"/>
      <point x="787" y="201"/>
      <point x="801" y="187"/>
      <point x="801" y="155" type="curve" smooth="yes"/>
      <point x="801" y="36" type="line" smooth="yes"/>
      <point x="801" y="4"/>
      <point x="787" y="-10"/>
    </contour>
  </outline>
</glyph>
<glyph name="D.alt000" format="1">
  <advance width="746"/>
  <outline>
    <contour>
      <point x="442" y="-10" type="curve" smooth="yes"/>
      <point x="105" y="-10" type="line" smooth="yes"/>
      <point x="73" y="-10"/>
      <point x="59" y="4"/>
      <point x="59" y="36" type="curve" smooth="yes"/>
      <point x="59" y="684" type="line" smooth="yes"/>
      <point x="59" y="716"/>
      <point x="73" y="730"/>
      <point x="105" y="730" type="curve" smooth="yes"/>
      <point x="442" y="730" type="line" smooth="yes"/>
      <point x="618" y="730"/>
      <point x="698" y="661"/>
      <point x="698" y="516" type="curve" smooth="yes"/>
      <point x="698" y="204" type="line" smooth="yes"/>
      <point x="698" y="59"/>
      <point x="618" y="-10"/>
    </contour>
    <contour>
      <point x="296" y="519" type="line"/>
      <point x="306" y="529" type="line"/>
      <point x="306" y="189" type="line"/>
      <point x="296" y="199" type="line"/>
      <point x="415" y="199" type="line" smooth="yes"/>
      <point x="440" y="199"/>
      <point x="452" y="211"/>
      <point x="452" y="238" type="curve" smooth="yes"/>
      <point x="452" y="481" type="line" smooth="yes"/>
      <point x="452" y="507"/>
      <point x="440" y="519"/>
      <point x="415" y="519" type="curve" smooth="yes"/>
    </contour>
  </outline>
</glyph>
<glyph name="D.s_v.alt000" format="1">
  <advance width="1000"/>
  <outline>
    <contour>
      <point x="559" y="-10" type="curve" smooth="yes"/>
      <point x="236" y="-10" type="line" smooth="yes"/>
      <point x="204" y="-10"/>
      <point x="190" y="4"/>
      <point x="190" y="36" type="curve" smooth="yes"/>
      <point x="190" y="644" type="line" smooth="yes"/>
      <point x="190" y="676"/>
      <point x="204" y="690"/>
      <point x="236" y="690" type="curve" smooth="yes"/>
      <point x="559" y="690" type="line" smooth="yes"/>
      <point x="757" y="690"/>
      <point x="815" y="602"/>
      <point x="815" y="476" type="curve" smooth="yes"/>
      <point x="815" y="204" type="line" smooth="yes"/>
      <point x="815" y="78"/>
      <point x="757" y="-10"/>
    </contour>
    <contour>
      <point x="427" y="479" type="line"/>
      <point x="437" y="489" type="line"/>
      <point x="437" y="189" type="line"/>
      <point x="427" y="199" type="line"/>
      <point x="532" y="199" type="line" smooth="yes"/>
      <point x="564" y="199"/>
      <point x="569" y="217"/>
      <point x="569" y="238" type="curve" smooth="yes"/>
      <point x="569" y="441" type="line" smooth="yes"/>
      <point x="569" y="461"/>
      <point x="564" y="479"/>
      <point x="532" y="479" type="curve" smooth="yes"/>
    </contour>
  </outline>
</glyph>
<glyph name="Delta.alt000" format="1">
  <advance width="730"/>
  <outline>
    <contour>
      <point x="640" y="-10" type="curve" smooth="yes"/>
      <point x="90" y="-10" type="line" smooth="yes"/>
      <point x="58" y="-10"/>
      <point x="44" y="4"/>
      <point x="44" y="36" type="curve" smooth="yes"/>
      <point x="44" y="170" type="line" smooth="yes"/>
      <point x="44" y="230"/>
      <point x="60" y="290"/>
      <point x="73" y="342" type="curve" smooth="yes"/>
      <point x="161" y="682" type="line"/>
      <point x="161" y="683" type="line" smooth="yes"/>
      <point x="176" y="717"/>
      <point x="193" y="730"/>
      <point x="232" y="730" type="curve" smooth="yes"/>
      <point x="499" y="730" type="line" smooth="yes"/>
      <point x="537" y="730"/>
      <point x="555" y="717"/>
      <point x="569" y="683" type="curve" smooth="yes"/>
      <point x="570" y="682" type="line"/>
      <point x="570" y="681" type="line"/>
      <point x="657" y="342" type="line" smooth="yes"/>
      <point x="670" y="290"/>
      <point x="686" y="230"/>
      <point x="686" y="170" type="curve" smooth="yes"/>
      <point x="686" y="36" type="line" smooth="yes"/>
      <point x="686" y="4"/>
      <point x="673" y="-10"/>
    </contour>
    <contour>
      <point x="282" y="210" type="curve" smooth="yes"/>
      <point x="282" y="189" type="line"/>
      <point x="272" y="199" type="line"/>
      <point x="450" y="199" type="line"/>
      <point x="440" y="189" type="line"/>
      <point x="440" y="210" type="line" smooth="yes"/>
      <point x="440" y="223"/>
      <point x="436" y="243"/>
      <point x="432" y="259" type="curve" smooth="yes"/>
      <point x="379" y="502" type="line"/>
      <point x="380" y="500" type="line"/>
      <point x="377" y="507"/>
      <point x="376" y="511"/>
      <point x="370" y="511" type="curve" smooth="yes"/>
      <point x="353" y="511" type="line" smooth="yes"/>
      <point x="347" y="511"/>
      <point x="346" y="507"/>
      <point x="343" y="500" type="curve"/>
      <point x="344" y="502" type="line"/>
      <point x="290" y="259" type="line" smooth="yes"/>
      <point x="286" y="243"/>
      <point x="282" y="223"/>
    </contour>
  </outline>
</glyph>
<glyph name="E.s_v.alt000" format="1">
  <advance width="1000"/>
  <outline>
    <contour>
      <point x="754" y="-10" type="curve" smooth="yes"/>
      <point x="236" y="-10" type="line" smooth="yes"/>
      <point x="204" y="-10"/>
      <point x="190" y="4"/>
      <point x="190" y="36" type="curve" smooth="yes"/>
      <point x="190" y="644" type="line" smooth="yes"/>
      <point x="190" y="676"/>
      <point x="204" y="690"/>
      <point x="236" y="690" type="curve" smooth="yes"/>
      <point x="754" y="690" type="line" smooth="yes"/>
      <point x="786" y="690"/>
      <point x="800" y="676"/>
      <point x="800" y="644" type="curve" smooth="yes"/>
      <point x="800" y="531" type="line" smooth="yes"/>
      <point x="800" y="499"/>
      <point x="786" y="485"/>
      <point x="754" y="485" type="curve" smooth="yes"/>
      <point x="424" y="485" type="line"/>
      <point x="434" y="495" type="line"/>
      <point x="434" y="428" type="line"/>
      <point x="424" y="438" type="line"/>
      <point x="673" y="438" type="line" smooth="yes"/>
      <point x="705" y="438"/>
      <point x="719" y="425"/>
      <point x="719" y="392" type="curve" smooth="yes"/>
      <point x="719" y="297" type="line" smooth="yes"/>
      <point x="719" y="265"/>
      <point x="705" y="251"/>
      <point x="673" y="251" type="curve" smooth="yes"/>
      <point x="424" y="251" type="line"/>
      <point x="434" y="261" type="line"/>
      <point x="434" y="185" type="line"/>
      <point x="424" y="195" type="line"/>
      <point x="754" y="195" type="line" smooth="yes"/>
      <point x="786" y="195"/>
      <point x="800" y="181"/>
      <point x="800" y="149" type="curve" smooth="yes"/>
      <point x="800" y="36" type="line" smooth="yes"/>
      <point x="800" y="4"/>
      <point x="786" y="-10"/>
    </contour>
  </outline>
</glyph>
<glyph name="E.salt.alt000" format="1">
  <advance width="643"/>
  <outline>
    <contour>
      <point x="558" y="-10" type="curve" smooth="yes"/>
      <point x="304" y="-10" type="line" smooth="yes"/>
      <point x="106" y="-10"/>
      <point x="48" y="78"/>
      <point x="48" y="204" type="curve" smooth="yes"/>
      <point x="48" y="515" type="line" smooth="yes"/>
      <point x="48" y="642"/>
      <point x="106" y="730"/>
      <point x="304" y="730" type="curve" smooth="yes"/>
      <point x="558" y="730" type="line" smooth="yes"/>
      <point x="590" y="730"/>
      <point x="604" y="716"/>
      <point x="604" y="684" type="curve" smooth="yes"/>
      <point x="604" y="567" type="line" smooth="yes"/>
      <point x="604" y="535"/>
      <point x="590" y="521"/>
      <point x="558" y="521" type="curve" smooth="yes"/>
      <point x="337" y="521" type="line" smooth="yes"/>
      <point x="295" y="521"/>
      <point x="286" y="503"/>
      <point x="286" y="481" type="curve" smooth="yes"/>
      <point x="286" y="237" type="line" smooth="yes"/>
      <point x="286" y="214"/>
      <point x="296" y="199"/>
      <point x="337" y="199" type="curve" smooth="yes"/>
      <point x="558" y="199" type="line" smooth="yes"/>
      <point x="590" y="199"/>
      <point x="604" y="185"/>
      <point x="604" y="153" type="curve" smooth="yes"/>
      <point x="604" y="36" type="line" smooth="yes"/>
      <point x="604" y="4"/>
      <point x="590" y="-10"/>
    </contour>
    <contour>
      <point x="478" y="265" type="curve" smooth="yes"/>
      <point x="206" y="265" type="line"/>
      <point x="206" y="464" type="line"/>
      <point x="216" y="464" type="line"/>
      <point x="478" y="464" type="line" smooth="yes"/>
      <point x="510" y="464"/>
      <point x="524" y="451"/>
      <point x="524" y="418" type="curve" smooth="yes"/>
      <point x="524" y="311" type="line" smooth="yes"/>
      <point x="524" y="279"/>
      <point x="510" y="265"/>
    </contour>
  </outline>
</glyph>
<glyph name="E.salt.alt001" format="1">
  <advance width="643"/>
  <outline>
    <contour>
      <point x="558" y="0" type="line" smooth="yes"/>
      <point x="583" y="0"/>
      <point x="594" y="11"/>
      <point x="594" y="36" type="curve" smooth="yes"/>
      <point x="594" y="153" type="line" smooth="yes"/>
      <point x="594" y="178"/>
      <point x="583" y="189"/>
      <point x="558" y="189" type="curve" smooth="yes"/>
      <point x="337" y="189" type="line" smooth="yes"/>
      <point x="285" y="189"/>
      <point x="276" y="209"/>
      <point x="276" y="237" type="curve" smooth="yes"/>
      <point x="276" y="481" type="line" smooth="yes"/>
      <point x="276" y="507"/>
      <point x="285" y="531"/>
      <point x="337" y="531" type="curve" smooth="yes"/>
      <point x="558" y="531" type="line" smooth="yes"/>
      <point x="583" y="531"/>
      <point x="594" y="542"/>
      <point x="594" y="567" type="curve" smooth="yes"/>
      <point x="594" y="684" type="line" smooth="yes"/>
      <point x="594" y="709"/>
      <point x="583" y="720"/>
      <point x="558" y="720" type="curve" smooth="yes"/>
      <point x="304" y="720" type="line" smooth="yes"/>
      <point x="115" y="720"/>
      <point x="58" y="637"/>
      <point x="58" y="515" type="curve" smooth="yes"/>
      <point x="58" y="204" type="line" smooth="yes"/>
      <point x="58" y="83"/>
      <point x="115" y="0"/>
      <point x="304" y="0" type="curve" smooth="yes"/>
    </contour>
    <contour>
      <point x="216" y="275" type="line"/>
      <point x="478" y="275" type="line" smooth="yes"/>
      <point x="503" y="275"/>
      <point x="514" y="286"/>
      <point x="514" y="311" type="curve" smooth="yes"/>
      <point x="514" y="418" type="line" smooth="yes"/>
      <point x="514" y="444"/>
      <point x="503" y="454"/>
      <point x="478" y="454" type="curve" smooth="yes"/>
      <point x="216" y="454" type="line"/>
    </contour>
  </outline>
</glyph>
<glyph name="E.salt_s_v.alt000" format="1">
  <advance width="1000"/>
  <outline>
    <contour>
      <point x="442" y="-10" type="line" smooth="yes"/>
      <point x="244" y="-10"/>
      <point x="186" y="78"/>
      <point x="186" y="204" type="curve" smooth="yes"/>
      <point x="186" y="475" type="line" smooth="yes"/>
      <point x="186" y="602"/>
      <point x="244" y="690"/>
      <point x="442" y="690" type="curve" smooth="yes"/>
      <point x="754" y="690" type="line" smooth="yes"/>
      <point x="786" y="690"/>
      <point x="800" y="676"/>
      <point x="800" y="644" type="curve" smooth="yes"/>
      <point x="800" y="531" type="line" smooth="yes"/>
      <point x="800" y="499"/>
      <point x="786" y="485"/>
      <point x="754" y="485" type="curve" smooth="yes"/>
      <point x="481" y="485" type="line" smooth="yes"/>
      <point x="439" y="485"/>
      <point x="430" y="467"/>
      <point x="430" y="445" type="curve" smooth="yes"/>
      <point x="430" y="233" type="line" smooth="yes"/>
      <point x="430" y="210"/>
      <point x="440" y="195"/>
      <point x="481" y="195" type="curve" smooth="yes"/>
      <point x="754" y="195" type="line" smooth="yes"/>
      <point x="786" y="195"/>
      <point x="800" y="181"/>
      <point x="800" y="149" type="curve" smooth="yes"/>
      <point x="800" y="36" type="line" smooth="yes"/>
      <point x="800" y="4"/>
      <point x="786" y="-10"/>
      <point x="754" y="-10" type="curve" smooth="yes"/>
    </contour>
    <contour>
      <point x="673" y="251" type="curve" smooth="yes"/>
      <point x="384" y="251" type="line"/>
      <point x="384" y="438" type="line"/>
      <point x="394" y="438" type="line"/>
      <point x="673" y="438" type="line" smooth="yes"/>
      <point x="705" y="438"/>
      <point x="719" y="425"/>
      <point x="719" y="392" type="curve" smooth="yes"/>
      <point x="719" y="297" type="line" smooth="yes"/>
      <point x="719" y="265"/>
      <point x="705" y="251"/>
    </contour>
  </outline>
</glyph>
<glyph name="E.v.alt000" format="1">
  <advance width="1000"/>
  <outline>
    <contour>
      <point x="755" y="-10" type="curve" smooth="yes"/>
      <point x="237" y="-10" type="line" smooth="yes"/>
      <point x="205" y="-10"/>
      <point x="191" y="4"/>
      <point x="191" y="36" type="curve" smooth="yes"/>
      <point x="191" y="684" type="line" smooth="yes"/>
      <point x="191" y="716"/>
      <point x="205" y="730"/>
      <point x="237" y="730" type="curve" smooth="yes"/>
      <point x="755" y="730" type="line" smooth="yes"/>
      <point x="787" y="730"/>
      <point x="801" y="716"/>
      <point x="801" y="684" type="curve" smooth="yes"/>
      <point x="801" y="567" type="line" smooth="yes"/>
      <point x="801" y="535"/>
      <point x="787" y="521"/>
      <point x="755" y="521" type="curve" smooth="yes"/>
      <point x="425" y="521" type="line"/>
      <point x="435" y="531" type="line"/>
      <point x="435" y="454" type="line"/>
      <point x="425" y="464" type="line"/>
      <point x="674" y="464" type="line" smooth="yes"/>
      <point x="706" y="464"/>
      <point x="720" y="451"/>
      <point x="720" y="418" type="curve" smooth="yes"/>
      <point x="720" y="311" type="line" smooth="yes"/>
      <point x="720" y="279"/>
      <point x="706" y="265"/>
      <point x="674" y="265" type="curve" smooth="yes"/>
      <point x="425" y="265" type="line"/>
      <point x="435" y="275" type="line"/>
      <point x="435" y="189" type="line"/>
      <point x="425" y="199" type="line"/>
      <point x="755" y="199" type="line" smooth="yes"/>
      <point x="787" y="199"/>
      <point x="801" y="185"/>
      <point x="801" y="153" type="curve" smooth="yes"/>
      <point x="801" y="36" type="line" smooth="yes"/>
      <point x="801" y="4"/>
      <point x="787" y="-10"/>
    </contour>
  </outline>
</glyph>
<glyph name="Eng.alt000" format="1">
  <advance width="746"/>
  <outline>
    <contour>
      <point x="54" y="531" type="line" smooth="yes"/>
      <point x="54" y="657"/>
      <point x="113" y="745"/>
      <point x="373" y="745" type="curve" smooth="yes"/>
      <point x="633" y="745"/>
      <point x="692" y="657"/>
      <point x="692" y="531" type="curve" smooth="yes"/>
      <point x="692" y="114" type="line" smooth="yes"/>
      <point x="692" y="-12"/>
      <point x="634" y="-100"/>
      <point x="436" y="-100" type="curve" smooth="yes"/>
      <point x="391" y="-100" type="line" smooth="yes"/>
      <point x="359" y="-100"/>
      <point x="345" y="-86"/>
      <point x="345" y="-54" type="curve" smooth="yes"/>
      <point x="345" y="65" type="line" smooth="yes"/>
      <point x="345" y="97"/>
      <point x="359" y="111"/>
      <point x="391" y="111" type="curve" smooth="yes"/>
      <point x="412" y="111" type="line" smooth="yes"/>
      <point x="440" y="111"/>
      <point x="443" y="128"/>
      <point x="443" y="149" type="curve" smooth="yes"/>
      <point x="443" y="492" type="line" smooth="yes"/>
      <point x="443" y="516"/>
      <point x="426" y="529"/>
      <point x="371" y="529" type="curve" smooth="yes"/>
      <point x="315" y="529"/>
      <point x="298" y="516"/>
      <point x="298" y="492" type="curve" smooth="yes"/>
      <point x="298" y="36" type="line" smooth="yes"/>
      <point x="298" y="4"/>
      <point x="285" y="-10"/>
      <point x="252" y="-10" type="curve" smooth="yes"/>
      <point x="100" y="-10" type="line" smooth="yes"/>
      <point x="68" y="-10"/>
      <point x="54" y="4"/>
      <point x="54" y="36" type="curve" smooth="yes"/>
    </contour>
  </outline>
</glyph>
<glyph name="Eng.v.alt000" format="1">
  <advance width="1000"/>
  <outline>
    <contour>
      <point x="190" y="512" type="line" smooth="yes"/>
      <point x="190" y="638"/>
      <point x="249" y="726"/>
      <point x="500" y="726" type="curve" smooth="yes"/>
      <point x="751" y="726"/>
      <point x="810" y="638"/>
      <point x="810" y="512" type="curve" smooth="yes"/>
      <point x="810" y="115" type="line" smooth="yes"/>
      <point x="810" y="-12"/>
      <point x="752" y="-100"/>
      <point x="554" y="-100" type="curve" smooth="yes"/>
      <point x="509" y="-100" type="line" smooth="yes"/>
      <point x="477" y="-100"/>
      <point x="463" y="-86"/>
      <point x="463" y="-54" type="curve" smooth="yes"/>
      <point x="463" y="66" type="line" smooth="yes"/>
      <point x="463" y="98"/>
      <point x="477" y="112"/>
      <point x="509" y="112" type="curve" smooth="yes"/>
      <point x="530" y="112" type="line" smooth="yes"/>
      <point x="558" y="112"/>
      <point x="561" y="129"/>
      <point x="561" y="150" type="curve" smooth="yes"/>
      <point x="561" y="473" type="line" smooth="yes"/>
      <point x="561" y="496"/>
      <point x="546" y="510"/>
      <point x="498" y="510" type="curve" smooth="yes"/>
      <point x="449" y="510"/>
      <point x="434" y="496"/>
      <point x="434" y="473" type="curve" smooth="yes"/>
      <point x="434" y="36" type="line" smooth="yes"/>
      <point x="434" y="4"/>
      <point x="421" y="-10"/>
      <point x="388" y="-10" type="curve" smooth="yes"/>
      <point x="236" y="-10" type="line" smooth="yes"/>
      <point x="204" y="-10"/>
      <point x="190" y="4"/>
      <point x="190" y="36" type="curve" smooth="yes"/>
    </contour>
  </outline>
</glyph>
<glyph name="Eth.alt000" format="1">
  <advance width="756"/>
  <outline>
    <contour>
      <point x="56" y="255" type="line" smooth="yes"/>
      <point x="24" y="255"/>
      <point x="10" y="268"/>
      <point x="10" y="301" type="curve"/>
      <point x="10" y="408" type="line" smooth="yes"/>
      <point x="10" y="440"/>
      <point x="24" y="454"/>
      <point x="56" y="454" type="curve" smooth="yes"/>
      <point x="344" y="454" type="line" smooth="yes"/>
      <point x="376" y="454"/>
      <point x="390" y="441"/>
      <point x="390" y="408" type="curve" smooth="yes"/>
      <point x="390" y="301" type="line" smooth="yes"/>
      <point x="390" y="268"/>
      <point x="376" y="255"/>
      <point x="344" y="255" type="curve" smooth="yes"/>
    </contour>
    <contour>
      <point x="452" y="-10" type="curve" smooth="yes"/>
      <point x="115" y="-10" type="line" smooth="yes"/>
      <point x="83" y="-10"/>
      <point x="69" y="4"/>
      <point x="69" y="36" type="curve" smooth="yes"/>
      <point x="69" y="684" type="line" smooth="yes"/>
      <point x="69" y="716"/>
      <point x="83" y="730"/>
      <point x="115" y="730" type="curve" smooth="yes"/>
      <point x="452" y="730" type="line" smooth="yes"/>
      <point x="650" y="730"/>
      <point x="708" y="642"/>
      <point x="708" y="516" type="curve" smooth="yes"/>
      <point x="708" y="204" type="line" smooth="yes"/>
      <point x="708" y="78"/>
      <point x="650" y="-10"/>
    </contour>
    <contour>
      <point x="303" y="519" type="line"/>
      <point x="313" y="529" type="line"/>
      <point x="313" y="189" type="line"/>
      <point x="303" y="199" type="line"/>
      <point x="425" y="199" type="line" smooth="yes"/>
      <point x="457" y="199"/>
      <point x="462" y="217"/>
      <point x="462" y="238" type="curve" smooth="yes"/>
      <point x="462" y="481" type="line" smooth="yes"/>
      <point x="462" y="501"/>
      <point x="457" y="519"/>
      <point x="425" y="519" type="curve" smooth="yes"/>
    </contour>
  </outline>
</glyph>
<glyph name="Eth.alt002" format="1">
  <advance width="756"/>
  <outline>
    <contour>
      <point x="191" y="100" type="line"/>
      <point x="430" y="100" type="line" smooth="yes"/>
      <point x="558" y="100"/>
      <point x="580" y="153"/>
      <point x="580" y="226" type="curve" smooth="yes"/>
      <point x="580" y="491" type="line" smooth="yes"/>
      <point x="580" y="564"/>
      <point x="556" y="620"/>
      <point x="430" y="620" type="curve" smooth="yes"/>
      <point x="191" y="620" type="line"/>
      <point x="196" y="625" type="line"/>
      <point x="196" y="95" type="line"/>
    </contour>
    <contour>
      <point x="110" y="359" type="line"/>
      <point x="290" y="359" type="line"/>
      <point x="290" y="349" type="line"/>
      <point x="110" y="349" type="line"/>
    </contour>
    <contour>
      <point x="430" y="90" type="curve" smooth="yes"/>
      <point x="186" y="90" type="line"/>
      <point x="186" y="630" type="line"/>
      <point x="191" y="630" type="line"/>
      <point x="430" y="630" type="line" smooth="yes"/>
      <point x="566" y="630"/>
      <point x="590" y="568"/>
      <point x="590" y="491" type="curve" smooth="yes"/>
      <point x="590" y="226" type="line" smooth="yes"/>
      <point x="590" y="149"/>
      <point x="568" y="90"/>
    </contour>
  </outline>
</glyph>
<glyph name="Euro.alt000" format="1">
  <advance width="648"/>
  <outline>
    <contour>
      <point x="64" y="369" type="line" smooth="yes"/>
      <point x="40" y="369"/>
      <point x="30" y="375"/>
      <point x="30" y="402" type="curve"/>
      <point x="30" y="474" type="line" smooth="yes"/>
      <point x="30" y="501"/>
      <point x="40" y="508"/>
      <point x="64" y="508" type="curve" smooth="yes"/>
      <point x="476" y="508" type="line" smooth="yes"/>
      <point x="500" y="508"/>
      <point x="510" y="501"/>
      <point x="510" y="474" type="curve" smooth="yes"/>
      <point x="510" y="402" type="line" smooth="yes"/>
      <point x="510" y="375"/>
      <point x="500" y="369"/>
      <point x="476" y="369" type="curve" smooth="yes"/>
    </contour>
    <contour>
      <point x="568" y="-10" type="curve" smooth="yes"/>
      <point x="324" y="-10" type="line" smooth="yes"/>
      <point x="126" y="-10"/>
      <point x="68" y="78"/>
      <point x="68" y="204" type="curve" smooth="yes"/>
      <point x="68" y="515" type="line" smooth="yes"/>
      <point x="68" y="642"/>
      <point x="126" y="730"/>
      <point x="324" y="730" type="curve" smooth="yes"/>
      <point x="568" y="730" type="line" smooth="yes"/>
      <point x="600" y="730"/>
      <point x="614" y="716"/>
      <point x="614" y="684" type="curve" smooth="yes"/>
      <point x="614" y="573" type="line" smooth="yes"/>
      <point x="614" y="541"/>
      <point x="600" y="527"/>
      <point x="568" y="527" type="curve" smooth="yes"/>
      <point x="357" y="527" type="line" smooth="yes"/>
      <point x="315" y="527"/>
      <point x="306" y="509"/>
      <point x="306" y="487" type="curve" smooth="yes"/>
      <point x="306" y="229" type="line" smooth="yes"/>
      <point x="306" y="206"/>
      <point x="316" y="191"/>
      <point x="357" y="191" type="curve" smooth="yes"/>
      <point x="568" y="191" type="line" smooth="yes"/>
      <point x="600" y="191"/>
      <point x="614" y="177"/>
      <point x="614" y="145" type="curve" smooth="yes"/>
      <point x="614" y="36" type="line" smooth="yes"/>
      <point x="614" y="4"/>
      <point x="600" y="-10"/>
    </contour>
    <contour>
      <point x="64" y="209" type="line" smooth="yes"/>
      <point x="40" y="209"/>
      <point x="30" y="215"/>
      <point x="30" y="242" type="curve"/>
      <point x="30" y="314" type="line" smooth="yes"/>
      <point x="30" y="341"/>
      <point x="40" y="348"/>
      <point x="64" y="348" type="curve" smooth="yes"/>
      <point x="476" y="348" type="line" smooth="yes"/>
      <point x="500" y="348"/>
      <point x="510" y="341"/>
      <point x="510" y="314" type="curve" smooth="yes"/>
      <point x="510" y="242" type="line" smooth="yes"/>
      <point x="510" y="215"/>
      <point x="500" y="209"/>
      <point x="476" y="209" type="curve" smooth="yes"/>
    </contour>
  </outline>
</glyph>
<glyph name="F.alt000" format="1">
  <advance width="618"/>
  <outline>
    <contour>
      <point x="260" y="-10" type="curve" smooth="yes"/>
      <point x="105" y="-10" type="line" smooth="yes"/>
      <point x="73" y="-10"/>
      <point x="59" y="4"/>
      <point x="59" y="36" type="curve" smooth="yes"/>
      <point x="59" y="684" type="line" smooth="yes"/>
      <point x="59" y="716"/>
      <point x="73" y="730"/>
      <point x="105" y="730" type="curve" smooth="yes"/>
      <point x="551" y="730" type="line" smooth="yes"/>
      <point x="583" y="730"/>
      <point x="597" y="716"/>
      <point x="597" y="684" type="curve" smooth="yes"/>
      <point x="597" y="565" type="line" smooth="yes"/>
      <point x="597" y="533"/>
      <point x="583" y="519"/>
      <point x="551" y="519" type="curve" smooth="yes"/>
      <point x="296" y="519" type="line"/>
      <point x="306" y="529" type="line"/>
      <point x="306" y="425" type="line"/>
      <point x="296" y="435" type="line"/>
      <point x="470" y="435" type="line" smooth="yes"/>
      <point x="502" y="435"/>
      <point x="516" y="421"/>
      <point x="516" y="389" type="curve" smooth="yes"/>
      <point x="516" y="269" type="line" smooth="yes"/>
      <point x="516" y="237"/>
      <point x="502" y="223"/>
      <point x="470" y="223" type="curve" smooth="yes"/>
      <point x="296" y="223" type="line"/>
      <point x="306" y="233" type="line"/>
      <point x="306" y="36" type="line" smooth="yes"/>
      <point x="306" y="4"/>
      <point x="292" y="-10"/>
    </contour>
  </outline>
</glyph>
<glyph name="F.alt001" format="1">
  <advance width="618"/>
  <outline>
    <contour>
      <point x="260" y="0" type="line" smooth="yes"/>
      <point x="285" y="0"/>
      <point x="296" y="11"/>
      <point x="296" y="36" type="curve" smooth="yes"/>
      <point x="296" y="233" type="line"/>
      <point x="470" y="233" type="line" smooth="yes"/>
      <point x="495" y="233"/>
      <point x="506" y="244"/>
      <point x="506" y="269" type="curve" smooth="yes"/>
      <point x="506" y="389" type="line" smooth="yes"/>
      <point x="506" y="414"/>
      <point x="495" y="425"/>
      <point x="470" y="425" type="curve" smooth="yes"/>
      <point x="296" y="425" type="line"/>
      <point x="296" y="529" type="line"/>
      <point x="551" y="529" type="line" smooth="yes"/>
      <point x="576" y="529"/>
      <point x="587" y="540"/>
      <point x="587" y="565" type="curve" smooth="yes"/>
      <point x="587" y="684" type="line" smooth="yes"/>
      <point x="587" y="709"/>
      <point x="576" y="720"/>
      <point x="551" y="720" type="curve" smooth="yes"/>
      <point x="105" y="720" type="line" smooth="yes"/>
      <point x="80" y="720"/>
      <point x="69" y="709"/>
      <point x="69" y="684" type="curve" smooth="yes"/>
      <point x="69" y="36" type="line" smooth="yes"/>
      <point x="69" y="11"/>
      <point x="80" y="0"/>
      <point x="105" y="0" type="curve" smooth="yes"/>
    </contour>
  </outline>
</glyph>
<glyph name="F.v.alt000" format="1">
  <advance width="1000"/>
  <outline>
    <contour>
      <point x="392" y="-10" type="curve" smooth="yes"/>
      <point x="237" y="-10" type="line" smooth="yes"/>
      <point x="205" y="-10"/>
      <point x="191" y="5"/>
      <point x="191" y="37" type="curve" smooth="yes"/>
      <point x="191" y="685" type="line" smooth="yes"/>
      <point x="191" y="717"/>
      <point x="205" y="731"/>
      <point x="237" y="731" type="curve" smooth="yes"/>
      <point x="755" y="731" type="line" smooth="yes"/>
      <point x="787" y="731"/>
      <point x="801" y="717"/>
      <point x="801" y="685" type="curve" smooth="yes"/>
      <point x="801" y="566" type="line" smooth="yes"/>
      <point x="801" y="534"/>
      <point x="787" y="520"/>
      <point x="755" y="520" type="curve" smooth="yes"/>
      <point x="428" y="520" type="line"/>
      <point x="438" y="530" type="line"/>
      <point x="438" y="426" type="line"/>
      <point x="428" y="436" type="line"/>
      <point x="674" y="436" type="line" smooth="yes"/>
      <point x="706" y="436"/>
      <point x="720" y="422"/>
      <point x="720" y="390" type="curve" smooth="yes"/>
      <point x="720" y="270" type="line" smooth="yes"/>
      <point x="720" y="238"/>
      <point x="706" y="224"/>
      <point x="674" y="224" type="curve" smooth="yes"/>
      <point x="428" y="224" type="line"/>
      <point x="438" y="234" type="line"/>
      <point x="438" y="37" type="line" smooth="yes"/>
      <point x="438" y="5"/>
      <point x="424" y="-10"/>
    </contour>
  </outline>
</glyph>
<glyph name="G.s_v.alt002" format="1">
  <advance width="1000"/>
  <outline>
    <contour>
      <point x="304" y="457" type="curve" smooth="yes"/>
      <point x="304" y="219" type="line" smooth="yes"/>
      <point x="304" y="126"/>
      <point x="337" y="90"/>
      <point x="484" y="90" type="curve" smooth="yes"/>
      <point x="692" y="90" type="line"/>
      <point x="692" y="291" type="line"/>
      <point x="682" y="291" type="line"/>
      <point x="682" y="100" type="line"/>
      <point x="484" y="100" type="line" smooth="yes"/>
      <point x="349" y="100"/>
      <point x="314" y="132"/>
      <point x="314" y="219" type="curve" smooth="yes"/>
      <point x="314" y="457" type="line" smooth="yes"/>
      <point x="314" y="546"/>
      <point x="346" y="578"/>
      <point x="464" y="578" type="curve" smooth="yes"/>
      <point x="645" y="578" type="line"/>
      <point x="645" y="588" type="line"/>
      <point x="464" y="588" type="line" smooth="yes"/>
      <point x="336" y="588"/>
      <point x="304" y="552"/>
    </contour>
  </outline>
</glyph>
<glyph name="G.v.alt001" format="1">
  <advance width="1000"/>
  <outline>
    <contour>
      <point x="764" y="0" type="line" smooth="yes"/>
      <point x="789" y="0"/>
      <point x="800" y="11"/>
      <point x="800" y="36" type="curve" smooth="yes"/>
      <point x="800" y="345" type="line" smooth="yes"/>
      <point x="800" y="370"/>
      <point x="789" y="381"/>
      <point x="764" y="381" type="curve" smooth="yes"/>
      <point x="609" y="381" type="line" smooth="yes"/>
      <point x="584" y="381"/>
      <point x="573" y="370"/>
      <point x="573" y="345" type="curve" smooth="yes"/>
      <point x="573" y="189" type="line"/>
      <point x="468" y="189" type="line" smooth="yes"/>
      <point x="428" y="189"/>
      <point x="422" y="211"/>
      <point x="422" y="238" type="curve" smooth="yes"/>
      <point x="422" y="477" type="line" smooth="yes"/>
      <point x="422" y="503"/>
      <point x="431" y="527"/>
      <point x="483" y="527" type="curve" smooth="yes"/>
      <point x="699" y="527" type="line" smooth="yes"/>
      <point x="724" y="527"/>
      <point x="735" y="538"/>
      <point x="735" y="563" type="curve" smooth="yes"/>
      <point x="735" y="684" type="line" smooth="yes"/>
      <point x="735" y="709"/>
      <point x="724" y="720"/>
      <point x="699" y="720" type="curve" smooth="yes"/>
      <point x="441" y="720" type="line" smooth="yes"/>
      <point x="252" y="720"/>
      <point x="195" y="637"/>
      <point x="195" y="516" type="curve" smooth="yes"/>
      <point x="195" y="204" type="line" smooth="yes"/>
      <point x="195" y="83"/>
      <point x="252" y="0"/>
      <point x="441" y="0" type="curve" smooth="yes"/>
    </contour>
  </outline>
</glyph>
<glyph name="Germandbls.alt001" format="1">
  <advance width="759.0"/>
  <outline>
    <contour>
      <point x="296" y="36" type="curve" smooth="yes"/>
      <point x="296" y="531" type="line"/>
      <point x="375" y="531" type="line" smooth="yes"/>
      <point x="392" y="531"/>
      <point x="397" y="518"/>
      <point x="394" y="503" type="curve" smooth="yes"/>
      <point x="361" y="340" type="line" smooth="yes"/>
      <point x="353" y="303"/>
      <point x="366" y="284"/>
      <point x="398" y="284" type="curve" smooth="yes"/>
      <point x="470" y="284" type="line" smooth="yes"/>
      <point x="486" y="284"/>
      <point x="497" y="277"/>
      <point x="497" y="261" type="curve" smooth="yes"/>
      <point x="497" y="212" type="line" smooth="yes"/>
      <point x="497" y="196"/>
      <point x="486" y="189"/>
      <point x="470" y="189" type="curve" smooth="yes"/>
      <point x="392" y="189" type="line" smooth="yes"/>
      <point x="367" y="189"/>
      <point x="356" y="178"/>
      <point x="356" y="153" type="curve" smooth="yes"/>
      <point x="356" y="36" type="line" smooth="yes"/>
      <point x="356" y="11"/>
      <point x="367" y="0"/>
      <point x="392" y="0" type="curve" smooth="yes"/>
      <point x="530" y="0" type="line" smooth="yes"/>
      <point x="650" y="0"/>
      <point x="725" y="64"/>
      <point x="725" y="166" type="curve" smooth="yes"/>
      <point x="725" y="289" type="line" smooth="yes"/>
      <point x="725" y="382"/>
      <point x="668" y="433"/>
      <point x="597" y="446" type="curve"/>
      <point x="620" y="529" type="line" smooth="yes"/>
      <point x="650.641775601" y="639.576842386"/>
      <point x="594.153846154" y="720"/>
      <point x="476" y="720" type="curve" smooth="yes"/>
      <point x="105" y="720" type="line" smooth="yes"/>
      <point x="81" y="720"/>
      <point x="69" y="708"/>
      <point x="69" y="684" type="curve" smooth="yes"/>
      <point x="69" y="36" type="line" smooth="yes"/>
      <point x="69" y="11"/>
      <point x="80" y="0"/>
      <point x="105" y="0" type="curve" smooth="yes"/>
      <point x="260" y="0" type="line" smooth="yes"/>
      <point x="285" y="0"/>
      <point x="296" y="11"/>
    </contour>
  </outline>
</glyph>
<glyph name="Germandbls.alt002" format="1">
  <advance width="759.0"/>
  <outline>
    <contour>
      <point x="193" y="90" type="line"/>
      <point x="193" y="620" type="line"/>
      <point x="431" y="620" type="line" smooth="yes"/>
      <point x="492" y="620"/>
      <point x="513" y="585"/>
      <point x="495" y="520" type="curve"/>
      <point x="451" y="364" type="line"/>
      <point x="511" y="364" type="line" smooth="yes"/>
      <point x="573" y="364"/>
      <point x="606" y="339"/>
      <point x="606" y="276" type="curve" smooth="yes"/>
      <point x="606" y="188" type="line" smooth="yes"/>
      <point x="606" y="126"/>
      <point x="577" y="100"/>
      <point x="502" y="100" type="curve" smooth="yes"/>
      <point x="446" y="100" type="line"/>
      <point x="446" y="90" type="line"/>
      <point x="502" y="90" type="line" smooth="yes"/>
      <point x="585" y="90"/>
      <point x="616" y="120"/>
      <point x="616" y="188" type="curve" smooth="yes"/>
      <point x="616" y="276" type="line" smooth="yes"/>
      <point x="616" y="345"/>
      <point x="581" y="374"/>
      <point x="511" y="374" type="curve" smooth="yes"/>
      <point x="465" y="374" type="line"/>
      <point x="505" y="518" type="line" smooth="yes"/>
      <point x="525" y="593"/>
      <point x="500" y="630"/>
      <point x="431" y="630" type="curve" smooth="yes"/>
      <point x="183" y="630" type="line"/>
      <point x="183" y="90" type="line"/>
    </contour>
  </outline>
</glyph>
<glyph name="Germandbls.v.alt000" format="1">
  <advance width="1000"/>
  <outline>
    <contour>
      <point x="437" y="36" type="line" smooth="yes"/>
      <point x="437" y="4"/>
      <point x="423" y="-10"/>
      <point x="391" y="-10" type="curve" smooth="yes"/>
      <point x="236" y="-10" type="line" smooth="yes"/>
      <point x="204" y="-10"/>
      <point x="190" y="4"/>
      <point x="190" y="36" type="curve" smooth="yes"/>
      <point x="190" y="684" type="line" smooth="yes"/>
      <point x="190" y="715"/>
      <point x="205" y="730"/>
      <point x="236" y="730" type="curve" smooth="yes"/>
      <point x="592" y="730" type="line" smooth="yes"/>
      <point x="717" y="730"/>
      <point x="770" y="650"/>
      <point x="746" y="527" type="curve" smooth="yes"/>
      <point x="728" y="435" type="line"/>
      <point x="720" y="447" type="line"/>
      <point x="775" y="437"/>
      <point x="820" y="384"/>
      <point x="820" y="289" type="curve" smooth="yes"/>
      <point x="820" y="166" type="line" smooth="yes"/>
      <point x="820" y="58"/>
      <point x="748" y="-10"/>
      <point x="631" y="-10" type="curve" smooth="yes"/>
      <point x="513" y="-10" type="line" smooth="yes"/>
      <point x="481" y="-10"/>
      <point x="467" y="4"/>
      <point x="467" y="36" type="curve" smooth="yes"/>
      <point x="467" y="153" type="line" smooth="yes"/>
      <point x="467" y="185"/>
      <point x="481" y="199"/>
      <point x="513" y="199" type="curve" smooth="yes"/>
      <point x="565" y="199" type="line" smooth="yes"/>
      <point x="574" y="199"/>
      <point x="582" y="202"/>
      <point x="582" y="212" type="curve" smooth="yes"/>
      <point x="582" y="261" type="line" smooth="yes"/>
      <point x="582" y="271"/>
      <point x="574" y="274"/>
      <point x="565" y="274" type="curve" smooth="yes"/>
      <point x="529" y="274" type="line" smooth="yes"/>
      <point x="491" y="274"/>
      <point x="475" y="294"/>
      <point x="482" y="341" type="curve" smooth="yes"/>
      <point x="505" y="504" type="line" smooth="yes"/>
      <point x="506" y="511"/>
      <point x="506" y="521"/>
      <point x="496" y="521" type="curve" smooth="yes"/>
      <point x="427" y="521" type="line"/>
      <point x="437" y="531" type="line"/>
    </contour>
  </outline>
</glyph>
<glyph name="Germandbls.v.alt001" format="1">
  <advance width="1000"/>
  <outline>
    <contour>
      <point x="427" y="36" type="curve" smooth="yes"/>
      <point x="427" y="535" type="line"/>
      <point x="496" y="535" type="line" smooth="yes"/>
      <point x="513" y="535"/>
      <point x="517" y="522"/>
      <point x="515" y="507" type="curve" smooth="yes"/>
      <point x="492" y="340" type="line" smooth="yes"/>
      <point x="487" y="303"/>
      <point x="497" y="284"/>
      <point x="529" y="284" type="curve" smooth="yes"/>
      <point x="565" y="284" type="line" smooth="yes"/>
      <point x="581" y="284"/>
      <point x="592" y="277"/>
      <point x="592" y="261" type="curve" smooth="yes"/>
      <point x="592" y="208" type="line" smooth="yes"/>
      <point x="592" y="192"/>
      <point x="581" y="185"/>
      <point x="565" y="185" type="curve" smooth="yes"/>
      <point x="513" y="185" type="line" smooth="yes"/>
      <point x="488" y="185"/>
      <point x="477" y="174"/>
      <point x="477" y="149" type="curve" smooth="yes"/>
      <point x="477" y="36" type="line" smooth="yes"/>
      <point x="477" y="11"/>
      <point x="488" y="0"/>
      <point x="513" y="0" type="curve" smooth="yes"/>
      <point x="631" y="0" type="line" smooth="yes"/>
      <point x="741" y="0"/>
      <point x="810" y="64"/>
      <point x="810" y="166" type="curve" smooth="yes"/>
      <point x="810" y="289" type="line" smooth="yes"/>
      <point x="810" y="377"/>
      <point x="770" y="428"/>
      <point x="718" y="437" type="curve"/>
      <point x="736" y="529" type="line" smooth="yes"/>
      <point x="758" y="644"/>
      <point x="710" y="720"/>
      <point x="592" y="720" type="curve" smooth="yes"/>
      <point x="236" y="720" type="line" smooth="yes"/>
      <point x="212" y="720"/>
      <point x="200" y="708"/>
      <point x="200" y="684" type="curve" smooth="yes"/>
      <point x="200" y="36" type="line" smooth="yes"/>
      <point x="200" y="11"/>
      <point x="211" y="0"/>
      <point x="236" y="0" type="curve" smooth="yes"/>
      <point x="391" y="0" type="line" smooth="yes"/>
      <point x="416" y="0"/>
      <point x="427" y="11"/>
    </contour>
  </outline>
</glyph>
<glyph name="H.s_v.alt000" format="1">
  <advance width="1000"/>
  <outline>
    <contour>
      <point x="391" y="-10" type="curve" smooth="yes"/>
      <point x="236" y="-10" type="line" smooth="yes"/>
      <point x="204" y="-10"/>
      <point x="190" y="4"/>
      <point x="190" y="36" type="curve" smooth="yes"/>
      <point x="190" y="644" type="line" smooth="yes"/>
      <point x="190" y="676"/>
      <point x="204" y="690"/>
      <point x="236" y="690" type="curve" smooth="yes"/>
      <point x="391" y="690" type="line" smooth="yes"/>
      <point x="423" y="690"/>
      <point x="437" y="676"/>
      <point x="437" y="644" type="curve" smooth="yes"/>
      <point x="437" y="447" type="line"/>
      <point x="427" y="457" type="line"/>
      <point x="573" y="457" type="line"/>
      <point x="563" y="447" type="line"/>
      <point x="563" y="644" type="line" smooth="yes"/>
      <point x="563" y="676"/>
      <point x="577" y="690"/>
      <point x="609" y="690" type="curve" smooth="yes"/>
      <point x="764" y="690" type="line" smooth="yes"/>
      <point x="796" y="690"/>
      <point x="810" y="676"/>
      <point x="810" y="644" type="curve" smooth="yes"/>
      <point x="810" y="36" type="line" smooth="yes"/>
      <point x="810" y="4"/>
      <point x="796" y="-10"/>
      <point x="764" y="-10" type="curve" smooth="yes"/>
      <point x="609" y="-10" type="line" smooth="yes"/>
      <point x="577" y="-10"/>
      <point x="563" y="4"/>
      <point x="563" y="36" type="curve" smooth="yes"/>
      <point x="563" y="238" type="line"/>
      <point x="573" y="228" type="line"/>
      <point x="427" y="228" type="line"/>
      <point x="437" y="238" type="line"/>
      <point x="437" y="36" type="line" smooth="yes"/>
      <point x="437" y="4"/>
      <point x="423" y="-10"/>
    </contour>
  </outline>
</glyph>
<glyph name="H.s_v.alt002" format="1">
  <advance width="1000"/>
  <outline>
    <contour>
      <point x="314" y="345" type="line"/>
      <point x="686" y="345" type="line"/>
      <point x="686" y="335" type="line"/>
      <point x="314" y="335" type="line"/>
    </contour>
    <contour>
      <point x="691" y="590" type="line"/>
      <point x="691" y="90" type="line"/>
      <point x="681" y="90" type="line"/>
      <point x="681" y="590" type="line"/>
    </contour>
    <contour>
      <point x="319" y="590" type="line"/>
      <point x="319" y="90" type="line"/>
      <point x="309" y="90" type="line"/>
      <point x="309" y="590" type="line"/>
    </contour>
  </outline>
</glyph>
<glyph name="IJ.alt000" format="1">
  <advance width="744.0"/>
  <outline>
    <contour>
      <point x="59" y="36" type="curve" smooth="yes"/>
      <point x="59" y="157" type="line" smooth="yes"/>
      <point x="59" y="189"/>
      <point x="73" y="203"/>
      <point x="105" y="203" type="curve" smooth="yes"/>
      <point x="380" y="203" type="line" smooth="yes"/>
      <point x="421" y="203"/>
      <point x="443" y="219"/>
      <point x="443" y="260" type="curve" smooth="yes"/>
      <point x="443" y="684" type="line" smooth="yes"/>
      <point x="443" y="716"/>
      <point x="457" y="730"/>
      <point x="489" y="730" type="curve" smooth="yes"/>
      <point x="644" y="730" type="line" smooth="yes"/>
      <point x="676" y="730"/>
      <point x="690" y="716"/>
      <point x="690" y="684" type="curve" smooth="yes"/>
      <point x="690" y="210" type="line" smooth="yes"/>
      <point x="690" y="72"/>
      <point x="605" y="-10"/>
      <point x="467" y="-10" type="curve" smooth="yes"/>
      <point x="105" y="-10" type="line" smooth="yes"/>
      <point x="73" y="-10"/>
      <point x="59" y="4"/>
    </contour>
    <contour>
      <point x="260" y="300" type="curve" smooth="yes"/>
      <point x="105" y="300" type="line" smooth="yes"/>
      <point x="73" y="300"/>
      <point x="59" y="314"/>
      <point x="59" y="346" type="curve" smooth="yes"/>
      <point x="59" y="684" type="line" smooth="yes"/>
      <point x="59" y="716"/>
      <point x="73" y="730"/>
      <point x="105" y="730" type="curve" smooth="yes"/>
      <point x="260" y="730" type="line" smooth="yes"/>
      <point x="292" y="730"/>
      <point x="306" y="716"/>
      <point x="306" y="684" type="curve" smooth="yes"/>
      <point x="306" y="346" type="line" smooth="yes"/>
      <point x="306" y="314"/>
      <point x="292" y="300"/>
    </contour>
  </outline>
</glyph>
<glyph name="IJ.alt001" format="1">
  <advance width="744.0"/>
  <outline>
    <contour>
      <point x="69.0" y="36.0" type="line" smooth="yes"/>
      <point x="69.0" y="11.0"/>
      <point x="80.0" y="0.0"/>
      <point x="105.0" y="0.0" type="curve"/>
      <point x="467.0" y="0.0" type="line" smooth="yes"/>
      <point x="599.0" y="0.0"/>
      <point x="680.0" y="78.0"/>
      <point x="680.0" y="210.0" type="curve" smooth="yes"/>
      <point x="680.0" y="684.0" type="line" smooth="yes"/>
      <point x="680.0" y="709.0"/>
      <point x="669.0" y="720.0"/>
      <point x="644.0" y="720.0" type="curve" smooth="yes"/>
      <point x="489.0" y="720.0" type="line" smooth="yes"/>
      <point x="464.0" y="720.0"/>
      <point x="453.0" y="709.0"/>
      <point x="453.0" y="684.0" type="curve" smooth="yes"/>
      <point x="453.0" y="260.0" type="line" smooth="yes"/>
      <point x="453.0" y="212.0"/>
      <point x="428.0" y="193.0"/>
      <point x="380.0" y="193.0" type="curve" smooth="yes"/>
      <point x="105.0" y="193.0" type="line" smooth="yes"/>
      <point x="80.0" y="193.0"/>
      <point x="69.0" y="182.0"/>
      <point x="69.0" y="157.0" type="curve" smooth="yes"/>
    </contour>
    <contour>
      <point x="260" y="310" type="line" smooth="yes"/>
      <point x="285" y="310"/>
      <point x="296" y="321"/>
      <point x="296" y="346" type="curve" smooth="yes"/>
      <point x="296.0" y="684.0" type="line" smooth="yes"/>
      <point x="296" y="709"/>
      <point x="285.0" y="720.0"/>
      <point x="260.0" y="720.0" type="curve" smooth="yes"/>
      <point x="105.0" y="720.0" type="line" smooth="yes"/>
      <point x="80.0" y="720.0"/>
      <point x="69" y="709"/>
      <point x="69.0" y="684.0" type="curve" smooth="yes"/>
      <point x="69" y="346" type="line" smooth="yes"/>
      <point x="69" y="321"/>
      <point x="80" y="310"/>
      <point x="105" y="310" type="curve" smooth="yes"/>
    </contour>
  </outline>
</glyph>
<glyph name="IJ.v.alt000" format="1">
  <advance width="1000"/>
  <outline>
    <contour>
      <point x="190" y="36" type="curve" smooth="yes"/>
      <point x="190" y="157" type="line" smooth="yes"/>
      <point x="190" y="189"/>
      <point x="204" y="203"/>
      <point x="236" y="203" type="curve" smooth="yes"/>
      <point x="500" y="203" type="line" smooth="yes"/>
      <point x="541" y="203"/>
      <point x="563" y="219"/>
      <point x="563" y="260" type="curve" smooth="yes"/>
      <point x="563" y="684" type="line" smooth="yes"/>
      <point x="563" y="716"/>
      <point x="577" y="730"/>
      <point x="609" y="730" type="curve" smooth="yes"/>
      <point x="764" y="730" type="line" smooth="yes"/>
      <point x="796" y="730"/>
      <point x="810" y="716"/>
      <point x="810" y="684" type="curve" smooth="yes"/>
      <point x="810" y="210" type="line" smooth="yes"/>
      <point x="810" y="72"/>
      <point x="725" y="-10"/>
      <point x="587" y="-10" type="curve" smooth="yes"/>
      <point x="236" y="-10" type="line" smooth="yes"/>
      <point x="204" y="-10"/>
      <point x="190" y="4"/>
    </contour>
    <contour>
      <point x="391" y="320" type="curve" smooth="yes"/>
      <point x="236" y="320" type="line" smooth="yes"/>
      <point x="204" y="320"/>
      <point x="190" y="334"/>
      <point x="190" y="366" type="curve" smooth="yes"/>
      <point x="190" y="684" type="line" smooth="yes"/>
      <point x="190" y="716"/>
      <point x="204" y="730"/>
      <point x="236" y="730" type="curve" smooth="yes"/>
      <point x="391" y="730" type="line" smooth="yes"/>
      <point x="423" y="730"/>
      <point x="437" y="716"/>
      <point x="437" y="684" type="curve" smooth="yes"/>
      <point x="437" y="366" type="line" smooth="yes"/>
      <point x="437" y="334"/>
      <point x="423" y="320"/>
    </contour>
  </outline>
</glyph>
<glyph name="I.alt000" format="1">
  <advance width="605"/>
  <outline>
    <contour>
      <point x="89" y="-10" type="line" smooth="yes"/>
      <point x="57" y="-10"/>
      <point x="43" y="4"/>
      <point x="43" y="36" type="curve" smooth="yes"/>
      <point x="43" y="155" type="line" smooth="yes"/>
      <point x="43" y="187"/>
      <point x="57" y="201"/>
      <point x="89" y="201" type="curve" smooth="yes"/>
      <point x="188" y="201" type="line"/>
      <point x="178" y="191" type="line"/>
      <point x="178" y="527" type="line"/>
      <point x="188" y="517" type="line"/>
      <point x="89" y="517" type="line" smooth="yes"/>
      <point x="57" y="517"/>
      <point x="43" y="531"/>
      <point x="43" y="563" type="curve" smooth="yes"/>
      <point x="43" y="684" type="line" smooth="yes"/>
      <point x="43" y="716"/>
      <point x="57" y="730"/>
      <point x="89" y="730" type="curve" smooth="yes"/>
      <point x="515" y="730" type="line" smooth="yes"/>
      <point x="547" y="730"/>
      <point x="561" y="716"/>
      <point x="561" y="684" type="curve" smooth="yes"/>
      <point x="561" y="563" type="line" smooth="yes"/>
      <point x="561" y="531"/>
      <point x="547" y="517"/>
      <point x="515" y="517" type="curve" smooth="yes"/>
      <point x="418" y="517" type="line"/>
      <point x="428" y="527" type="line"/>
      <point x="428" y="191" type="line"/>
      <point x="418" y="201" type="line"/>
      <point x="515" y="201" type="line" smooth="yes"/>
      <point x="547" y="201"/>
      <point x="561" y="187"/>
      <point x="561" y="155" type="curve" smooth="yes"/>
      <point x="561" y="36" type="line" smooth="yes"/>
      <point x="561" y="4"/>
      <point x="547" y="-10"/>
      <point x="515" y="-10" type="curve" smooth="yes"/>
    </contour>
  </outline>
</glyph>
<glyph name="I.salt.alt000" format="1">
  <advance width="371.0"/>
  <outline>
    <contour>
      <point x="265" y="-10" type="curve" smooth="yes"/>
      <point x="106" y="-10" type="line" smooth="yes"/>
      <point x="74" y="-10"/>
      <point x="60" y="4"/>
      <point x="60" y="36" type="curve" smooth="yes"/>
      <point x="60" y="684" type="line" smooth="yes"/>
      <point x="60" y="716"/>
      <point x="74" y="730"/>
      <point x="106" y="730" type="curve" smooth="yes"/>
      <point x="265" y="730" type="line" smooth="yes"/>
      <point x="297" y="730"/>
      <point x="311" y="716"/>
      <point x="311" y="684" type="curve" smooth="yes"/>
      <point x="311" y="36" type="line" smooth="yes"/>
      <point x="311" y="4"/>
      <point x="297" y="-10"/>
    </contour>
  </outline>
</glyph>
<glyph name="I.salt_s_v.alt002" format="1">
  <advance width="1000"/>
  <outline>
    <contour>
      <point x="495" y="590" type="line"/>
      <point x="495" y="90" type="line"/>
      <point x="505" y="90" type="line"/>
      <point x="505" y="590" type="line"/>
    </contour>
  </outline>
</glyph>
<glyph name="I.salt_v.alt000" format="1">
  <advance width="1000"/>
  <outline>
    <contour>
      <point x="579" y="-10" type="curve" smooth="yes"/>
      <point x="420" y="-10" type="line" smooth="yes"/>
      <point x="388" y="-10"/>
      <point x="374" y="4"/>
      <point x="374" y="36" type="curve" smooth="yes"/>
      <point x="374" y="684" type="line" smooth="yes"/>
      <point x="374" y="716"/>
      <point x="388" y="730"/>
      <point x="420" y="730" type="curve" smooth="yes"/>
      <point x="579" y="730" type="line" smooth="yes"/>
      <point x="611" y="730"/>
      <point x="625" y="716"/>
      <point x="625" y="684" type="curve" smooth="yes"/>
      <point x="625" y="36" type="line" smooth="yes"/>
      <point x="625" y="4"/>
      <point x="611" y="-10"/>
    </contour>
  </outline>
</glyph>
<glyph name="I.v.alt000" format="1">
  <advance width="1000"/>
  <outline>
    <contour>
      <point x="245" y="-10" type="line" smooth="yes"/>
      <point x="213" y="-10"/>
      <point x="199" y="4"/>
      <point x="199" y="36" type="curve" smooth="yes"/>
      <point x="199" y="155" type="line" smooth="yes"/>
      <point x="199" y="187"/>
      <point x="213" y="201"/>
      <point x="245" y="201" type="curve" smooth="yes"/>
      <point x="379" y="201" type="line"/>
      <point x="369" y="191" type="line"/>
      <point x="369" y="527" type="line"/>
      <point x="379" y="517" type="line"/>
      <point x="245" y="517" type="line" smooth="yes"/>
      <point x="213" y="517"/>
      <point x="199" y="531"/>
      <point x="199" y="563" type="curve" smooth="yes"/>
      <point x="199" y="684" type="line" smooth="yes"/>
      <point x="199" y="716"/>
      <point x="213" y="730"/>
      <point x="245" y="730" type="curve" smooth="yes"/>
      <point x="755" y="730" type="line" smooth="yes"/>
      <point x="787" y="730"/>
      <point x="801" y="716"/>
      <point x="801" y="684" type="curve" smooth="yes"/>
      <point x="801" y="563" type="line" smooth="yes"/>
      <point x="801" y="531"/>
      <point x="787" y="517"/>
      <point x="755" y="517" type="curve" smooth="yes"/>
      <point x="621" y="517" type="line"/>
      <point x="631" y="527" type="line"/>
      <point x="631" y="191" type="line"/>
      <point x="621" y="201" type="line"/>
      <point x="755" y="201" type="line" smooth="yes"/>
      <point x="787" y="201"/>
      <point x="801" y="187"/>
      <point x="801" y="155" type="curve" smooth="yes"/>
      <point x="801" y="36" type="line" smooth="yes"/>
      <point x="801" y="4"/>
      <point x="787" y="-10"/>
      <point x="755" y="-10" type="curve" smooth="yes"/>
    </contour>
  </outline>
</glyph>
<glyph name="I_I.salt_v.alt000" format="1">
  <advance width="1000"/>
  <outline>
    <contour>
      <point x="437" y="684" type="curve" smooth="yes"/>
      <point x="437" y="684"/>
      <point x="437" y="36"/>
      <point x="437" y="36" type="curve" smooth="yes"/>
      <point x="437" y="4"/>
      <point x="423" y="-10"/>
      <point x="391" y="-10" type="curve" smooth="yes"/>
      <point x="236" y="-10" type="line" smooth="yes"/>
      <point x="204" y="-10"/>
      <point x="190" y="4"/>
      <point x="190" y="36" type="curve" smooth="yes"/>
      <point x="190" y="684" type="line" smooth="yes"/>
      <point x="190" y="716"/>
      <point x="204" y="730"/>
      <point x="236" y="730" type="curve" smooth="yes"/>
      <point x="391" y="730" type="line" smooth="yes"/>
      <point x="423" y="730"/>
      <point x="437" y="716"/>
    </contour>
    <contour>
      <point x="563" y="36" type="curve" smooth="yes"/>
      <point x="563" y="36"/>
      <point x="563" y="684"/>
      <point x="563" y="684" type="curve" smooth="yes"/>
      <point x="563" y="716"/>
      <point x="577" y="730"/>
      <point x="609" y="730" type="curve" smooth="yes"/>
      <point x="764" y="730" type="line" smooth="yes"/>
      <point x="796" y="730"/>
      <point x="810" y="716"/>
      <point x="810" y="684" type="curve" smooth="yes"/>
      <point x="810" y="36" type="line" smooth="yes"/>
      <point x="810" y="4"/>
      <point x="796" y="-10"/>
      <point x="764" y="-10" type="curve" smooth="yes"/>
      <point x="609" y="-10" type="line" smooth="yes"/>
      <point x="577" y="-10"/>
      <point x="563" y="4"/>
    </contour>
  </outline>
</glyph>
<glyph name="J.alt000" format="1">
  <advance width="688"/>
  <outline>
    <contour>
      <point x="634" y="189" type="line" smooth="yes"/>
      <point x="634" y="63"/>
      <point x="578" y="-25"/>
      <point x="331" y="-25" type="curve" smooth="yes"/>
      <point x="87" y="-25"/>
      <point x="31" y="63"/>
      <point x="31" y="189" type="curve"/>
      <point x="31" y="351" type="line" smooth="yes"/>
      <point x="31" y="384"/>
      <point x="45" y="397"/>
      <point x="77" y="397" type="curve" smooth="yes"/>
      <point x="222" y="397" type="line" smooth="yes"/>
      <point x="254" y="397"/>
      <point x="268" y="384"/>
      <point x="268" y="351" type="curve" smooth="yes"/>
      <point x="268" y="229" type="line" smooth="yes"/>
      <point x="268" y="206"/>
      <point x="280" y="192"/>
      <point x="329" y="192" type="curve" smooth="yes"/>
      <point x="375" y="192"/>
      <point x="385" y="206"/>
      <point x="385" y="229" type="curve" smooth="yes"/>
      <point x="385" y="684" type="line" smooth="yes"/>
      <point x="385" y="716"/>
      <point x="399" y="730"/>
      <point x="431" y="730" type="curve" smooth="yes"/>
      <point x="588" y="730" type="line" smooth="yes"/>
      <point x="620" y="730"/>
      <point x="634" y="716"/>
      <point x="634" y="684" type="curve" smooth="yes"/>
    </contour>
  </outline>
</glyph>
<glyph name="K.alt000" format="1">
  <advance width="746"/>
  <outline>
    <contour>
      <point x="260" y="-10" type="curve" smooth="yes"/>
      <point x="105" y="-10" type="line" smooth="yes"/>
      <point x="73" y="-10"/>
      <point x="59" y="4"/>
      <point x="59" y="36" type="curve" smooth="yes"/>
      <point x="59" y="684" type="line" smooth="yes"/>
      <point x="59" y="716"/>
      <point x="73" y="730"/>
      <point x="105" y="730" type="curve" smooth="yes"/>
      <point x="260" y="730" type="line" smooth="yes"/>
      <point x="292" y="730"/>
      <point x="306" y="716"/>
      <point x="306" y="684" type="curve" smooth="yes"/>
      <point x="306" y="454" type="line"/>
      <point x="296" y="464" type="line"/>
      <point x="336" y="464" type="line"/>
      <point x="327" y="458" type="line"/>
      <point x="430" y="691" type="line" smooth="yes"/>
      <point x="442" y="719"/>
      <point x="458" y="730"/>
      <point x="489" y="730" type="curve" smooth="yes"/>
      <point x="643" y="730" type="line" smooth="yes"/>
      <point x="676" y="730"/>
      <point x="687" y="713"/>
      <point x="674" y="683" type="curve" smooth="yes"/>
      <point x="572" y="450" type="line"/>
      <point x="564" y="464" type="line"/>
      <point x="644" y="460"/>
      <point x="696" y="404"/>
      <point x="696" y="318" type="curve" smooth="yes"/>
      <point x="696" y="36" type="line" smooth="yes"/>
      <point x="696" y="4"/>
      <point x="682" y="-10"/>
      <point x="650" y="-10" type="curve" smooth="yes"/>
      <point x="496" y="-10" type="line" smooth="yes"/>
      <point x="464" y="-10"/>
      <point x="450" y="4"/>
      <point x="450" y="36" type="curve" smooth="yes"/>
      <point x="450" y="231" type="line" smooth="yes"/>
      <point x="450" y="246"/>
      <point x="443" y="255"/>
      <point x="428" y="255" type="curve" smooth="yes"/>
      <point x="296" y="255" type="line"/>
      <point x="306" y="265" type="line"/>
      <point x="306" y="36" type="line" smooth="yes"/>
      <point x="306" y="4"/>
      <point x="292" y="-10"/>
    </contour>
  </outline>
</glyph>
<glyph name="K.s_v.alt002" format="1">
  <advance width="1000"/>
  <outline>
    <contour>
      <point x="315" y="344" type="move"/>
      <point x="572" y="344" type="line" smooth="yes"/>
      <point x="654" y="344"/>
      <point x="693" y="316"/>
      <point x="693" y="246" type="curve" smooth="yes"/>
      <point x="693" y="90" type="line"/>
      <point x="683" y="90" type="line"/>
      <point x="683" y="246" type="line" smooth="yes"/>
      <point x="683" y="310"/>
      <point x="646" y="334"/>
      <point x="572" y="334" type="curve" smooth="yes"/>
      <point x="315" y="334" type="line"/>
    </contour>
    <contour>
      <point x="320" y="590" type="line"/>
      <point x="320" y="90" type="line"/>
      <point x="310" y="90" type="line"/>
      <point x="310" y="590" type="line"/>
    </contour>
    <contour>
      <point x="646" y="590" type="line"/>
      <point x="528" y="337" type="line"/>
      <point x="519" y="341" type="line"/>
      <point x="635" y="590" type="line"/>
    </contour>
  </outline>
</glyph>
<glyph name="L.salt_v.alt000" format="1">
  <advance width="1000"/>
  <outline>
    <contour>
      <point x="392" y="730" type="line" smooth="yes"/>
      <point x="424" y="730"/>
      <point x="438" y="716"/>
      <point x="438" y="684" type="curve" smooth="yes"/>
      <point x="438" y="193" type="line"/>
      <point x="428" y="203" type="line"/>
      <point x="755" y="203" type="line" smooth="yes"/>
      <point x="787" y="203"/>
      <point x="801" y="189"/>
      <point x="801" y="157" type="curve" smooth="yes"/>
      <point x="801" y="36" type="line" smooth="yes"/>
      <point x="801" y="4"/>
      <point x="787" y="-10"/>
      <point x="755" y="-10" type="curve" smooth="yes"/>
      <point x="237" y="-10" type="line" smooth="yes"/>
      <point x="205" y="-10"/>
      <point x="191" y="4"/>
      <point x="191" y="36" type="curve" smooth="yes"/>
      <point x="191" y="684" type="line" smooth="yes"/>
      <point x="191" y="716"/>
      <point x="205" y="730"/>
      <point x="237" y="730" type="curve" smooth="yes"/>
    </contour>
  </outline>
</glyph>
<glyph name="L.salt_v.alt001" format="1">
  <advance width="1000"/>
  <outline>
    <contour>
      <point x="392" y="720" type="curve" smooth="yes"/>
      <point x="237" y="720" type="line" smooth="yes"/>
      <point x="212" y="720"/>
      <point x="201" y="709"/>
      <point x="201" y="684" type="curve" smooth="yes"/>
      <point x="201" y="36" type="line" smooth="yes"/>
      <point x="201" y="11"/>
      <point x="212" y="0"/>
      <point x="237" y="0" type="curve" smooth="yes"/>
      <point x="755" y="0" type="line" smooth="yes"/>
      <point x="780" y="0"/>
      <point x="791" y="11"/>
      <point x="791" y="36" type="curve" smooth="yes"/>
      <point x="791" y="157" type="line" smooth="yes"/>
      <point x="791" y="182"/>
      <point x="780" y="193"/>
      <point x="755" y="193" type="curve" smooth="yes"/>
      <point x="428" y="193" type="line"/>
      <point x="428" y="684" type="line" smooth="yes"/>
      <point x="428" y="709"/>
      <point x="417" y="720"/>
    </contour>
  </outline>
</glyph>
<glyph name="L.v.alt001" format="1">
  <advance width="1000"/>
  <outline>
    <contour>
      <point x="765" y="0" type="line" smooth="yes"/>
      <point x="790" y="0"/>
      <point x="801" y="11"/>
      <point x="801" y="36" type="curve" smooth="yes"/>
      <point x="801" y="351" type="line" smooth="yes"/>
      <point x="801" y="376"/>
      <point x="790" y="387"/>
      <point x="765" y="387" type="curve" smooth="yes"/>
      <point x="620" y="387" type="line" smooth="yes"/>
      <point x="595" y="387"/>
      <point x="584" y="376"/>
      <point x="584" y="351" type="curve" smooth="yes"/>
      <point x="584" y="189" type="line"/>
      <point x="428" y="189" type="line"/>
      <point x="428" y="684" type="line" smooth="yes"/>
      <point x="428" y="709"/>
      <point x="417" y="720"/>
      <point x="392" y="720" type="curve" smooth="yes"/>
      <point x="237" y="720" type="line" smooth="yes"/>
      <point x="212" y="720"/>
      <point x="201" y="709"/>
      <point x="201" y="684" type="curve"/>
      <point x="201" y="36" type="line"/>
      <point x="201" y="11"/>
      <point x="212" y="0"/>
      <point x="237" y="0" type="curve" smooth="yes"/>
    </contour>
  </outline>
</glyph>
<glyph name="Ldot.alt002" format="1">
  <advance width="695"/>
  <outline>
    <contour>
      <point x="527" y="442" type="line"/>
      <point x="537" y="442" type="line"/>
      <point x="537" y="497" type="line"/>
      <point x="527" y="497" type="line"/>
    </contour>
    <contour>
      <point x="546" y="217" type="line"/>
      <point x="546" y="90" type="line"/>
      <point x="178" y="90" type="line"/>
      <point x="178" y="630" type="line"/>
      <point x="188" y="630" type="line"/>
      <point x="188" y="95" type="line"/>
      <point x="183" y="100" type="line"/>
      <point x="541" y="100" type="line"/>
      <point x="536" y="95" type="line"/>
      <point x="536" y="217" type="line"/>
    </contour>
  </outline>
</glyph>
<glyph name="Ldot.v.alt000" format="1">
  <advance width="1000"/>
  <outline>
    <contour>
      <point x="596" y="-230" type="curve" smooth="yes"/>
      <point x="438" y="-230" type="line" smooth="yes"/>
      <point x="406" y="-230"/>
      <point x="392" y="-216"/>
      <point x="392" y="-184" type="curve" smooth="yes"/>
      <point x="392" y="-57" type="line" smooth="yes"/>
      <point x="392" y="-25"/>
      <point x="406" y="-11"/>
      <point x="438" y="-11" type="curve" smooth="yes"/>
      <point x="596" y="-11" type="line" smooth="yes"/>
      <point x="628" y="-11"/>
      <point x="642" y="-25"/>
      <point x="642" y="-57" type="curve" smooth="yes"/>
      <point x="642" y="-184" type="line" smooth="yes"/>
      <point x="642" y="-216"/>
      <point x="628" y="-230"/>
    </contour>
    <component base="L.s_v.alt000" yOffset="40"/>
  </outline>
</glyph>
